<?xml version="1.0" encoding="UTF-8" standalone="no"?>
<!-- Created with Inkscape (http://www.inkscape.org/) -->

<svg
   xmlns:dc="http://purl.org/dc/elements/1.1/"
   xmlns:cc="http://creativecommons.org/ns#"
   xmlns:rdf="http://www.w3.org/1999/02/22-rdf-syntax-ns#"
   xmlns:svg="http://www.w3.org/2000/svg"
   xmlns="http://www.w3.org/2000/svg"
   xmlns:sodipodi="http://sodipodi.sourceforge.net/DTD/sodipodi-0.dtd"
   xmlns:inkscape="http://www.inkscape.org/namespaces/inkscape"
   id="svg3330"
   height="24"
   width="24"
   version="1.1"
   inkscape:version="0.91 r13725"
   sodipodi:docname="audio.svg"
   inkscape:export-filename="/home/damon/0mq_pyqt/images/audio.png"
   inkscape:export-xdpi="90"
   inkscape:export-ydpi="90">
  <defs
     id="defs12" />
  <sodipodi:namedview
     pagecolor="#ffffff"
     bordercolor="#666666"
     borderopacity="1"
     objecttolerance="10"
     gridtolerance="10"
     guidetolerance="10"
     inkscape:pageopacity="0"
     inkscape:pageshadow="2"
     inkscape:window-width="1865"
     inkscape:window-height="1056"
     id="namedview10"
     showgrid="false"
     inkscape:zoom="9.8333333"
     inkscape:cx="-1.8305085"
     inkscape:cy="12"
     inkscape:window-x="55"
     inkscape:window-y="24"
     inkscape:window-maximized="1"
     inkscape:current-layer="svg3330" />
  <metadata
     id="metadata3335">
    <rdf:RDF>
      <cc:Work
         rdf:about="">
        <dc:format>image/svg+xml</dc:format>
        <dc:type
           rdf:resource="http://purl.org/dc/dcmitype/StillImage" />
        <dc:title></dc:title>
      </cc:Work>
    </rdf:RDF>
  </metadata>
  <path
     inkscape:connector-curvature="0"
     d="M 8,3 C 6.338,3 5,4.338 5,6 l 0,8 c 0,1.662 1.338,3 3,3 1.662,0 3,-1.338 3,-3 L 11,6 C 11,4.338 9.662,3 8,3 Z m -6,7 0,1 1,0 0,3 c 0,2.4238 1.7175,4.4415 4,4.9062 l 0,2.094 -1,0 0,1 4,0 0,-1 -1,0 0,-2.0938 c 2.283,-0.464 4,-2.4822 4,-4.906 l 0,-3 1,0 0,-1 -1,0 -1,0 0,4 c 0,2.216 -1.784,4 -4,4 -2.216,0 -4,-1.784 -4,-4 l 0,-4 -1,0 -1,0 z"
     style="color:#ffffff;opacity:0.3;fill:#ffffff"
     id="path3122-6" />
  <path
     inkscape:connector-curvature="0"
     d="M 12,2 C 10.338,2 9,3.338 9,5 l 0,8 c 0,1.662 1.338,3 3,3 1.662,0 3,-1.338 3,-3 L 15,5 C 15,3.338 13.662,2 12,2 Z m -6,7 0,1 1,0 0,3 c 0,2.4238 1.7175,4.4415 4,4.9062 L 11,20 l -1,0 0,1 4,0 0,-1 -1,0 0,-2.0938 C 15.283,17.4415 17,15.4238 17,13 l 0,-3 1,0 0,-1 -1,0 -1,0 0,4 c 0,2.216 -1.784,4 -4,4 C 9.784,17 8,15.216 8,13 L 8,9 7,9 6,9 Z"
     style="color:#ffffff;fill:#3c3c3c"
     id="path3122" />
</svg>
