<?xml version="1.0" encoding="UTF-8"?>
<!-- Created with Inkscape (http://www.inkscape.org/) -->
<svg width="96" height="96" version="1.1" viewBox="0 0 96 96" xmlns="http://www.w3.org/2000/svg" xmlns:cc="http://creativecommons.org/ns#" xmlns:dc="http://purl.org/dc/elements/1.1/" xmlns:rdf="http://www.w3.org/1999/02/22-rdf-syntax-ns#">
 <metadata>
  <rdf:RDF>
   <cc:Work rdf:about="">
    <dc:format>image/svg+xml</dc:format>
    <dc:type rdf:resource="http://purl.org/dc/dcmitype/StillImage"/>
   </cc:Work>
  </rdf:RDF>
 </metadata>
 <g transform="translate(67.857 -78.505)">
  <g transform="matrix(0 -1 -1 0 373.51 516.51)">
   <g transform="matrix(-.9996 0 0 1 575.94 -611)">
    <g transform="matrix(-1 0 0 1 576 611)">
     <rect transform="scale(-1,1)" x="-438" y="345.36" width="96.038" height="96" color="#000000" fill="none"/>
     <path d="m381.98 355.36c-10.004 0-9.8873 3.9131-10.004 14v48c0.11666 10.087 0 14 10.004 14h36.015c10.004 0 9.8873-3.9131 10.004-14v-48c-0.11666-10.087 0-14-10.004-14z" color="#000000" fill="none" stroke="#000" stroke-width="4.0008"/>
     <g>
      <rect transform="matrix(0,-1,-1,0,0,0)" x="-401.36" y="-371.98" width="16" height="6.0024" color="#000000"/>
      <path d="m349.97 433.36h4.0016l8.0032-12v-56l-8.0032-12h-4.0016z" color="#000000"/>
      <path d="m412.99 405.36h-25.01c-5.002 0-5.002-4-5.002-4v-16c0-4 5.002-4 5.002-4h20.008l10.004 8v12s0 4-5.0019 4zm0-4v-8h-10.004v-8h-15.006v16z" enable-background="new"/>
     </g>
    </g>
   </g>
  </g>
 </g>
</svg>
