<?xml version="1.0" encoding="UTF-8"?>
<svg width="512px" height="512px" enable-background="new 0 0 512 512" version="1.1" viewBox="0 0 512 512" xml:space="preserve" xmlns="http://www.w3.org/2000/svg" xmlns:cc="http://creativecommons.org/ns#" xmlns:dc="http://purl.org/dc/elements/1.1/" xmlns:rdf="http://www.w3.org/1999/02/22-rdf-syntax-ns#"><metadata><rdf:RDF><cc:Work rdf:about=""><dc:format>image/svg+xml</dc:format><dc:type rdf:resource="http://purl.org/dc/dcmitype/StillImage"/></cc:Work></rdf:RDF></metadata><path d="m463.52 94.909h-269.63v-10.37c0-22.908-18.574-41.482-41.482-41.482h-103.7c-22.908 0-41.482 18.574-41.482 41.482v342.22c0 22.907 18.574 41.482 41.482 41.482h414.82c22.908 0 41.482-18.575 41.482-41.482v-290.37c0-22.908-18.574-41.482-41.482-41.482zm-435.56-10.37c0-11.435 9.308-20.741 20.741-20.741h103.7c11.433 0 20.741 9.306 20.741 20.741v31.111h290.37c11.433 0 20.741 9.306 20.741 20.741v20.741h-456.3v-72.593zm435.56 362.97h-414.82c-11.433 0-20.741-9.307-20.741-20.741v-248.89h456.3v248.89c0 11.432-9.307 20.74-20.741 20.74z"/></svg>
