<?xml version="1.0" encoding="UTF-8"?>
<!-- Generator: Adobe Illustrator 18.1.0, SVG Export Plug-In . SVG Version: 6.00 Build 0)  -->
<svg id="Menu" width="60" height="60" enable-background="new 0 0 20 20" version="1.1" viewBox="0 0 60 60" xml:space="preserve" xmlns="http://www.w3.org/2000/svg" xmlns:cc="http://creativecommons.org/ns#" xmlns:dc="http://purl.org/dc/elements/1.1/" xmlns:rdf="http://www.w3.org/1999/02/22-rdf-syntax-ns#"><metadata><rdf:RDF><cc:Work rdf:about=""><dc:format>image/svg+xml</dc:format><dc:type rdf:resource="http://purl.org/dc/dcmitype/StillImage"/></cc:Work></rdf:RDF></metadata><path d="m52.975 26.41h-45.951c-1.9816 0-2.1539 1.6047-2.1539 3.5899 0 1.9852 0.17232 3.5899 2.1539 3.5899h45.951c1.9816 0 2.154-1.6047 2.154-3.5899 0-1.9852-0.17232-3.5899-2.154-3.5899zm0 14.36h-45.951c-1.9816 0-2.1539 1.6047-2.1539 3.5899 0 1.9852 0.17232 3.5899 2.1539 3.5899h45.951c1.9816 0 2.154-1.6047 2.154-3.5899 0-1.9852-0.17232-3.5899-2.154-3.5899zm-45.951-21.539h45.951c1.9816 0 2.154-1.6047 2.154-3.5899 0-1.9852-0.17232-3.5899-2.154-3.5899h-45.951c-1.9816 0-2.1539 1.6047-2.1539 3.5899 0 1.9852 0.17232 3.5899 2.1539 3.5899z" stroke-width="3.5899"/></svg>
