<?xml version="1.0" encoding="UTF-8"?>
<!-- Created with Inkscape (http://www.inkscape.org/) -->
<svg width="14" height="14" version="1.1" viewBox="0 0 14 14" xmlns="http://www.w3.org/2000/svg" xmlns:cc="http://creativecommons.org/ns#" xmlns:dc="http://purl.org/dc/elements/1.1/" xmlns:rdf="http://www.w3.org/1999/02/22-rdf-syntax-ns#">
 <metadata>
  <rdf:RDF>
   <cc:Work rdf:about="">
    <dc:format>image/svg+xml</dc:format>
    <dc:type rdf:resource="http://purl.org/dc/dcmitype/StillImage"/>
   </cc:Work>
  </rdf:RDF>
 </metadata>
 <rect transform="matrix(0,1,1,0,0,0)" x="-82.005" y="-2.2583e-6" width="96" height="96" color="#000000" fill="none"/>
 <path d="m2 9.7996h1.749l0.089747-0.12457c0.26697-0.37106 0.54004-0.73526 0.82404-1.0897 0.35992-0.4493 0.72767-0.87181 1.1037-1.2662 0.36468-0.3823 0.87437-0.84566 1.2335-1.1562 0.35926 0.31066 0.86958 0.77404 1.2341 1.1562 0.37609 0.3944 0.74383 0.81696 1.1037 1.2662 0.28381 0.3541 0.55621 0.7183 0.82342 1.0897l0.08974 0.12457h1.749l-0.76904-1.1674c-0.45008-0.64817-0.90678-1.2754-1.3749-1.8552-0.52287-0.64758-1.0307-1.2289-1.5243-1.7439-0.45612-0.47592-0.87854-0.86296-1.1955-1.1223l-0.13625-0.11126-0.13625 0.11126c-0.32351 0.26637-0.73862 0.64631-1.1948 1.1223-0.49354 0.51502-1.0015 1.0964-1.5243 1.7439-0.46804 0.57957-0.92537 1.2068-1.3756 1.8552z" color="#000000" color-rendering="auto" image-rendering="auto" shape-rendering="auto" solid-color="#000000" style="isolation:auto;mix-blend-mode:normal;text-decoration-color:#000000;text-decoration-line:none;text-decoration-style:solid;text-indent:0;text-transform:none;white-space:normal"/>
</svg>
