<?xml version="1.0" encoding="UTF-8" standalone="no"?>
<svg
   xmlns:dc="http://purl.org/dc/elements/1.1/"
   xmlns:cc="http://creativecommons.org/ns#"
   xmlns:rdf="http://www.w3.org/1999/02/22-rdf-syntax-ns#"
   xmlns:svg="http://www.w3.org/2000/svg"
   xmlns="http://www.w3.org/2000/svg"
   xml:space="preserve"
   width="512px"
   viewBox="0 0 512 512"
   version="1.1"
   style="enable-background:new 0 0 512 512;"
   id="Layer_1"
   height="512px"><metadata
     id="metadata286"><rdf:RDF><cc:Work
         rdf:about=""><dc:format>image/svg+xml</dc:format><dc:type
           rdf:resource="http://purl.org/dc/dcmitype/StillImage" /></cc:Work></rdf:RDF></metadata><defs
     id="defs284" /><g
     id="Layer_1_1_"><circle
       id="circle2"
       style="fill:#8CC53F;"
       r="243"
       cy="264.817"
       cx="269" /></g><g
     id="Layer_2"><g
       id="Favorite" /><g
       id="g278"><path
         id="path6"
         style="opacity:0.2;fill:#FFFF00;adobe-blending-mode:screen;enable-background:new    ;"
         d="M512,264.816    c0,12.09-0.88,23.97-2.59,35.59c-1.96,13.4-5.02,26.44-9.08,39.03l-214.06-73.49l214.71-73.71c3.95,12.65,6.9,25.74,8.74,39.19    C511.22,242.336,512,253.486,512,264.816z" /><path
         id="path8"
         style="opacity:0.2;fill:#FFFF00;adobe-blending-mode:screen;enable-background:new    ;"
         d="M512,264.816    c0,12.09-0.88,23.97-2.59,35.59l-223.14-34.46l223.45-34.52C511.22,242.336,512,253.486,512,264.816z" /><path
         id="path10"
         style="fill:#4D4D4D;"
         d="M171.88,358.026v129.28c0,0.11,0,0.22-0.01,0.32c-3.51-1.53-6.97-3.14-10.39-4.83    c-1.91-0.94-3.79-1.91-5.67-2.89v-121.88c0-3.61,2.93-6.54,6.54-6.54h2.98c0.45,0,0.9,0.05,1.32,0.13    c0.01,0.01,0.02,0.01,0.03,0.01C169.65,352.246,171.88,354.876,171.88,358.026z" /><path
         id="path12"
         style="fill:#4D4D4D;"
         d="M149.18,360.226l-41.98,85.9c-2.86-2.55-5.65-5.17-8.38-7.85c-1.28-1.25-2.55-2.53-3.81-3.81    l39.74-81.29c0.64-1.31,1.66-2.31,2.86-2.93c0.26-0.14,0.54-0.26,0.82-0.36c1.15-0.41,2.41-0.51,3.64-0.22    c0.27,0.06,0.53,0.14,0.8,0.24c0.2,0.07,0.4,0.15,0.6,0.25c0.01,0,0.02,0.01,0.03,0.01l2.68,1.31    C149.43,353.066,150.77,356.976,149.18,360.226z" /><path
         id="path14"
         style="fill:#4D4D4D;"
         d="M267.09,507.806c-3.76-0.03-7.49-0.14-11.2-0.34h-0.01c-1.96-0.1-3.91-0.23-5.85-0.38l-72.4-146.86    c-0.03-0.06-0.05-0.11-0.08-0.17c-0.01-0.01-0.01-0.03-0.01-0.04c-0.07-0.14-0.13-0.28-0.17-0.42c-0.02-0.03-0.03-0.05-0.03-0.08    c-0.04-0.09-0.07-0.18-0.09-0.27c-0.03-0.07-0.05-0.15-0.07-0.22c-0.04-0.16-0.08-0.32-0.11-0.48s-0.05-0.32-0.07-0.47v-0.03    c-0.03-0.23-0.04-0.45-0.04-0.67v-0.03c0-0.15,0.01-0.3,0.02-0.44c0.01-0.11,0.02-0.22,0.03-0.33c0.02-0.13,0.04-0.26,0.06-0.39    c0.03-0.13,0.06-0.26,0.09-0.39c0.1-0.45,0.26-0.89,0.47-1.31c0,0,0.01-0.01,0-0.02c0.11-0.2,0.22-0.41,0.34-0.6    c0.13-0.2,0.26-0.39,0.41-0.58c0.14-0.18,0.29-0.35,0.45-0.51c0.03-0.02,0.05-0.05,0.07-0.06c0.13-0.14,0.26-0.26,0.4-0.37    c0.04-0.04,0.09-0.08,0.13-0.11c0.16-0.13,0.33-0.25,0.51-0.36c0.03-0.03,0.07-0.05,0.11-0.07c0.18-0.12,0.38-0.23,0.58-0.33    l2.68-1.31c0.92-0.45,1.9-0.67,2.87-0.67c0.15,0,0.3,0.01,0.45,0.02c0.14,0.01,0.28,0.02,0.41,0.04c0.03,0,0.06,0.01,0.09,0.01    c0.11,0.02,0.21,0.03,0.31,0.06c0.55,0.1,1.08,0.28,1.58,0.52c1.28,0.62,2.37,1.66,3.04,3.03l74.41,150.93    C267.05,505.296,267.24,506.586,267.09,507.806z" /><path
         id="path16"
         d="M166.68,351.626c-2.97,0.62-5.2,3.25-5.2,6.4v124.77c-1.91-0.94-3.79-1.91-5.67-2.89v-121.88c0-3.61,2.93-6.54,6.54-6.54    h2.98c0.45,0,0.9,0.05,1.32,0.13C166.66,351.626,166.67,351.626,166.68,351.626z" /><path
         id="path18"
         d="M143.47,350.156c-1.28,0.61-2.37,1.65-3.05,3.02l-41.6,85.1c-1.28-1.25-2.55-2.53-3.81-3.81l39.74-81.29    c0.64-1.31,1.66-2.31,2.86-2.93c0.26-0.14,0.54-0.26,0.82-0.36c1.15-0.41,2.41-0.5,3.64-0.22c0.27,0.06,0.53,0.14,0.8,0.24    C143.07,349.976,143.27,350.056,143.47,350.156z" /><path
         id="path20"
         d="M183.3,360.226l72.58,147.24c-1.96-0.1-3.91-0.23-5.85-0.38l-72.4-146.86c-0.03-0.06-0.05-0.11-0.08-0.17    c-0.01-0.01-0.01-0.03-0.01-0.04c-0.07-0.14-0.13-0.28-0.17-0.42c-0.02-0.03-0.03-0.05-0.03-0.08c-0.04-0.09-0.07-0.18-0.09-0.27    c-0.03-0.07-0.05-0.15-0.07-0.22c-0.04-0.16-0.08-0.32-0.11-0.48s-0.05-0.32-0.07-0.47v-0.03c-0.03-0.23-0.04-0.45-0.04-0.67    v-0.03c0-0.15,0.01-0.3,0.02-0.44c0.01-0.11,0.02-0.22,0.03-0.33c0.02-0.13,0.04-0.26,0.06-0.39c0.03-0.13,0.06-0.26,0.09-0.39    c0.11-0.45,0.27-0.89,0.47-1.31c0,0,0.01-0.01,0-0.02c0.11-0.2,0.22-0.41,0.34-0.6c0.13-0.2,0.26-0.39,0.41-0.58    c0.14-0.18,0.29-0.35,0.45-0.51c0.03-0.02,0.05-0.05,0.07-0.06c0.13-0.14,0.26-0.26,0.4-0.37c0.04-0.04,0.09-0.08,0.13-0.11    c0.16-0.13,0.33-0.25,0.51-0.36c0.03-0.03,0.07-0.05,0.11-0.07c0.18-0.12,0.38-0.23,0.58-0.33l2.68-1.31    c0.92-0.45,1.9-0.67,2.87-0.67c0.15,0,0.3,0.01,0.45,0.02c0.14,0.01,0.28,0.02,0.41,0.04c0.03,0,0.06,0.01,0.09,0.01    c0.11,0.02,0.21,0.03,0.31,0.06c0.55,0.1,1.08,0.28,1.58,0.52c-0.01,0.01-0.03,0.01-0.04,0.02l-2.68,1.31    C183.06,353.066,181.71,356.976,183.3,360.226z" /><path
         id="path22"
         d="M177.55,358.026v2.03c-0.63-1.39-0.74-2.88-0.39-4.26C177.41,356.496,177.55,357.246,177.55,358.026z" /><path
         id="path24"
         style="fill:#333333;"
         d="M326.73,242.656v46.58c0,3.24-1.77,5.87-3.96,5.87h-28.7c-2.19,0-3.97-2.63-3.97-5.87v-46.58    c0-3.24,1.78-5.87,3.97-5.87h28.7C324.96,236.786,326.73,239.416,326.73,242.656z" /><path
         id="path26"
         d="M342.215,235.756v60.38c0,4.2-1.78,7.61-3.97,7.61h-28.69c-2.2,0-3.97-3.41-3.97-7.61v-60.38c0-4.2,1.77-7.61,3.97-7.61    h28.69C340.435,228.146,342.215,231.556,342.215,235.756z" /><path
         id="path28"
         style="fill:#333333;"
         d="M345.05,235.756v60.38c0,4.2-1.78,7.61-3.97,7.61h-28.69c-2.2,0-3.97-3.41-3.97-7.61v-60.38    c0-4.2,1.77-7.61,3.97-7.61h28.69C343.27,228.146,345.05,231.556,345.05,235.756z" /><path
         id="path30"
         d="M345.05,277.976v18.16c0,4.2-1.78,7.61-3.97,7.61h-28.69c-2.2,0-3.97-3.41-3.97-7.61v-18.16H345.05z" /><path
         id="path32"
         d="M326.73,282.366v6.87c0,3.24-1.77,5.87-3.96,5.87h-28.7c-2.19,0-3.97-2.63-3.97-5.87v-6.87H326.73z" /><g
         id="g38"><rect
           id="rect34"
           y="189.472"
           x="26.286"
           width="270.07"
           style="fill:#335C64;"
           height="162.012" /><rect
           id="rect36"
           y="189.472"
           x="26.286"
           width="270.07"
           style="opacity:0.5;fill:#335C64;adobe-blending-mode:multiply;enable-background:new    ;"
           height="162.012" /></g><path
         id="path40"
         style="fill:#231F20;"
         d="M39.536,279.442c0,3.245-2.63,5.875-5.875,5.875H14.763c-3.245,0-5.875-2.63-5.875-5.875v-36.785    c0-3.245,2.63-5.875,5.875-5.875h18.898c3.245,0,5.875,2.63,5.875,5.875V279.442z" /><path
         id="path42"
         style="fill:#231F20;"
         d="M196.774,329.613c5.809,0,10.519,2.63,10.519,5.875v18.898c0,3.245-4.709,5.875-10.519,5.875    h-65.86c-5.809,0-10.519-2.63-10.519-5.875v-18.898c0-3.245,4.709-5.875,10.519-5.875H196.774z" /><rect
         id="rect44"
         y="211.907"
         x="32.398"
         width="263.958"
         style="fill:#335C64;"
         height="133.887" /><path
         id="path46"
         style="fill:#4D4D4D;"
         d="M242.82,75.916l-1.8,17.44c-0.14,1.36-2.16,2.28-4.49,2.04l-62.68-6.49l-72.3-7.48    c-2.33-0.24-4.12-1.56-3.98-2.92l1.8-17.44c0.15-1.36,2.17-2.28,4.49-2.04l93.53,9.69l41.46,4.29    C241.17,73.246,242.96,74.556,242.82,75.916z" /><g
         id="g52"><ellipse
           id="ellipse48"
           style="fill:#F5BA3D;"
           ry="75.249"
           rx="75.278"
           cy="127.272"
           cx="87.148" /><ellipse
           id="ellipse50"
           style="fill:#895881;"
           ry="75.249"
           rx="75.278"
           cy="127.272"
           cx="87.148" /></g><g
         id="g58"><ellipse
           id="ellipse54"
           style="fill:#F5BA3D;"
           ry="68.838"
           rx="68.861"
           cy="132.945"
           cx="235.417" /><ellipse
           id="ellipse56"
           style="fill:#895881;"
           ry="68.838"
           rx="68.861"
           cy="132.945"
           cx="235.417" /></g><g
         id="g64"><circle
           id="circle60"
           style="fill:#C6A9B5;"
           r="73.861"
           cy="125.825"
           cx="88.566" /><circle
           id="circle62"
           style="fill:#C6A9B5;adobe-blending-mode:multiply;enable-background:new    ;"
           r="73.861"
           cy="125.825"
           cx="88.566" /></g><circle
         id="circle66"
         style="fill:#C6A9B5;"
         r="68.738"
         cy="125.825"
         cx="88.566" /><circle
         id="circle68"
         style="fill:#895881;"
         r="21.794"
         cy="125.825"
         cx="88.566" /><circle
         id="circle70"
         style="fill:#C59B6D;adobe-blending-mode:screen;enable-background:new    ;"
         r="13.847"
         cy="127.225"
         cx="87.166" /><circle
         id="circle72"
         style="fill:#4D4D4D;"
         r="13.847"
         cy="125.825"
         cx="88.566" /><circle
         id="circle74"
         style="fill:#C59B6D;adobe-blending-mode:screen;enable-background:new    ;"
         r="13.827"
         cy="115.628"
         cx="45.687" /><circle
         id="circle76"
         style="fill:#C59B6D;adobe-blending-mode:screen;enable-background:new    ;"
         r="13.827"
         cy="115.628"
         cx="128.867" /><circle
         id="circle78"
         style="fill:#C59B6D;adobe-blending-mode:screen;enable-background:new    ;"
         r="13.827"
         cy="164.053"
         cx="111.918" /><circle
         id="circle80"
         style="fill:#C59B6D;adobe-blending-mode:screen;enable-background:new    ;"
         r="13.827"
         cy="164.053"
         cx="62.53" /><circle
         id="circle82"
         style="fill:#C59B6D;adobe-blending-mode:screen;enable-background:new    ;"
         r="13.827"
         cy="86.246"
         cx="87.166" /><circle
         id="circle84"
         style="fill:#4D4D4D;"
         r="13.827"
         cy="112.828"
         cx="47.086" /><circle
         id="circle86"
         style="fill:#4D4D4D;"
         r="13.827"
         cy="112.828"
         cx="130.267" /><circle
         id="circle88"
         style="fill:#4D4D4D;"
         r="13.827"
         cy="161.253"
         cx="113.318" /><circle
         id="circle90"
         style="fill:#4D4D4D;"
         r="13.827"
         cy="161.253"
         cx="63.929" /><circle
         id="circle92"
         style="fill:#4D4D4D;"
         r="13.827"
         cy="83.447"
         cx="88.566" /><g
         id="g98"><path
           id="path94"
           style="fill:#F5BA3D;"
           d="M242.82,75.916l-1.8,17.44c-0.14,1.36-2.16,2.28-4.49,2.04l-62.68-6.49     c6.15-8.43,14.21-15.37,23.54-20.19l41.46,4.29C241.17,73.246,242.96,74.556,242.82,75.916z" /><path
           id="path96"
           style="adobe-blending-mode:multiply;enable-background:new    ;"
           d="M242.82,75.916l-1.8,17.44     c-0.14,1.36-2.16,2.28-4.49,2.04l-62.68-6.49c6.15-8.43,14.21-15.37,23.54-20.19l41.46,4.29     C241.17,73.246,242.96,74.556,242.82,75.916z" /></g><g
         id="g104"><circle
           id="circle100"
           style="fill:#C6A9B5;"
           r="67.452"
           cy="131.495"
           cx="236.843" /><circle
           id="circle102"
           style="fill:#C6A9B5;adobe-blending-mode:multiply;enable-background:new    ;"
           r="67.452"
           cy="131.495"
           cx="236.843" /></g><circle
         id="circle106"
         style="fill:#C6A9B5;"
         r="62.774"
         cy="131.495"
         cx="236.843" /><circle
         id="circle108"
         style="fill:#895881;"
         r="19.904"
         cy="131.495"
         cx="236.843" /><circle
         id="circle110"
         style="fill:#C59B6D;adobe-blending-mode:screen;enable-background:new    ;"
         r="12.646"
         cy="132.774"
         cx="235.564" /><circle
         id="circle112"
         style="fill:#4D4D4D;"
         r="12.646"
         cy="131.495"
         cx="236.843" /><circle
         id="circle114"
         style="fill:#C59B6D;adobe-blending-mode:screen;enable-background:new    ;"
         r="12.627"
         cy="122.183"
         cx="197.684" /><circle
         id="circle116"
         style="fill:#C59B6D;adobe-blending-mode:screen;enable-background:new    ;"
         r="12.627"
         cy="122.183"
         cx="273.648" /><circle
         id="circle118"
         style="fill:#C59B6D;adobe-blending-mode:screen;enable-background:new    ;"
         r="12.627"
         cy="166.406"
         cx="258.169" /><circle
         id="circle120"
         style="fill:#C59B6D;adobe-blending-mode:screen;enable-background:new    ;"
         r="12.627"
         cy="166.406"
         cx="213.065" /><circle
         id="circle122"
         style="fill:#C59B6D;adobe-blending-mode:screen;enable-background:new    ;"
         r="12.627"
         cy="95.35"
         cx="235.564" /><circle
         id="circle124"
         style="fill:#4D4D4D;"
         r="12.627"
         cy="119.626"
         cx="198.962" /><circle
         id="circle126"
         style="fill:#4D4D4D;"
         r="12.627"
         cy="119.626"
         cx="274.926" /><circle
         id="circle128"
         style="fill:#4D4D4D;"
         r="12.627"
         cy="163.85"
         cx="259.447" /><circle
         id="circle130"
         style="fill:#4D4D4D;"
         r="12.627"
         cy="163.85"
         cx="214.344" /><circle
         id="circle132"
         style="fill:#4D4D4D;"
         r="12.627"
         cy="92.794"
         cx="236.843" /><g
         id="g138"><circle
           id="circle134"
           style="fill:#BA334D;"
           r="12.211"
           cy="237.582"
           cx="264.02" /><circle
           id="circle136"
           style="fill:#BA334D;adobe-blending-mode:multiply;enable-background:new    ;"
           r="12.211"
           cy="237.582"
           cx="264.02" /></g><circle
         id="circle140"
         style="fill:#BA334D;"
         r="10.711"
         cy="236.083"
         cx="265.519" /><g
         id="g146"><circle
           id="circle142"
           style="fill:#BA334D;"
           r="12.211"
           cy="237.582"
           cx="226.974" /><circle
           id="circle144"
           style="fill:#BA334D;adobe-blending-mode:multiply;enable-background:new    ;"
           r="12.211"
           cy="237.582"
           cx="226.974" /></g><circle
         id="circle148"
         style="fill:#BA334D;"
         r="10.711"
         cy="236.083"
         cx="228.473" /><g
         id="g154"><circle
           id="circle150"
           style="fill:#BA334D;"
           r="12.211"
           cy="237.582"
           cx="189.172" /><circle
           id="circle152"
           style="fill:#BA334D;adobe-blending-mode:multiply;enable-background:new    ;"
           r="12.211"
           cy="237.582"
           cx="189.172" /></g><circle
         id="circle156"
         style="fill:#BA334D;"
         r="10.711"
         cy="236.083"
         cx="190.672" /><g
         id="g164"
         style="adobe-blending-mode:screen;"><g
           id="g162"
           style="adobe-blending-mode:normal;"><path
             id="path158"
             style="fill:#335C64;"
             d="M153.24,242.59H52.406c-2.643,0-4.786-1.769-4.786-3.951s2.143-3.951,4.786-3.951H153.24      c2.643,0,4.786,1.769,4.786,3.951S155.883,242.59,153.24,242.59z" /><path
             id="path160"
             style="opacity:0.5;fill:#37673F;adobe-blending-mode:multiply;enable-background:new    ;"
             d="M153.24,242.59H52.406      c-2.643,0-4.786-1.769-4.786-3.951s2.143-3.951,4.786-3.951H153.24c2.643,0,4.786,1.769,4.786,3.951      S155.883,242.59,153.24,242.59z" /></g></g><g
         id="g172"
         style="adobe-blending-mode:screen;"><g
           id="g170"
           style="adobe-blending-mode:normal;"><path
             id="path166"
             style="fill:#335C64;"
             d="M153.24,263.038H52.406c-2.643,0-4.786-1.769-4.786-3.951s2.143-3.951,4.786-3.951H153.24      c2.643,0,4.786,1.769,4.786,3.951S155.883,263.038,153.24,263.038z" /><path
             id="path168"
             style="opacity:0.5;fill:#37673F;adobe-blending-mode:multiply;enable-background:new    ;"
             d="M153.24,263.038H52.406      c-2.643,0-4.786-1.769-4.786-3.951s2.143-3.951,4.786-3.951H153.24c2.643,0,4.786,1.769,4.786,3.951      S155.883,263.038,153.24,263.038z" /></g></g><g
         id="g180"
         style="adobe-blending-mode:screen;"><g
           id="g178"
           style="adobe-blending-mode:normal;"><path
             id="path174"
             style="fill:#335C64;"
             d="M153.24,283.486H52.406c-2.643,0-4.786-1.769-4.786-3.951s2.143-3.951,4.786-3.951H153.24      c2.643,0,4.786,1.769,4.786,3.951S155.883,283.486,153.24,283.486z" /><path
             id="path176"
             style="opacity:0.5;fill:#37673F;adobe-blending-mode:multiply;enable-background:new    ;"
             d="M153.24,283.486H52.406      c-2.643,0-4.786-1.769-4.786-3.951s2.143-3.951,4.786-3.951H153.24c2.643,0,4.786,1.769,4.786,3.951      S155.883,283.486,153.24,283.486z" /></g></g><g
         id="g188"
         style="adobe-blending-mode:screen;"><g
           id="g186"
           style="adobe-blending-mode:normal;"><path
             id="path182"
             style="fill:#335C64;"
             d="M153.24,303.934H52.406c-2.643,0-4.786-1.769-4.786-3.951s2.143-3.951,4.786-3.951H153.24      c2.643,0,4.786,1.769,4.786,3.951S155.883,303.934,153.24,303.934z" /><path
             id="path184"
             style="opacity:0.5;fill:#37673F;adobe-blending-mode:multiply;enable-background:new    ;"
             d="M153.24,303.934H52.406      c-2.643,0-4.786-1.769-4.786-3.951s2.143-3.951,4.786-3.951H153.24c2.643,0,4.786,1.769,4.786,3.951      S155.883,303.934,153.24,303.934z" /></g></g><g
         id="g196"
         style="adobe-blending-mode:screen;"><g
           id="g194"
           style="adobe-blending-mode:normal;"><path
             id="path190"
             style="fill:#335C64;"
             d="M153.24,324.382H52.406c-2.643,0-4.786-1.769-4.786-3.951s2.143-3.951,4.786-3.951H153.24      c2.643,0,4.786,1.769,4.786,3.951S155.883,324.382,153.24,324.382z" /><path
             id="path192"
             style="opacity:0.5;fill:#37673F;adobe-blending-mode:multiply;enable-background:new    ;"
             d="M153.24,324.382H52.406      c-2.643,0-4.786-1.769-4.786-3.951s2.143-3.951,4.786-3.951H153.24c2.643,0,4.786,1.769,4.786,3.951      S155.883,324.382,153.24,324.382z" /></g></g><g
         id="g204"><g
           id="g202"><path
             id="path198"
             style="fill:#335C64;"
             d="M155.133,241.222H54.299c-2.643,0-4.786-1.769-4.786-3.951s2.143-3.951,4.786-3.951h100.834      c2.643,0,4.786,1.769,4.786,3.951S157.776,241.222,155.133,241.222z" /><path
             id="path200"
             style="opacity:0.5;fill:#37673F;adobe-blending-mode:multiply;enable-background:new    ;"
             d="M155.133,241.222H54.299      c-2.643,0-4.786-1.769-4.786-3.951s2.143-3.951,4.786-3.951h100.834c2.643,0,4.786,1.769,4.786,3.951      S157.776,241.222,155.133,241.222z" /></g></g><g
         id="g212"><g
           id="g210"><path
             id="path206"
             style="fill:#335C64;"
             d="M155.133,261.67H54.299c-2.643,0-4.786-1.769-4.786-3.951c0-2.182,2.143-3.951,4.786-3.951      h100.834c2.643,0,4.786,1.769,4.786,3.951C159.919,259.901,157.776,261.67,155.133,261.67z" /><path
             id="path208"
             style="opacity:0.5;fill:#37673F;adobe-blending-mode:multiply;enable-background:new    ;"
             d="M155.133,261.67H54.299      c-2.643,0-4.786-1.769-4.786-3.951c0-2.182,2.143-3.951,4.786-3.951h100.834c2.643,0,4.786,1.769,4.786,3.951      C159.919,259.901,157.776,261.67,155.133,261.67z" /></g></g><g
         id="g220"><g
           id="g218"><path
             id="path214"
             style="fill:#335C64;"
             d="M155.133,282.119H54.299c-2.643,0-4.786-1.769-4.786-3.951s2.143-3.951,4.786-3.951h100.834      c2.643,0,4.786,1.769,4.786,3.951S157.776,282.119,155.133,282.119z" /><path
             id="path216"
             style="opacity:0.5;fill:#37673F;adobe-blending-mode:multiply;enable-background:new    ;"
             d="M155.133,282.119H54.299      c-2.643,0-4.786-1.769-4.786-3.951s2.143-3.951,4.786-3.951h100.834c2.643,0,4.786,1.769,4.786,3.951      S157.776,282.119,155.133,282.119z" /></g></g><g
         id="g228"><g
           id="g226"><path
             id="path222"
             style="fill:#335C64;"
             d="M155.133,302.566H54.299c-2.643,0-4.786-1.769-4.786-3.951s2.143-3.951,4.786-3.951h100.834      c2.643,0,4.786,1.769,4.786,3.951S157.776,302.566,155.133,302.566z" /><path
             id="path224"
             style="opacity:0.5;fill:#37673F;adobe-blending-mode:multiply;enable-background:new    ;"
             d="M155.133,302.566H54.299      c-2.643,0-4.786-1.769-4.786-3.951s2.143-3.951,4.786-3.951h100.834c2.643,0,4.786,1.769,4.786,3.951      S157.776,302.566,155.133,302.566z" /></g></g><g
         id="g236"><g
           id="g234"><path
             id="path230"
             style="fill:#335C64;"
             d="M155.133,323.015H54.299c-2.643,0-4.786-1.769-4.786-3.951s2.143-3.951,4.786-3.951h100.834      c2.643,0,4.786,1.769,4.786,3.951S157.776,323.015,155.133,323.015z" /><path
             id="path232"
             style="opacity:0.5;fill:#37673F;adobe-blending-mode:multiply;enable-background:new    ;"
             d="M155.133,323.015H54.299      c-2.643,0-4.786-1.769-4.786-3.951s2.143-3.951,4.786-3.951h100.834c2.643,0,4.786,1.769,4.786,3.951      S157.776,323.015,155.133,323.015z" /></g></g><g
         id="g242"><g
           id="g240"><path
             id="path238"
             style="opacity:0.5;fill:#335C64;adobe-blending-mode:multiply;enable-background:new    ;"
             d="M159.922,237.268      c0,1.392-0.876,2.619-2.195,3.321c0.042-0.193,0.058-0.386,0.058-0.586c0-2.178-2.137-3.949-4.783-3.949H52.173      c-0.96,0-1.853,0.234-2.604,0.641c0.325-1.909,2.32-3.377,4.733-3.377h100.83C157.777,233.32,159.922,235.09,159.922,237.268z" /></g></g><g
         id="g248"><g
           id="g246"><path
             id="path244"
             style="opacity:0.5;fill:#335C64;adobe-blending-mode:multiply;enable-background:new    ;"
             d="M159.922,257.718      c0,1.392-0.876,2.619-2.195,3.322c0.042-0.193,0.058-0.386,0.058-0.586c0-2.185-2.137-3.949-4.783-3.949H52.173      c-0.96,0-1.853,0.234-2.604,0.641c0.325-1.909,2.32-3.377,4.733-3.377h100.83C157.777,253.769,159.922,255.54,159.922,257.718z" /></g></g><g
         id="g254"><g
           id="g252"><path
             id="path250"
             style="opacity:0.5;fill:#335C64;adobe-blending-mode:multiply;enable-background:new    ;"
             d="M159.922,278.168      c0,1.392-0.876,2.619-2.195,3.315c0.042-0.186,0.058-0.379,0.058-0.579c0-2.184-2.137-3.949-4.783-3.949H52.173      c-0.96,0-1.853,0.234-2.604,0.641c0.325-1.916,2.32-3.377,4.733-3.377h100.83C157.777,274.219,159.922,275.983,159.922,278.168z      " /></g></g><g
         id="g260"><g
           id="g258"><path
             id="path256"
             style="opacity:0.5;fill:#335C64;adobe-blending-mode:multiply;enable-background:new    ;"
             d="M159.922,298.618      c0,1.392-0.876,2.612-2.195,3.315c0.042-0.186,0.058-0.379,0.058-0.579c0-2.185-2.137-3.956-4.783-3.956H52.173      c-0.96,0-1.853,0.234-2.604,0.641c0.334-1.909,2.329-3.377,4.733-3.377h100.83C157.777,294.662,159.922,296.433,159.922,298.618      z" /></g></g><g
         id="g266"><g
           id="g264"><path
             id="path262"
             style="opacity:0.5;fill:#335C64;adobe-blending-mode:multiply;enable-background:new    ;"
             d="M159.922,319.061      c0,1.392-0.876,2.619-2.195,3.322c0.042-0.193,0.058-0.386,0.058-0.586c0-2.178-2.137-3.949-4.783-3.949H52.173      c-0.96,0-1.853,0.234-2.604,0.641c0.325-1.909,2.32-3.377,4.733-3.377h100.83C157.777,315.112,159.922,316.883,159.922,319.061z      " /></g></g><path
         id="path268"
         d="M368.655,229.906v72.08c0,5.02-1.78,9.09-3.97,9.09h-28.69c-2.2,0-3.97-4.07-3.97-9.09v-72.08c0-5.02,1.77-9.09,3.97-9.09    h28.69C366.875,220.816,368.655,224.886,368.655,229.906z" /><rect
         id="rect270"
         y="238.206"
         x="308.42"
         width="36.63"
         style="fill:#333333;adobe-blending-mode:screen;enable-background:new    ;"
         height="9.62" /><path
         id="path272"
         style="fill:#333333;"
         d="M371.49,229.906v72.08c0,5.02-1.78,9.09-3.97,9.09h-28.69c-2.2,0-3.97-4.07-3.97-9.09v-72.08    c0-5.02,1.77-9.09,3.97-9.09h28.69C369.71,220.816,371.49,224.886,371.49,229.906z" /><path
         id="path274"
         d="M371.49,275.346v26.64c0,5.02-1.78,9.09-3.97,9.09h-28.69c-2.2,0-3.97-4.07-3.97-9.09v-26.64H371.49z" /><rect
         id="rect276"
         y="233.406"
         x="334.86"
         width="36.63"
         style="fill:#333333;adobe-blending-mode:screen;enable-background:new    ;"
         height="9.61" /></g></g></svg>