<?xml version="1.0" encoding="UTF-8" standalone="no"?>
<!-- Created with Inkscape (http://www.inkscape.org/) -->

<svg
   id="svg4874"
   height="96"
   viewBox="0 0 96 96.000001"
   width="96"
   version="1.1"
   inkscape:version="1.1.1 (3bf5ae0d25, 2021-09-20)"
   sodipodi:docname="camera-photo-symbolic.svg"
   xmlns:inkscape="http://www.inkscape.org/namespaces/inkscape"
   xmlns:sodipodi="http://sodipodi.sourceforge.net/DTD/sodipodi-0.dtd"
   xmlns="http://www.w3.org/2000/svg"
   xmlns:svg="http://www.w3.org/2000/svg"
   xmlns:rdf="http://www.w3.org/1999/02/22-rdf-syntax-ns#"
   xmlns:cc="http://creativecommons.org/ns#"
   xmlns:dc="http://purl.org/dc/elements/1.1/">
  <defs
     id="defs9" />
  <sodipodi:namedview
     pagecolor="#ffffff"
     bordercolor="#666666"
     borderopacity="1"
     objecttolerance="10"
     gridtolerance="10"
     guidetolerance="10"
     inkscape:pageopacity="0"
     inkscape:pageshadow="2"
     inkscape:window-width="2560"
     inkscape:window-height="1515"
     id="namedview7"
     showgrid="false"
     inkscape:zoom="2.4583333"
     inkscape:cx="47.796611"
     inkscape:cy="47.796611"
     inkscape:window-x="0"
     inkscape:window-y="0"
     inkscape:window-maximized="1"
     inkscape:current-layer="svg4874"
     inkscape:pagecheckerboard="0" />
  <metadata
     id="metadata4879">
    <rdf:RDF>
      <cc:Work
         rdf:about="">
        <dc:format>image/svg+xml</dc:format>
        <dc:type
           rdf:resource="http://purl.org/dc/dcmitype/StillImage" />
      </cc:Work>
    </rdf:RDF>
  </metadata>
  <rect
     x="-2.7465821e-06"
     y="-96"
     width="96"
     height="96"
     transform="matrix(0,1,-1,0,0,0)"
     style="color:#000000;fill:none"
     id="rect4782" />
  <path
     inkscape:connector-curvature="0"
     d="m 16,12 0,3.045 c -3.088,0.066 -5.595,0.308 -7.748,1.496 -1.5055,0.831 -2.6969,2.236 -3.3555,3.99 C 4.2378,22.286 4,24.37 4,27 l 0,45 c 0,2.63 0.2378,4.712 0.8965,6.467 0.6586,1.754 1.85,3.159 3.3555,3.99 3.011,1.661 6.692,1.485 11.725,1.543 l 0.011,0 56.024,0 0.011,0 c 5.033,-0.058 8.714,0.118 11.725,-1.543 1.506,-0.831 2.697,-2.236 3.356,-3.99 C 91.762,76.712 92,74.63 92,72 l 0,-45 c 0,-2.63 -0.238,-4.714 -0.896,-6.469 -0.659,-1.754 -1.85,-3.159 -3.356,-3.99 C 84.737,14.88 81.056,15.058 76.023,15 L 76.012,15 32,15 32,12 16,12 Z m 4,7 56,0 c 5.038,0.059 8.352,0.237 9.816,1.045 0.734,0.405 1.153,0.853 1.543,1.893 C 87.75,22.977 88,24.63 88,27 l 0,45 c 0,2.37 -0.25,4.023 -0.641,5.062 -0.39,1.04 -0.809,1.488 -1.543,1.893 C 84.352,79.763 81.038,79.941 76,80 L 20.023,80 20,80 C 14.962,79.941 11.648,79.763 10.184,78.955 9.45,78.55 9.0328,78.102 8.6426,77.062 8.2523,76.023 8,74.37 8,72 L 8,27 C 8,24.63 8.2523,22.977 8.6426,21.938 9.0328,20.898 9.45,20.45 10.184,20.045 11.648,19.237 14.962,19.059 20,19 Z m 28,5 C 34.217,24 23,35.217 23,49 23,62.783 34.217,74 48,74 61.783,74 73,62.783 73,49 73,35.217 61.783,24 48,24 Z m 28,0 a 4,4 0 0 0 -4,4 4,4 0 0 0 4,4 4,4 0 0 0 4,-4 4,4 0 0 0 -4,-4 z M 48,28 C 59.622,28 69,37.378 69,49 69,60.622 59.622,70 48,70 36.378,70 27,60.622 27,49 27,37.378 36.378,28 48,28 Z m 0,4 A 17,17 0 0 0 31,49 17,17 0 0 0 48,66 17,17 0 0 0 65,49 17,17 0 0 0 48,32 Z m 0,3 a 8,8 0 0 1 8,8 8,8 0 0 1 -8,8 8,8 0 0 1 -8,-8 8,8 0 0 1 8,-8 z"
     style="color:#000000;text-indent:0;text-decoration:none;text-decoration-line:none;text-decoration-style:solid;text-decoration-color:#000000;text-transform:none;block-progression:tb;white-space:normal;isolation:auto;mix-blend-mode:normal;solid-color:#000000;fill:#000000;color-rendering:auto;image-rendering:auto;shape-rendering:auto"
     id="path4183" />
  <path
     style="fill:#000000;stroke:none;stroke-width:1px;stroke-linecap:butt;stroke-linejoin:miter;stroke-opacity:1"
     d="M 10.79823,83.157144 C 7.8897978,82.374732 6.5246232,81.330073 5.3840654,79.01411 l -0.9501671,-1.929364 0,-27.661017 c 0,-27.539892 0.00384,-27.668142 0.8756673,-29.288136 0.481617,-0.894915 1.3105576,-2.032796 1.8420903,-2.528623 1.2275202,-1.145063 4.0524541,-2.149343 6.0458791,-2.149343 2.350372,0 2.829584,-0.317381 2.829584,-1.874029 l 0,-1.380208 7.932203,0 7.932203,0 0,1.399365 0,1.399366 26.135594,0.151291 c 19.510739,0.112942 26.529555,0.280645 27.689808,0.661603 0.854819,0.280671 2.274924,1.16143 3.155793,1.957241 2.890861,2.611719 2.852729,2.153985 2.724964,32.709501 l -0.112938,27.009768 -0.923288,1.728358 c -1.15176,2.156042 -3.326112,3.625806 -6.158685,4.162992 -1.379008,0.261522 -14.919059,0.403887 -36.804057,0.386965 -28.797226,-0.02225 -34.9889,-0.125353 -36.800486,-0.612696 z m 74.584821,-3.835578 c 0.671186,-0.335849 1.543147,-1.251104 1.937687,-2.033898 0.667041,-1.32345 0.70983,-3.307282 0.610169,-28.28894 -0.120948,-30.317156 0.07401,-28.548684 -3.258634,-29.559027 -2.520021,-0.763984 -70.902929,-0.764939 -73.422099,-0.001 -3.2947862,0.999112 -3.1399984,-0.387947 -3.2684554,29.288701 -0.076213,17.606931 0.028686,26.678012 0.3210566,27.7638 0.5037799,1.870898 1.7868528,2.867028 4.2177898,3.27454 0.921825,0.154531 17.418418,0.255209 36.659096,0.223724 30.215642,-0.04943 35.149355,-0.140452 36.20339,-0.667875 l 0,-8e-6 z"
     id="path3339"
     inkscape:connector-curvature="0" />
  <path
     style="fill:#a0a0a0;stroke:none;stroke-width:1px;stroke-linecap:butt;stroke-linejoin:miter;stroke-opacity:1"
     d=""
     id="path3341"
     inkscape:connector-curvature="0" />
</svg>
