<?xml version="1.0" encoding="UTF-8" standalone="no"?>
<!-- Created with Inkscape (http://www.inkscape.org/) -->

<svg
   id="svg4874"
   height="12"
   viewBox="0 0 12 12"
   width="12"
   version="1.1"
   inkscape:version="1.1.1 (3bf5ae0d25, 2021-09-20)"
   sodipodi:docname="chevron-down.svg"
   xmlns:inkscape="http://www.inkscape.org/namespaces/inkscape"
   xmlns:sodipodi="http://sodipodi.sourceforge.net/DTD/sodipodi-0.dtd"
   xmlns="http://www.w3.org/2000/svg"
   xmlns:svg="http://www.w3.org/2000/svg"
   xmlns:rdf="http://www.w3.org/1999/02/22-rdf-syntax-ns#"
   xmlns:cc="http://creativecommons.org/ns#"
   xmlns:dc="http://purl.org/dc/elements/1.1/">
  <defs
     id="defs9" />
  <sodipodi:namedview
     pagecolor="#ffffff"
     bordercolor="#666666"
     borderopacity="1"
     objecttolerance="10"
     gridtolerance="10"
     guidetolerance="10"
     inkscape:pageopacity="0"
     inkscape:pageshadow="2"
     inkscape:window-width="2560"
     inkscape:window-height="1515"
     id="namedview7"
     showgrid="false"
     inkscape:zoom="9.8333333"
     inkscape:cx="18.661017"
     inkscape:cy="11.949153"
     inkscape:window-x="0"
     inkscape:window-y="0"
     inkscape:window-maximized="1"
     inkscape:current-layer="svg4874"
     inkscape:pagecheckerboard="0" />
  <metadata
     id="metadata4879">
    <rdf:RDF>
      <cc:Work
         rdf:about="">
        <dc:format>image/svg+xml</dc:format>
        <dc:type
           rdf:resource="http://purl.org/dc/dcmitype/StillImage" />
      </cc:Work>
    </rdf:RDF>
  </metadata>
  <rect
     x="-84.005005"
     y="-2.2583008e-06"
     width="96"
     height="96"
     transform="matrix(0,1,1,0,0,0)"
     style="color:#000000;fill:none"
     id="rect4782-01" />
  <path
     inkscape:connector-curvature="0"
     d="m 0,3.7996302 1.7489954,0 0.089747,0.1245675 C 2.1057082,4.2952616 2.3787825,4.6594629 2.6627814,5.0138649 3.0227012,5.4631628 3.3904475,5.8856754 3.7665294,6.2800788 4.1312058,6.6623814 4.6408967,7.1257339 4.9999796,7.4362874 5.3592431,7.1256264 5.8695628,6.6622507 6.2341036,6.2800788 6.610197,5.8856828 6.9779353,5.4631168 7.3378499,5.0138649 7.6216616,4.6597629 7.8940565,4.2955616 8.1612646,3.9241976 l 0.08974,-0.1245675 1.7489954,0 -0.7690445,1.1673626 C 8.7808787,5.6151626 8.3241726,6.2424384 7.8560065,6.8221581 7.3331335,7.469735 6.8252586,8.0510627 6.3317184,8.5660866 5.8755959,9.0420016 5.4531784,9.4290506 5.1362637,9.6883706 L 5.0000137,9.7996301 4.8637636,9.6883706 C 4.5402559,9.4220045 4.1251402,9.042063 3.6689336,8.5660866 3.1753935,8.0510627 2.6674765,7.4697271 2.1446455,6.8221581 1.6766054,6.2425922 1.2192725,5.6153314 0.76906485,4.9669929 Z"
     style="color:#000000;text-indent:0;text-decoration:none;text-decoration-line:none;text-decoration-style:solid;text-decoration-color:#000000;text-transform:none;white-space:normal;isolation:auto;mix-blend-mode:normal;solid-color:#000000;fill:#000000;color-rendering:auto;image-rendering:auto;shape-rendering:auto"
     id="path4224" />
</svg>
