<?xml version="1.0" encoding="UTF-8" standalone="no"?>
<!-- Created with Inkscape (http://www.inkscape.org/) -->

<svg
   id="svg4874"
   height="12"
   viewBox="0 0 14 12"
   width="14"
   version="1.1"
   inkscape:version="1.1.2 (1:1.1+202202050950+0a00cf5339)"
   sodipodi:docname="down.svg"
   xmlns:inkscape="http://www.inkscape.org/namespaces/inkscape"
   xmlns:sodipodi="http://sodipodi.sourceforge.net/DTD/sodipodi-0.dtd"
   xmlns="http://www.w3.org/2000/svg"
   xmlns:svg="http://www.w3.org/2000/svg"
   xmlns:rdf="http://www.w3.org/1999/02/22-rdf-syntax-ns#"
   xmlns:cc="http://creativecommons.org/ns#"
   xmlns:dc="http://purl.org/dc/elements/1.1/">
  <defs
     id="defs9" />
  <sodipodi:namedview
     pagecolor="#ffffff"
     bordercolor="#666666"
     borderopacity="1"
     objecttolerance="10"
     gridtolerance="10"
     guidetolerance="10"
     inkscape:pageopacity="0"
     inkscape:pageshadow="2"
     inkscape:window-width="1248"
     inkscape:window-height="1527"
     id="namedview7"
     showgrid="false"
     inkscape:zoom="9.8333333"
     inkscape:cx="-13.118644"
     inkscape:cy="11.949153"
     inkscape:window-x="65"
     inkscape:window-y="0"
     inkscape:window-maximized="0"
     inkscape:current-layer="svg4874"
     inkscape:pagecheckerboard="0" />
  <metadata
     id="metadata4879">
    <rdf:RDF>
      <cc:Work
         rdf:about="">
        <dc:format>image/svg+xml</dc:format>
        <dc:type
           rdf:resource="http://purl.org/dc/dcmitype/StillImage" />
        <dc:title />
      </cc:Work>
    </rdf:RDF>
  </metadata>
  <rect
     x="-84.005005"
     y="-2.2583008e-06"
     width="96"
     height="96"
     transform="matrix(0,1,1,0,0,0)"
     style="color:#000000;fill:none"
     id="rect4782-01" />
  <path
     inkscape:connector-curvature="0"
     d="m 2,3.7996302 h 1.7489954 l 0.089747,0.1245675 C 4.1057082,4.2952616 4.3787825,4.6594629 4.6627814,5.0138649 5.0227012,5.4631628 5.3904475,5.8856754 5.7665294,6.2800788 6.1312058,6.6623814 6.6408967,7.1257339 6.9999796,7.4362874 7.3592431,7.1256264 7.8695628,6.6622507 8.234104,6.2800788 8.610197,5.8856828 8.977935,5.4631168 9.33785,5.0138649 9.621662,4.6597629 9.894057,4.2955616 10.161265,3.9241976 l 0.08974,-0.1245675 H 12 L 11.230956,4.9669927 C 10.780879,5.6151626 10.324173,6.2424384 9.856006,6.8221581 9.333134,7.469735 8.825259,8.051063 8.331718,8.566087 7.8755959,9.042002 7.4531784,9.429051 7.1362637,9.688371 L 7.0000137,9.79963 6.8637636,9.688371 C 6.5402559,9.422005 6.1251402,9.042063 5.6689336,8.566087 5.1753935,8.051063 4.6674765,7.4697271 4.1446455,6.8221581 3.6766054,6.2425922 3.2192725,5.6153314 2.7690649,4.9669929 Z"
     style="color:#000000;text-indent:0;text-decoration:none;text-decoration-line:none;text-decoration-style:solid;text-decoration-color:#000000;text-transform:none;white-space:normal;isolation:auto;mix-blend-mode:normal;solid-color:#000000;fill:#000000;color-rendering:auto;image-rendering:auto;shape-rendering:auto"
     id="path4224" />
</svg>
