<?xml version="1.0" encoding="UTF-8" standalone="no"?>
<svg
   enable-background="new 0 0 512 512"
   height="512px"
   id="Layer_1"
   version="1.1"
   viewBox="0 0 512 512"
   width="512px"
   xml:space="preserve"
   inkscape:version="1.1.1 (3bf5ae0d25, 2021-09-20)"
   sodipodi:docname="folder-symbolic-filled.svg"
   xmlns:inkscape="http://www.inkscape.org/namespaces/inkscape"
   xmlns:sodipodi="http://sodipodi.sourceforge.net/DTD/sodipodi-0.dtd"
   xmlns="http://www.w3.org/2000/svg"
   xmlns:svg="http://www.w3.org/2000/svg"
   xmlns:rdf="http://www.w3.org/1999/02/22-rdf-syntax-ns#"
   xmlns:cc="http://creativecommons.org/ns#"
   xmlns:dc="http://purl.org/dc/elements/1.1/"><metadata
     id="metadata3361"><rdf:RDF><cc:Work
         rdf:about=""><dc:format>image/svg+xml</dc:format><dc:type
           rdf:resource="http://purl.org/dc/dcmitype/StillImage" /></cc:Work></rdf:RDF></metadata><defs
     id="defs3359" /><sodipodi:namedview
     pagecolor="#ffffff"
     bordercolor="#666666"
     borderopacity="1"
     objecttolerance="10"
     gridtolerance="10"
     guidetolerance="10"
     inkscape:pageopacity="0"
     inkscape:pageshadow="2"
     inkscape:window-width="2560"
     inkscape:window-height="1515"
     id="namedview3357"
     showgrid="false"
     inkscape:zoom="1.796875"
     inkscape:cx="255.72174"
     inkscape:cy="255.72174"
     inkscape:window-x="0"
     inkscape:window-y="0"
     inkscape:window-maximized="1"
     inkscape:current-layer="Layer_1"
     inkscape:pagecheckerboard="0" /><path
     d="M463.518,94.909H193.885v-10.37c0-22.908-18.574-41.482-41.482-41.482H48.699  c-22.908,0-41.482,18.574-41.482,41.482v51.852v72.593v217.78c0,22.907,18.574,41.482,41.482,41.482h414.819  c22.908,0,41.482-18.575,41.482-41.482V136.391C505,113.483,486.426,94.909,463.518,94.909z M27.958,84.539  c0-11.435,9.308-20.741,20.741-20.741h103.705c11.433,0,20.741,9.306,20.741,20.741v10.37v20.741h20.741h269.633  c11.433,0,20.741,9.306,20.741,20.741v20.741H27.958v-20.741V84.539z M463.518,447.506H48.699c-11.433,0-20.741-9.307-20.741-20.741  v-217.78v-31.111h456.301v248.892C484.259,438.198,474.952,447.506,463.518,447.506z"
     fill="#37404D"
     id="path3355"
     style="fill:#000000" /><path
     style="fill:#4c4a48;stroke-width:0.556522;fill-opacity:1"
     d="m 43.011361,446.35933 c -5.690907,-1.78217 -10.291967,-5.84286 -12.883965,-11.3708 L 28.66087,431.86087 28.518164,305.11304 28.375459,178.36522 H 256.28179 484.18813 l -0.14624,126.1913 -0.14624,126.19131 -1.29936,3.21924 c -1.82103,4.51171 -6.34685,9.25499 -10.78716,11.30545 l -3.49609,1.61444 -211.47826,0.10339 c -173.800879,0.085 -211.896076,-0.0274 -213.823419,-0.63102 z"
     id="path211" /></svg>
