<?xml version="1.0" encoding="UTF-8" standalone="no"?>
<svg
   xmlns:dc="http://purl.org/dc/elements/1.1/"
   xmlns:cc="http://creativecommons.org/ns#"
   xmlns:rdf="http://www.w3.org/1999/02/22-rdf-syntax-ns#"
   xmlns:svg="http://www.w3.org/2000/svg"
   xmlns="http://www.w3.org/2000/svg"
   xmlns:sodipodi="http://sodipodi.sourceforge.net/DTD/sodipodi-0.dtd"
   xmlns:inkscape="http://www.inkscape.org/namespaces/inkscape"
   id="Layer_1"
   version="1.1"
   viewBox="0 0 165 165"
   xml:space="preserve"
   sodipodi:docname="know.svg"
   width="165"
   height="165"
   inkscape:version="0.92.4 (5da689c313, 2019-01-14)"><metadata
     id="metadata4575"><rdf:RDF><cc:Work
         rdf:about=""><dc:format>image/svg+xml</dc:format><dc:type
           rdf:resource="http://purl.org/dc/dcmitype/StillImage" /><dc:title></dc:title></cc:Work></rdf:RDF></metadata><defs
     id="defs4573" /><sodipodi:namedview
     pagecolor="#ffffff"
     bordercolor="#666666"
     borderopacity="1"
     objecttolerance="10"
     gridtolerance="10"
     guidetolerance="10"
     inkscape:pageopacity="0"
     inkscape:pageshadow="2"
     inkscape:window-width="2490"
     inkscape:window-height="1441"
     id="namedview4571"
     showgrid="false"
     inkscape:zoom="5.744"
     inkscape:cx="33.484056"
     inkscape:cy="80.925575"
     inkscape:window-x="70"
     inkscape:window-y="27"
     inkscape:window-maximized="1"
     inkscape:current-layer="Layer_1" /><style
     type="text/css"
     id="style4550">
	.st0{fill:#FCC12D;}
	.st1{fill:#46E6F2;}
	.st2{fill:none;stroke:#231F20;stroke-width:3;stroke-linecap:round;stroke-linejoin:round;stroke-miterlimit:10;}
	.st3{fill:#FFFFFF;}
	.st4{fill:none;stroke:#FFFFFF;stroke-width:3;stroke-linecap:round;stroke-linejoin:round;stroke-miterlimit:10;}
</style><g
     id="g43"
     transform="translate(19.678893,0.33930803)"><path
       style="fill:#fcc12d"
       inkscape:connector-curvature="0"
       id="XMLID_19_"
       d="m 106.9211,71.721379 c 0,-24.2 -20.899997,-43.5 -45.699997,-40.7 -18.5,2.1 -33.6,16.9 -36,35.4 -1.5,11.5 1.9,22.2 8.3,30.4 7.3,9.399981 11,21.199981 11,33.199981 v 1.7 h 42.8 v -1.7 c 0,-12.4 4.4,-24.2 11.7,-34.099981 4.999997,-6.8 7.899997,-15.1 7.899997,-24.2 z"
       class="st0" /><path
       style="fill:#46e6f2"
       inkscape:connector-curvature="0"
       id="XMLID_18_"
       d="m 86.021103,142.72137 h -40.4 c -3,0 -5.5,-2.4 -5.5,-5.5 v 0 c 0,-3 2.4,-5.5 5.5,-5.5 h 40.4 c 3,0 5.5,2.4 5.5,5.5 v 0 c 0,3 -2.5,5.5 -5.5,5.5 z"
       class="st1" /><path
       style="fill:#46e6f2"
       inkscape:connector-curvature="0"
       id="XMLID_17_"
       d="m 83.021103,153.52137 h -34.5 c -2.8,0 -5,-2.3 -5,-5 v -0.6 c 0,-2.8 2.3,-5 5,-5 h 34.5 c 2.8,0 5,2.3 5,5 v 0.6 c 0.1,2.7 -2.2,5 -5,5 z"
       class="st1" /><path
       style="fill:#46e6f2"
       inkscape:connector-curvature="0"
       id="XMLID_16_"
       d="m 51.621103,156.12137 v 0.1 c 0,4.5 3.6,8.1 8.1,8.1 h 12.2 c 4.5,0 8.1,-3.6 8.1,-8.1 v -0.1 c 0,-1.4 -1.2,-2.6 -2.6,-2.6 h -23.2 c -1.4,0 -2.6,1.2 -2.6,2.6 z"
       class="st1" /><path
       style="fill:none;stroke:#231f20;stroke-width:3;stroke-linecap:round;stroke-linejoin:round;stroke-miterlimit:10"
       inkscape:connector-curvature="0"
       id="XMLID_15_"
       d="m 103.8211,68.621379 c 0,-24.2 -20.899997,-43.5 -45.699997,-40.7 -18.5,2.1 -33.6,16.9 -36,35.4 -1.5,11.5 1.9,22.2 8.3,30.4 7.3,9.399981 11,21.199981 11,33.199981 v 1.7 h 42.8 v -1.7 c 0,-12.4 4.4,-24.2 11.7,-34.099981 4.999997,-6.8 7.899997,-15.2 7.899997,-24.2 z"
       class="st2" /><path
       style="fill:none;stroke:#231f20;stroke-width:3;stroke-linecap:round;stroke-linejoin:round;stroke-miterlimit:10"
       inkscape:connector-curvature="0"
       id="XMLID_14_"
       d="m 79.921103,150.32137 h -34.5 c -2.8,0 -5,-2.3 -5,-5 v -0.6 c 0,-2.8 2.3,-5 5,-5 h 34.5 c 2.8,0 5,2.3 5,5 v 0.6 c 0,2.8 -2.2,5 -5,5 z"
       class="st2" /><path
       style="fill:none;stroke:#231f20;stroke-width:3;stroke-linecap:round;stroke-linejoin:round;stroke-miterlimit:10"
       inkscape:connector-curvature="0"
       id="XMLID_13_"
       d="m 48.421103,152.92137 v 0.1 c 0,4.5 3.6,8.1 8.1,8.1 h 12.2 c 4.5,0 8.1,-3.6 8.1,-8.1 v -0.1 c 0,-1.4 -1.2,-2.6 -2.6,-2.6 h -23.2 c -1.4,0 -2.6,1.2 -2.6,2.6 z"
       class="st2" /><ellipse
       style="fill:#ffffff;stroke-width:0.99996316"
       transform="rotate(39.436556)"
       ry="11.799565"
       rx="6.8997459"
       id="XMLID_12_"
       cy="14.028046"
       cx="65.783005"
       class="st3" /><polyline
       transform="translate(-60.178897,-39.278621)"
       style="fill:none;stroke:#ffffff;stroke-width:3;stroke-linecap:round;stroke-linejoin:round;stroke-miterlimit:10"
       points="132.1,130 123,167.1 114,130 "
       id="XMLID_11_"
       class="st4" /><path
       style="fill:none;stroke:#ffffff;stroke-width:3;stroke-linecap:round;stroke-linejoin:round;stroke-miterlimit:10"
       inkscape:connector-curvature="0"
       id="XMLID_10_"
       d="m 46.521103,86.221379 c 4.1,0 4.1,3.4 8.1,3.4 4.1,0 4.1,-3.4 8.1,-3.4 4.1,0 4.1,3.4 8.1,3.4 4.1,0 4.1,-3.4 8.1,-3.4"
       class="st4" /><line
       style="fill:none;stroke:#231f20;stroke-width:3;stroke-linecap:round;stroke-linejoin:round;stroke-miterlimit:10"
       y2="1.5213777"
       y1="17.221376"
       x2="62.821102"
       x1="62.821102"
       id="XMLID_9_"
       class="st2" /><line
       style="fill:none;stroke:#231f20;stroke-width:3;stroke-linecap:round;stroke-linejoin:round;stroke-miterlimit:10"
       y2="6.9213796"
       y1="20.921377"
       x2="97.821106"
       x1="90.7211"
       id="XMLID_8_"
       class="st2" /><line
       style="fill:none;stroke:#231f20;stroke-width:3;stroke-linecap:round;stroke-linejoin:round;stroke-miterlimit:10"
       y2="30.421373"
       y1="36.621376"
       x2="119.12111"
       x1="109.7211"
       id="XMLID_7_"
       class="st2" /><line
       style="fill:none;stroke:#231f20;stroke-width:3;stroke-linecap:round;stroke-linejoin:round;stroke-miterlimit:10"
       y2="57.321373"
       y1="58.521378"
       x2="124.12111"
       x1="116.5211"
       id="XMLID_6_"
       class="st2" /><line
       style="fill:none;stroke:#231f20;stroke-width:3;stroke-linecap:round;stroke-linejoin:round;stroke-miterlimit:10"
       y2="6.9213796"
       y1="20.921377"
       x2="27.821104"
       x1="34.921101"
       id="XMLID_5_"
       class="st2" /><line
       style="fill:none;stroke:#231f20;stroke-width:3;stroke-linecap:round;stroke-linejoin:round;stroke-miterlimit:10"
       y2="30.421373"
       y1="36.621376"
       x2="6.5211005"
       x1="15.921102"
       id="XMLID_4_"
       class="st2" /><line
       style="fill:none;stroke:#231f20;stroke-width:3;stroke-linecap:round;stroke-linejoin:round;stroke-miterlimit:10"
       y2="57.321373"
       y1="58.521378"
       x2="1.5211041"
       x1="9.1211061"
       id="XMLID_3_"
       class="st2" /><path
       style="fill:none;stroke:#231f20;stroke-width:3;stroke-linecap:round;stroke-linejoin:round;stroke-miterlimit:10"
       inkscape:connector-curvature="0"
       id="XMLID_2_"
       d="m 82.821103,139.52137 h -40.4 c -3,0 -5.5,-2.4 -5.5,-5.5 v 0 c 0,-3 2.4,-5.5 5.5,-5.5 h 40.4 c 3,0 5.5,2.4 5.5,5.5 v 0 c 0,3.1 -2.5,5.5 -5.5,5.5 z"
       class="st2" /></g></svg>
