<?xml version="1.0" encoding="UTF-8" standalone="no"?>
<svg
   xmlns:dc="http://purl.org/dc/elements/1.1/"
   xmlns:cc="http://creativecommons.org/ns#"
   xmlns:rdf="http://www.w3.org/1999/02/22-rdf-syntax-ns#"
   xmlns:svg="http://www.w3.org/2000/svg"
   xmlns="http://www.w3.org/2000/svg"
   xmlns:sodipodi="http://sodipodi.sourceforge.net/DTD/sodipodi-0.dtd"
   xmlns:inkscape="http://www.inkscape.org/namespaces/inkscape"
   width="1755"
   height="1755"
   version="1.1"
   id="svg12"
   sodipodi:docname="link.svg"
   inkscape:version="0.92.4 (5da689c313, 2019-01-14)"
   inkscape:export-filename="/home/damon/rapid/images/link28.png"
   inkscape:export-xdpi="1.53"
   inkscape:export-ydpi="1.53">
  <metadata
     id="metadata18">
    <rdf:RDF>
      <cc:Work
         rdf:about="">
        <dc:format>image/svg+xml</dc:format>
        <dc:type
           rdf:resource="http://purl.org/dc/dcmitype/StillImage" />
        <dc:title></dc:title>
      </cc:Work>
    </rdf:RDF>
  </metadata>
  <defs
     id="defs16" />
  <sodipodi:namedview
     pagecolor="#ffffff"
     bordercolor="#666666"
     borderopacity="1"
     objecttolerance="10"
     gridtolerance="10"
     guidetolerance="10"
     inkscape:pageopacity="0"
     inkscape:pageshadow="2"
     inkscape:window-width="2490"
     inkscape:window-height="1441"
     id="namedview14"
     showgrid="false"
     inkscape:zoom="0.13169643"
     inkscape:cx="-640.96609"
     inkscape:cy="676.99993"
     inkscape:window-x="70"
     inkscape:window-y="27"
     inkscape:window-maximized="1"
     inkscape:current-layer="svg12"
     fit-margin-top="0"
     fit-margin-left="0"
     fit-margin-right="0"
     fit-margin-bottom="0"
     units="cm" />
  <g
     id="g5"
     transform="rotate(-90,922.5,245)">
    <title
       id="title2">background</title>
    <rect
       id="canvas_background"
       height="402"
       width="582"
       y="-1"
       x="-1"
       style="fill:none" />
  </g>
  <g
     id="g10"
     transform="rotate(-90,909.5,864)">
    <title
       id="title7">Layer 1</title>
    <path
       id="svg_1"
       d="m 503,1271 -256,256 q -10,9 -23,9 -12,0 -23,-9 -9,-10 -9,-23 0,-13 9,-23 l 256,-256 q 10,-9 23,-9 13,0 23,9 9,10 9,23 0,13 -9,23 z m 169,41 v 320 q 0,14 -9,23 -9,9 -23,9 -14,0 -23,-9 -9,-9 -9,-23 v -320 q 0,-14 9,-23 9,-9 23,-9 14,0 23,9 9,9 9,23 z M 448,1088 q 0,14 -9,23 -9,9 -23,9 H 96 q -14,0 -23,-9 -9,-9 -9,-23 0,-14 9,-23 9,-9 23,-9 h 320 q 14,0 23,9 9,9 9,23 z m 1264,128 q 0,120 -85,203 l -147,146 q -83,83 -203,83 -121,0 -204,-85 L 739,1228 q -21,-21 -42,-56 l 239,-18 273,274 q 27,27 68,27.5 41,0.5 68,-26.5 l 147,-146 q 28,-28 28,-67 0,-40 -28,-68 l -274,-275 18,-239 q 35,21 56,42 l 336,336 q 84,86 84,204 z M 1095,492 856,510 583,236 q -28,-28 -68,-28 -39,0 -68,27 L 300,381 q -28,28 -28,67 0,40 28,68 l 274,274 -18,240 q -35,-21 -56,-42 L 164,652 Q 80,566 80,448 80,328 165,245 L 312,99 q 83,-83 203,-83 121,0 204,85 l 334,335 q 21,21 42,56 z m 633,84 q 0,14 -9,23 -9,9 -23,9 h -320 q -14,0 -23,-9 -9,-9 -9,-23 0,-14 9,-23 9,-9 23,-9 h 320 q 14,0 23,9 9,9 9,23 z M 1184,32 v 320 q 0,14 -9,23 -9,9 -23,9 -14,0 -23,-9 -9,-9 -9,-23 V 32 q 0,-14 9,-23 9,-9 23,-9 14,0 23,9 9,9 9,23 z m 407,151 -256,256 q -11,9 -23,9 -12,0 -23,-9 -9,-10 -9,-23 0,-13 9,-23 l 256,-256 q 10,-9 23,-9 13,0 23,9 9,10 9,23 0,13 -9,23 z"
       inkscape:connector-curvature="0" />
  </g>
</svg>
