<?xml version="1.0" encoding="UTF-8" standalone="no"?>
<!-- Generator: Adobe Illustrator 18.1.0, SVG Export Plug-In . SVG Version: 6.00 Build 0)  -->

<svg
   version="1.1"
   id="Menu"
   x="0px"
   y="0px"
   viewBox="0 0 60 60"
   enable-background="new 0 0 20 20"
   xml:space="preserve"
   inkscape:version="1.1.2 (1:1.1+202202050950+0a00cf5339)"
   sodipodi:docname="menu.svg"
   inkscape:export-filename="/home/damon/rapid/images/menu20.png"
   inkscape:export-xdpi="120"
   inkscape:export-ydpi="120"
   width="60"
   height="60"
   xmlns:inkscape="http://www.inkscape.org/namespaces/inkscape"
   xmlns:sodipodi="http://sodipodi.sourceforge.net/DTD/sodipodi-0.dtd"
   xmlns="http://www.w3.org/2000/svg"
   xmlns:svg="http://www.w3.org/2000/svg"
   xmlns:rdf="http://www.w3.org/1999/02/22-rdf-syntax-ns#"
   xmlns:cc="http://creativecommons.org/ns#"
   xmlns:dc="http://purl.org/dc/elements/1.1/"><metadata
     id="metadata3390"><rdf:RDF><cc:Work
         rdf:about=""><dc:format>image/svg+xml</dc:format><dc:type
           rdf:resource="http://purl.org/dc/dcmitype/StillImage" /></cc:Work></rdf:RDF></metadata><defs
     id="defs3388" /><sodipodi:namedview
     pagecolor="#ffffff"
     bordercolor="#666666"
     borderopacity="1"
     objecttolerance="10"
     gridtolerance="10"
     guidetolerance="10"
     inkscape:pageopacity="0"
     inkscape:pageshadow="2"
     inkscape:window-width="2560"
     inkscape:window-height="1527"
     id="namedview3386"
     showgrid="false"
     inkscape:zoom="12.217716"
     inkscape:cx="0.90033194"
     inkscape:cy="26.887186"
     inkscape:window-x="0"
     inkscape:window-y="0"
     inkscape:window-maximized="1"
     inkscape:current-layer="Menu"
     fit-margin-top="0"
     fit-margin-left="0"
     fit-margin-right="0"
     fit-margin-bottom="0"
     inkscape:pagecheckerboard="0" /><path
     d="M 52.975461,26.410084 H 7.024538 c -1.9816335,0 -2.1539495,1.604692 -2.1539495,3.589915 0,1.985224 0.172316,3.589916 2.1539495,3.589916 h 45.950923 c 1.981634,0 2.153951,-1.604692 2.153951,-3.589916 0,-1.985223 -0.172317,-3.589915 -2.153951,-3.589915 z m 0,14.359663 H 7.024538 c -1.9816335,0 -2.1539495,1.604693 -2.1539495,3.589916 0,1.985224 0.172316,3.589916 2.1539495,3.589916 h 45.950923 c 1.981634,0 2.153951,-1.604692 2.153951,-3.589916 0,-1.985222 -0.172317,-3.589916 -2.153951,-3.589916 z M 7.024538,19.230252 h 45.950923 c 1.981634,0 2.153951,-1.604692 2.153951,-3.589916 0,-1.985223 -0.172317,-3.589916 -2.153951,-3.589916 H 7.024538 c -1.9816335,0 -2.1539495,1.604693 -2.1539495,3.589916 0,1.985224 0.172316,3.589916 2.1539495,3.589916 z"
     id="path3384"
     style="fill:#000000;stroke-width:3.58992"
     inkscape:connector-curvature="0" /></svg>
