<?xml version="1.0" encoding="UTF-8" standalone="no"?>
<!-- Generator: Adobe Illustrator 18.1.0, SVG Export Plug-In . SVG Version: 6.00 Build 0)  -->

<svg
   xmlns:dc="http://purl.org/dc/elements/1.1/"
   xmlns:cc="http://creativecommons.org/ns#"
   xmlns:rdf="http://www.w3.org/1999/02/22-rdf-syntax-ns#"
   xmlns:svg="http://www.w3.org/2000/svg"
   xmlns="http://www.w3.org/2000/svg"
   xmlns:sodipodi="http://sodipodi.sourceforge.net/DTD/sodipodi-0.dtd"
   xmlns:inkscape="http://www.inkscape.org/namespaces/inkscape"
   version="1.1"
   id="Menu"
   x="0px"
   y="0px"
   viewBox="0 0 16 16"
   enable-background="new 0 0 20 20"
   xml:space="preserve"
   inkscape:version="0.92.4 (5da689c313, 2019-01-14)"
   sodipodi:docname="menu.svg"
   inkscape:export-filename="/home/damon/rapid/images/menu20.png"
   inkscape:export-xdpi="120"
   inkscape:export-ydpi="120"
   width="16"
   height="16"><metadata
     id="metadata3390"><rdf:RDF><cc:Work
         rdf:about=""><dc:format>image/svg+xml</dc:format><dc:type
           rdf:resource="http://purl.org/dc/dcmitype/StillImage" /><dc:title></dc:title></cc:Work></rdf:RDF></metadata><defs
     id="defs3388" /><sodipodi:namedview
     pagecolor="#ffffff"
     bordercolor="#666666"
     borderopacity="1"
     objecttolerance="10"
     gridtolerance="10"
     guidetolerance="10"
     inkscape:pageopacity="0"
     inkscape:pageshadow="2"
     inkscape:window-width="2490"
     inkscape:window-height="1536"
     id="namedview3386"
     showgrid="false"
     inkscape:zoom="46.05"
     inkscape:cx="6.9782845"
     inkscape:cy="5"
     inkscape:window-x="70"
     inkscape:window-y="27"
     inkscape:window-maximized="1"
     inkscape:current-layer="Menu"
     fit-margin-top="0"
     fit-margin-left="0"
     fit-margin-right="0"
     fit-margin-bottom="0" /><path
     d="M 14.4,7 H 1.6 C 1.048,7 1,7.447 1,8 1,8.553 1.048,9 1.6,9 H 14.4 C 14.952,9 15,8.553 15,8 15,7.447 14.952,7 14.4,7 Z m 0,4 H 1.6 C 1.048,11 1,11.447 1,12 c 0,0.553 0.048,1 0.6,1 h 12.8 c 0.552,0 0.6,-0.447 0.6,-1 0,-0.553 -0.048,-1 -0.6,-1 z M 1.6,5 H 14.4 C 14.952,5 15,4.553 15,4 15,3.447 14.952,3 14.4,3 H 1.6 C 1.048,3 1,3.447 1,4 1,4.553 1.048,5 1.6,5 Z"
     id="path3384"
     style="fill:#333333"
     inkscape:connector-curvature="0" /></svg>