<?xml version="1.0" encoding="UTF-8" standalone="no"?>
<!-- Created with Inkscape (http://www.inkscape.org/) -->

<svg
   id="svg4874"
   height="14"
   viewBox="0 0 14 14"
   width="14"
   version="1.1"
   inkscape:version="1.1.2 (1:1.1+202202050950+0a00cf5339)"
   sodipodi:docname="up.svg"
   xmlns:inkscape="http://www.inkscape.org/namespaces/inkscape"
   xmlns:sodipodi="http://sodipodi.sourceforge.net/DTD/sodipodi-0.dtd"
   xmlns="http://www.w3.org/2000/svg"
   xmlns:svg="http://www.w3.org/2000/svg"
   xmlns:rdf="http://www.w3.org/1999/02/22-rdf-syntax-ns#"
   xmlns:cc="http://creativecommons.org/ns#"
   xmlns:dc="http://purl.org/dc/elements/1.1/">
  <defs
     id="defs9" />
  <sodipodi:namedview
     pagecolor="#ffffff"
     bordercolor="#666666"
     borderopacity="1"
     objecttolerance="10"
     gridtolerance="10"
     guidetolerance="10"
     inkscape:pageopacity="0"
     inkscape:pageshadow="2"
     inkscape:window-width="1248"
     inkscape:window-height="1527"
     id="namedview7"
     showgrid="false"
     inkscape:zoom="9.8333333"
     inkscape:cx="2.7457627"
     inkscape:cy="11.949153"
     inkscape:window-x="1312"
     inkscape:window-y="0"
     inkscape:window-maximized="0"
     inkscape:current-layer="svg4874"
     inkscape:pagecheckerboard="0" />
  <metadata
     id="metadata4879">
    <rdf:RDF>
      <cc:Work
         rdf:about="">
        <dc:format>image/svg+xml</dc:format>
        <dc:type
           rdf:resource="http://purl.org/dc/dcmitype/StillImage" />
        <dc:title />
      </cc:Work>
    </rdf:RDF>
  </metadata>
  <rect
     x="-82.005005"
     y="-2.2583008e-06"
     width="96"
     height="96"
     transform="matrix(0,1,1,0,0,0)"
     style="color:#000000;fill:none"
     id="rect4782-01" />
  <path
     inkscape:connector-curvature="0"
     d="M 2,9.79963 H 3.7489954 L 3.8387424,9.675062 C 4.1057082,9.303999 4.3787825,8.939797 4.6627814,8.585395 5.0227012,8.136097 5.3904475,7.7135848 5.7665294,7.3191814 6.1312058,6.9368788 6.6408967,6.4735263 6.9999796,6.1629728 7.3592431,6.4736338 7.8695628,6.9370095 8.234104,7.3191814 8.6101971,7.7135774 8.977935,8.136143 9.33785,8.585395 9.621662,8.939497 9.894057,9.303699 10.161265,9.675063 l 0.08974,0.124567 H 12 L 11.230956,8.632267 C 10.780879,7.9840976 10.324173,7.3568218 9.8560061,6.7771021 9.333134,6.1295252 8.8252591,5.5481975 8.331718,5.0331736 7.8755959,4.5572586 7.4531784,4.1702096 7.1362637,3.9108896 L 7.0000137,3.7996301 6.8637636,3.9108896 C 6.5402559,4.1772557 6.1251402,4.5571972 5.6689336,5.0331736 5.1753935,5.5481975 4.6674765,6.1295331 4.1446455,6.7771021 3.6766054,7.356668 3.2192725,7.9839288 2.7690649,8.632267 Z"
     style="color:#000000;text-indent:0;text-decoration:none;text-decoration-line:none;text-decoration-style:solid;text-decoration-color:#000000;text-transform:none;white-space:normal;isolation:auto;mix-blend-mode:normal;solid-color:#000000;fill:#000000;color-rendering:auto;image-rendering:auto;shape-rendering:auto"
     id="path4224" />
</svg>
