<?xml version="1.0" encoding="UTF-8"?>
<!-- Created with Inkscape (http://www.inkscape.org/) -->
<svg width="96" height="96" version="1.1" viewBox="0 0 96 96" xmlns="http://www.w3.org/2000/svg" xmlns:cc="http://creativecommons.org/ns#" xmlns:dc="http://purl.org/dc/elements/1.1/" xmlns:rdf="http://www.w3.org/1999/02/22-rdf-syntax-ns#">
 <metadata>
  <rdf:RDF>
   <cc:Work rdf:about="">
    <dc:format>image/svg+xml</dc:format>
    <dc:type rdf:resource="http://purl.org/dc/dcmitype/StillImage"/>
   </cc:Work>
  </rdf:RDF>
 </metadata>
 <rect transform="rotate(90)" x="-2.7466e-6" y="-96" width="96" height="96" color="#000000" fill="none"/>
 <path d="m16 12v3.045c-3.088 0.066-5.595 0.308-7.748 1.496-1.5055 0.831-2.6969 2.236-3.3555 3.99-0.6587 1.755-0.8965 3.839-0.8965 6.469v45c0 2.63 0.2378 4.712 0.8965 6.467 0.6586 1.754 1.85 3.159 3.3555 3.99 3.011 1.661 6.692 1.485 11.725 1.543h0.011 56.024 0.011c5.033-0.058 8.714 0.118 11.725-1.543 1.506-0.831 2.697-2.236 3.356-3.99 0.658-1.755 0.896-3.837 0.896-6.467v-45c0-2.63-0.238-4.714-0.896-6.469-0.659-1.754-1.85-3.159-3.356-3.99-3.011-1.661-6.692-1.483-11.725-1.541h-0.011-44.012v-3h-16zm4 7h56c5.038 0.059 8.352 0.237 9.816 1.045 0.734 0.405 1.153 0.853 1.543 1.893 0.391 1.039 0.641 2.692 0.641 5.062v45c0 2.37-0.25 4.023-0.641 5.062-0.39 1.04-0.809 1.488-1.543 1.893-1.464 0.808-4.778 0.986-9.816 1.045h-55.977-0.023c-5.038-0.059-8.352-0.237-9.816-1.045-0.734-0.405-1.1512-0.853-1.5414-1.893-0.3903-1.039-0.6426-2.692-0.6426-5.062v-45c0-2.37 0.2523-4.023 0.6426-5.062 0.3902-1.04 0.8074-1.488 1.5414-1.893 1.464-0.808 4.778-0.986 9.816-1.045zm28 5c-13.783 0-25 11.217-25 25s11.217 25 25 25 25-11.217 25-25-11.217-25-25-25zm28 0a4 4 0 0 0-4 4 4 4 0 0 0 4 4 4 4 0 0 0 4-4 4 4 0 0 0-4-4zm-28 4c11.622 0 21 9.378 21 21s-9.378 21-21 21-21-9.378-21-21 9.378-21 21-21zm0 4a17 17 0 0 0-17 17 17 17 0 0 0 17 17 17 17 0 0 0 17-17 17 17 0 0 0-17-17zm0 3a8 8 0 0 1 8 8 8 8 0 0 1-8 8 8 8 0 0 1-8-8 8 8 0 0 1 8-8z" color="#000000" color-rendering="auto" image-rendering="auto" shape-rendering="auto" solid-color="#000000" style="block-progression:tb;isolation:auto;mix-blend-mode:normal;text-decoration-color:#000000;text-decoration-line:none;text-decoration-style:solid;text-indent:0;text-transform:none;white-space:normal"/>
 <path d="m10.798 83.157c-2.9084-0.78241-4.2736-1.8271-5.4142-4.143l-0.95017-1.9294v-27.661c0-27.54 0.00384-27.668 0.87567-29.288 0.48162-0.89492 1.3106-2.0328 1.8421-2.5286 1.2275-1.1451 4.0525-2.1493 6.0459-2.1493 2.3504 0 2.8296-0.31738 2.8296-1.874v-1.3802h7.9322 7.9322v1.3994 1.3994l26.136 0.15129c19.511 0.11294 26.53 0.28064 27.69 0.6616 0.85482 0.28067 2.2749 1.1614 3.1558 1.9572 2.8909 2.6117 2.8527 2.154 2.725 32.71l-0.11294 27.01-0.92329 1.7284c-1.1518 2.156-3.3261 3.6258-6.1587 4.163-1.379 0.26152-14.919 0.40389-36.804 0.38696-28.797-0.02225-34.989-0.12535-36.8-0.6127zm74.585-3.8356c0.67119-0.33585 1.5431-1.2511 1.9377-2.0339 0.66704-1.3234 0.70983-3.3073 0.61017-28.289-0.12095-30.317 0.07401-28.549-3.2586-29.559-2.52-0.76398-70.903-0.76494-73.422-1e-3 -3.2948 0.99911-3.14-0.38795-3.2685 29.289-0.076213 17.607 0.028686 26.678 0.32106 27.764 0.50378 1.8709 1.7869 2.867 4.2178 3.2745 0.92182 0.15453 17.418 0.25521 36.659 0.22372 30.216-0.04943 35.149-0.14045 36.203-0.66788v-8e-6z"/>
</svg>
