<?xml version="1.0" encoding="UTF-8" standalone="no"?>
<svg
   xmlns:dc="http://purl.org/dc/elements/1.1/"
   xmlns:cc="http://creativecommons.org/ns#"
   xmlns:rdf="http://www.w3.org/1999/02/22-rdf-syntax-ns#"
   xmlns:svg="http://www.w3.org/2000/svg"
   xmlns="http://www.w3.org/2000/svg"
   viewBox="0 0 96 96.000001"
   version="1.1"
   id="svg4874"
   height="96"
   width="96">
  <defs
     id="defs4876" />
  <metadata
     id="metadata4879">
    <rdf:RDF>
      <cc:Work
         rdf:about="">
        <dc:format>image/svg+xml</dc:format>
        <dc:type
           rdf:resource="http://purl.org/dc/dcmitype/StillImage" />
        <dc:title />
      </cc:Work>
    </rdf:RDF>
  </metadata>
  <g
     transform="translate(67.857146,-78.50504)"
     id="layer1">
    <g
       style="display:inline"
       id="g4845"
       transform="matrix(0,-1,-1,0,373.50506,516.50504)">
      <g
         id="g4778"
         transform="matrix(-0.9996045,0,0,1,575.94296,-611.00001)">
        <g
           style="display:inline"
           id="g4780"
           transform="matrix(-1,0,0,1,575.99999,611)">
          <rect
             transform="scale(-1,1)"
             y="345.36221"
             x="-438.00244"
             height="96"
             width="96.037987"
             id="rect4782"
             style="color:#000000;display:inline;overflow:visible;visibility:visible;fill:none;stroke:none;stroke-width:4;marker:none;enable-background:accumulate" />
          <path
             id="path4297"
             d="m 357.9707,357.36133 c -2.6314,0 -4.71551,0.23788 -6.4707,0.89648 -1.75519,0.6586 -3.15919,1.84985 -3.99023,3.35547 -1.66209,3.01124 -1.48477,6.6938 -1.54297,11.72656 v 0.0117 40.02149 0.0117 c 0.0582,5.03276 -0.11912,8.71532 1.54297,11.72656 0.83104,1.50562 2.23504,2.69686 3.99023,3.35547 1.75519,0.6586 3.8393,0.89648 6.4707,0.89648 h 64.02539 c 2.6314,0 4.71552,-0.23788 6.47071,-0.89648 1.75519,-0.65861 3.15919,-1.84985 3.99023,-3.35547 1.66208,-3.01124 1.48476,-6.6938 1.54297,-11.72656 v -0.0117 -40.02149 -0.0117 c -0.0582,-5.03276 0.11911,-8.71532 -1.54297,-11.72656 -0.83104,-1.50562 -2.23504,-2.69687 -3.99023,-3.35547 -1.75519,-0.6586 -3.83931,-0.89648 -6.47071,-0.89648 z m 0,4.00195 h 64.02539 c 2.37058,0 4.02426,0.25031 5.06446,0.64063 1.04019,0.39031 1.48966,0.80945 1.89453,1.54297 0.80823,1.46429 0.98613,4.77814 1.04492,9.8164 v 39.97656 c -0.0584,5.05418 -0.23518,8.37086 -1.04492,9.83789 -0.40487,0.73352 -0.85434,1.15266 -1.89453,1.54297 -1.0402,0.39032 -2.69388,0.64063 -5.06446,0.64063 H 357.9707 c -2.37058,0 -4.02426,-0.25031 -5.06445,-0.64063 -1.04019,-0.39031 -1.48966,-0.80945 -1.89453,-1.54297 -0.80836,-1.46451 -0.98616,-4.77682 -1.04492,-9.8164 v -0.0215 -39.95312 -0.0234 c 0.0588,-5.03826 0.23669,-8.35211 1.04492,-9.8164 0.40487,-0.73352 0.85434,-1.15266 1.89453,-1.54297 1.04019,-0.39032 2.69387,-0.64063 5.06445,-0.64063 z"
             style="color:#000000;font-style:normal;font-variant:normal;font-weight:normal;font-stretch:normal;font-size:medium;line-height:normal;font-family:sans-serif;font-variant-ligatures:normal;font-variant-position:normal;font-variant-caps:normal;font-variant-numeric:normal;font-variant-alternates:normal;font-feature-settings:normal;text-indent:0;text-align:start;text-decoration:none;text-decoration-line:none;text-decoration-style:solid;text-decoration-color:#000000;letter-spacing:normal;word-spacing:normal;text-transform:none;writing-mode:lr-tb;direction:ltr;text-orientation:mixed;baseline-shift:baseline;text-anchor:start;white-space:normal;shape-padding:0;clip-rule:nonzero;display:inline;overflow:visible;visibility:visible;opacity:1;isolation:auto;mix-blend-mode:normal;color-interpolation:sRGB;color-interpolation-filters:linearRGB;solid-color:#000000;solid-opacity:1;fill:#333333;fill-opacity:1;fill-rule:nonzero;stroke:none;stroke-width:4.00079155;stroke-linecap:butt;stroke-linejoin:miter;stroke-miterlimit:4;stroke-dasharray:none;stroke-dashoffset:0;stroke-opacity:1;marker:none;color-rendering:auto;image-rendering:auto;shape-rendering:auto;text-rendering:auto;enable-background:accumulate" />
          <path
             id="path4206"
             d="m 407.9668,392.51172 c 0.20918,6.38732 -1.91982,12.85159 -6.43164,17.99414 -9.02366,10.28509 -24.53124,11.81201 -35.38868,3.48437 -10.85744,-8.32763 -13.39647,-23.6977 -5.79296,-35.07226 7.21796,-10.79782 21.25336,-14.53984 32.80468,-9.0332 l -1.72265,3.61132 c -9.78364,-4.66396 -21.62987,-1.51973 -27.75586,7.64453 -6.4532,9.65375 -4.31315,22.60752 4.90234,29.67579 9.21548,7.06826 22.28856,5.78011 29.94727,-2.94922 7.20773,-8.21532 7.15917,-20.26926 0.29297,-28.50977 l -7.42383,7.41992 -2.83008,-2.82812 10.39062,-10.38477 1.41407,1.41211 c 4.83862,4.83655 7.38456,11.14783 7.59375,17.53516 z"
             style="color:#000000;font-style:normal;font-variant:normal;font-weight:normal;font-stretch:normal;font-size:medium;line-height:normal;font-family:sans-serif;font-variant-ligatures:normal;font-variant-position:normal;font-variant-caps:normal;font-variant-numeric:normal;font-variant-alternates:normal;font-feature-settings:normal;text-indent:0;text-align:start;text-decoration:none;text-decoration-line:none;text-decoration-style:solid;text-decoration-color:#000000;letter-spacing:normal;word-spacing:normal;text-transform:none;writing-mode:lr-tb;direction:ltr;text-orientation:mixed;baseline-shift:baseline;text-anchor:start;white-space:normal;shape-padding:0;clip-rule:nonzero;display:inline;overflow:visible;visibility:visible;opacity:1;isolation:auto;mix-blend-mode:normal;color-interpolation:sRGB;color-interpolation-filters:linearRGB;solid-color:#000000;solid-opacity:1;fill:#333333;fill-opacity:1;fill-rule:nonzero;stroke:none;stroke-width:4.00079155;stroke-linecap:butt;stroke-linejoin:miter;stroke-miterlimit:4;stroke-dasharray:none;stroke-dashoffset:0;stroke-opacity:1;marker:none;color-rendering:auto;image-rendering:auto;shape-rendering:auto;text-rendering:auto;enable-background:accumulate" />
          <path
             id="path4187"
             d="m 375.97852,393.36133 c 0,3.29083 2.7111,6.00195 6.00195,6.00195 3.29085,0 6.00195,-2.71112 6.00195,-6.00195 0,-3.29083 -2.7111,-6 -6.00195,-6 -3.29085,0 -6.00195,2.70917 -6.00195,6 z m 4,0 c 0,-1.12782 0.87247,-2 2.00195,-2 1.12948,0 2.00195,0.87218 2.00195,2 0,1.12782 -0.87247,2 -2.00195,2 -1.12948,0 -2.00195,-0.87218 -2.00195,-2 z"
             style="color:#000000;font-style:normal;font-variant:normal;font-weight:normal;font-stretch:normal;font-size:medium;line-height:normal;font-family:sans-serif;font-variant-ligatures:normal;font-variant-position:normal;font-variant-caps:normal;font-variant-numeric:normal;font-variant-alternates:normal;font-feature-settings:normal;text-indent:0;text-align:start;text-decoration:none;text-decoration-line:none;text-decoration-style:solid;text-decoration-color:#000000;letter-spacing:normal;word-spacing:normal;text-transform:none;writing-mode:lr-tb;direction:ltr;text-orientation:mixed;baseline-shift:baseline;text-anchor:start;white-space:normal;shape-padding:0;clip-rule:nonzero;display:inline;overflow:visible;visibility:visible;opacity:1;isolation:auto;mix-blend-mode:normal;color-interpolation:sRGB;color-interpolation-filters:linearRGB;solid-color:#000000;solid-opacity:1;fill:#333333;fill-opacity:1;fill-rule:nonzero;stroke:none;stroke-width:4.00079107;stroke-linecap:butt;stroke-linejoin:miter;stroke-miterlimit:4;stroke-dasharray:none;stroke-dashoffset:0;stroke-opacity:1;marker:none;color-rendering:auto;image-rendering:auto;shape-rendering:auto;text-rendering:auto;enable-background:accumulate" />
        </g>
      </g>
    </g>
  </g>
</svg>
