<?xml version="1.0" encoding="UTF-8" standalone="no"?>
<svg
   xmlns:dc="http://purl.org/dc/elements/1.1/"
   xmlns:cc="http://creativecommons.org/ns#"
   xmlns:rdf="http://www.w3.org/1999/02/22-rdf-syntax-ns#"
   xmlns:svg="http://www.w3.org/2000/svg"
   xmlns="http://www.w3.org/2000/svg"
   version="1.1"
   width="16"
   height="16"
   id="svg7384">
  <defs
     id="defs9" />
  <metadata
     id="metadata90">
    <rdf:RDF>
      <cc:Work
         rdf:about="">
        <dc:format>image/svg+xml</dc:format>
        <dc:type
           rdf:resource="http://purl.org/dc/dcmitype/StillImage" />
        <dc:title>Gnome Symbolic Icon Theme</dc:title>
      </cc:Work>
    </rdf:RDF>
  </metadata>
  <title
     id="title9167">Gnome Symbolic Icon Theme</title>
  <g
     style="fill:#4d4d4d"
     transform="translate(-221,-466.38983)"
     id="layer10">
    <path
       d="m 223.5,468 c -1.385,0 -2.5,1.115 -2.5,2.5 l 0,8 c 0,1.385 1.115,2.5 2.5,2.5 l 11,0 c 1.385,0 2.5,-1.115 2.5,-2.5 l 0,-8 c 0,-1.385 -1.115,-2.5 -2.5,-2.5 z m 0,9 11,0 0.5,0 0,1.5 c 0,0.277 -0.223,0.5 -0.5,0.5 l -11,0 c -0.277,0 -0.5,-0.223 -0.5,-0.5 l 0,-1.5 z"
       style="fill:#4d4d4d"
       id="rect8463" />
  </g>
</svg>
