<?xml version="1.0" encoding="UTF-8"?>
<!-- Created with Inkscape (http://www.inkscape.org/) -->
<svg width="96" height="96" version="1.1" viewBox="0 0 96 96" xmlns="http://www.w3.org/2000/svg" xmlns:cc="http://creativecommons.org/ns#" xmlns:dc="http://purl.org/dc/elements/1.1/" xmlns:rdf="http://www.w3.org/1999/02/22-rdf-syntax-ns#">
 <metadata>
  <rdf:RDF>
   <cc:Work rdf:about="">
    <dc:format>image/svg+xml</dc:format>
    <dc:type rdf:resource="http://purl.org/dc/dcmitype/StillImage"/>
   </cc:Work>
  </rdf:RDF>
 </metadata>
 <g transform="translate(67.857 -78.505)">
  <g transform="matrix(0 -1 -1 0 373.51 516.51)">
   <g transform="matrix(-.9996 0 0 1 575.94 -611)">
    <g transform="matrix(-1 0 0 1 576 611)">
     <rect transform="scale(-1,1)" x="-438" y="345.36" width="96.038" height="96" color="#000000" fill="none"/>
     <g shape-rendering="auto">
      <path d="m357.97 357.36c-2.6314 0-4.7155 0.23788-6.4707 0.89648s-3.1592 1.8498-3.9902 3.3555c-1.6621 3.0112-1.4848 6.6938-1.543 11.727v0.0117 40.021 0.0117c0.0582 5.0328-0.11912 8.7153 1.543 11.727 0.83104 1.5056 2.235 2.6969 3.9902 3.3555 1.7552 0.6586 3.8393 0.89648 6.4707 0.89648h64.025c2.6314 0 4.7155-0.23788 6.4707-0.89648 1.7552-0.65861 3.1592-1.8498 3.9902-3.3555 1.6621-3.0112 1.4848-6.6938 1.543-11.727v-0.0117-40.021-0.0117c-0.0582-5.0328 0.11911-8.7153-1.543-11.727-0.83104-1.5056-2.235-2.6969-3.9902-3.3555s-3.8393-0.89648-6.4707-0.89648zm0 4.002h64.025c2.3706 0 4.0243 0.25031 5.0645 0.64063 1.0402 0.39031 1.4897 0.80945 1.8945 1.543 0.80823 1.4643 0.98613 4.7781 1.0449 9.8164v39.977c-0.0584 5.0542-0.23518 8.3709-1.0449 9.8379-0.40487 0.73352-0.85434 1.1527-1.8945 1.543-1.0402 0.39032-2.6939 0.64063-5.0645 0.64063h-64.025c-2.3706 0-4.0243-0.25031-5.0644-0.64063-1.0402-0.39031-1.4897-0.80945-1.8945-1.543-0.80836-1.4645-0.98616-4.7768-1.0449-9.8164v-0.0215-39.953-0.0234c0.0588-5.0383 0.23669-8.3521 1.0449-9.8164 0.40487-0.73352 0.85434-1.1527 1.8945-1.543 1.0402-0.39032 2.6939-0.64063 5.0644-0.64063z" color="#000000" color-rendering="auto" image-rendering="auto" solid-color="#000000" style="font-feature-settings:normal;font-variant-alternates:normal;font-variant-caps:normal;font-variant-ligatures:normal;font-variant-numeric:normal;font-variant-position:normal;isolation:auto;mix-blend-mode:normal;shape-padding:0;text-decoration-color:#000000;text-decoration-line:none;text-decoration-style:solid;text-indent:0;text-orientation:mixed;text-transform:none;white-space:normal"/>
      <path d="m407.97 392.51c0.20918 6.3873-1.9198 12.852-6.4316 17.994-9.0237 10.285-24.531 11.812-35.389 3.4844-10.857-8.3276-13.396-23.698-5.793-35.072 7.218-10.798 21.253-14.54 32.805-9.0332l-1.7226 3.6113c-9.7836-4.664-21.63-1.5197-27.756 7.6445-6.4532 9.6538-4.3132 22.608 4.9023 29.676 9.2155 7.0683 22.289 5.7801 29.947-2.9492 7.2077-8.2153 7.1592-20.269 0.29297-28.51l-7.4238 7.4199-2.8301-2.8281 10.391-10.385 1.4141 1.4121c4.8386 4.8366 7.3846 11.148 7.5938 17.535z" color="#000000" color-rendering="auto" image-rendering="auto" solid-color="#000000" style="font-feature-settings:normal;font-variant-alternates:normal;font-variant-caps:normal;font-variant-ligatures:normal;font-variant-numeric:normal;font-variant-position:normal;isolation:auto;mix-blend-mode:normal;shape-padding:0;text-decoration-color:#000000;text-decoration-line:none;text-decoration-style:solid;text-indent:0;text-orientation:mixed;text-transform:none;white-space:normal"/>
      <path d="m375.98 393.36c0 3.2908 2.7111 6.002 6.002 6.002s6.002-2.7111 6.002-6.002-2.7111-6-6.002-6-6.002 2.7092-6.002 6zm4 0c0-1.1278 0.87247-2 2.002-2s2.002 0.87218 2.002 2-0.87247 2-2.002 2-2.002-0.87218-2.002-2z" color="#000000" color-rendering="auto" fill="#333" image-rendering="auto" solid-color="#000000" style="font-feature-settings:normal;font-variant-alternates:normal;font-variant-caps:normal;font-variant-ligatures:normal;font-variant-numeric:normal;font-variant-position:normal;isolation:auto;mix-blend-mode:normal;shape-padding:0;text-decoration-color:#000000;text-decoration-line:none;text-decoration-style:solid;text-indent:0;text-orientation:mixed;text-transform:none;white-space:normal"/>
     </g>
    </g>
   </g>
  </g>
 </g>
</svg>
