<?xml version="1.0" encoding="UTF-8" standalone="no"?>
<svg
   xmlns:dc="http://purl.org/dc/elements/1.1/"
   xmlns:cc="http://creativecommons.org/ns#"
   xmlns:rdf="http://www.w3.org/1999/02/22-rdf-syntax-ns#"
   xmlns:svg="http://www.w3.org/2000/svg"
   xmlns="http://www.w3.org/2000/svg"
   xmlns:sodipodi="http://sodipodi.sourceforge.net/DTD/sodipodi-0.dtd"
   xmlns:inkscape="http://www.inkscape.org/namespaces/inkscape"
   enable-background="new 0 0 512 512"
   height="512px"
   id="Layer_1"
   version="1.1"
   viewBox="0 0 512 512"
   width="512px"
   xml:space="preserve"
   inkscape:version="0.91 r13725"
   sodipodi:docname="folder-symbolic-filled.svg"><metadata
     id="metadata3361"><rdf:RDF><cc:Work
         rdf:about=""><dc:format>image/svg+xml</dc:format><dc:type
           rdf:resource="http://purl.org/dc/dcmitype/StillImage" /><dc:title></dc:title></cc:Work></rdf:RDF></metadata><defs
     id="defs3359" /><sodipodi:namedview
     pagecolor="#ffffff"
     bordercolor="#666666"
     borderopacity="1"
     objecttolerance="10"
     gridtolerance="10"
     guidetolerance="10"
     inkscape:pageopacity="0"
     inkscape:pageshadow="2"
     inkscape:window-width="1877"
     inkscape:window-height="1056"
     id="namedview3357"
     showgrid="false"
     inkscape:zoom="1.796875"
     inkscape:cx="256"
     inkscape:cy="256"
     inkscape:window-x="43"
     inkscape:window-y="24"
     inkscape:window-maximized="1"
     inkscape:current-layer="Layer_1" /><path
     d="M463.518,94.909H193.885v-10.37c0-22.908-18.574-41.482-41.482-41.482H48.699  c-22.908,0-41.482,18.574-41.482,41.482v51.852v72.593v217.78c0,22.907,18.574,41.482,41.482,41.482h414.819  c22.908,0,41.482-18.575,41.482-41.482V136.391C505,113.483,486.426,94.909,463.518,94.909z M27.958,84.539  c0-11.435,9.308-20.741,20.741-20.741h103.705c11.433,0,20.741,9.306,20.741,20.741v10.37v20.741h20.741h269.633  c11.433,0,20.741,9.306,20.741,20.741v20.741H27.958v-20.741V84.539z M463.518,447.506H48.699c-11.433,0-20.741-9.307-20.741-20.741  v-217.78v-31.111h456.301v248.892C484.259,438.198,474.952,447.506,463.518,447.506z"
     fill="#37404D"
     id="path3355"
     style="fill:#333333" /><path
     style="opacity:1;fill:#5d5b59;fill-opacity:1;stroke:#333333;stroke-width:5.94921732;stroke-miterlimit:4;stroke-dasharray:none;stroke-opacity:1"
     d="m 42.364758,446.19864 c -5.090497,-1.59496 -9.785579,-5.87215 -12.256515,-11.1656 l -1.558678,-3.33913 -0.143881,-126.74782 -0.143881,-126.74783 227.906327,0 227.90632,0 -0.14505,126.75962 -0.14505,126.75962 -1.82571,3.70845 c -2.04992,4.16386 -5.76986,7.87973 -9.98366,9.97273 l -2.6602,1.32132 -212.31304,0.10339 c -173.57065,0.0845 -212.737111,-0.0295 -214.636982,-0.62475 z"
     id="path4157"
     inkscape:connector-curvature="0" /></svg>