<?xml version="1.0" encoding="UTF-8" standalone="no"?>
<svg
   xmlns:dc="http://purl.org/dc/elements/1.1/"
   xmlns:cc="http://creativecommons.org/ns#"
   xmlns:rdf="http://www.w3.org/1999/02/22-rdf-syntax-ns#"
   xmlns:svg="http://www.w3.org/2000/svg"
   xmlns="http://www.w3.org/2000/svg"
   xmlns:sodipodi="http://sodipodi.sourceforge.net/DTD/sodipodi-0.dtd"
   xmlns:inkscape="http://www.inkscape.org/namespaces/inkscape"
   id="Layer_1"
   version="1.1"
   viewBox="0 0 125.64221 164.32137"
   xml:space="preserve"
   sodipodi:docname="1494230241_bulb.svg"
   width="125.64221"
   height="164.32137"
   inkscape:version="0.92.1 r15371"><metadata
     id="metadata4575"><rdf:RDF><cc:Work
         rdf:about=""><dc:format>image/svg+xml</dc:format><dc:type
           rdf:resource="http://purl.org/dc/dcmitype/StillImage" /><dc:title></dc:title></cc:Work></rdf:RDF></metadata><defs
     id="defs4573" /><sodipodi:namedview
     pagecolor="#ffffff"
     bordercolor="#666666"
     borderopacity="1"
     objecttolerance="10"
     gridtolerance="10"
     guidetolerance="10"
     inkscape:pageopacity="0"
     inkscape:pageshadow="2"
     inkscape:window-width="2495"
     inkscape:window-height="1576"
     id="namedview4571"
     showgrid="false"
     inkscape:zoom="5.744"
     inkscape:cx="64.821103"
     inkscape:cy="78.6"
     inkscape:window-x="65"
     inkscape:window-y="24"
     inkscape:window-maximized="1"
     inkscape:current-layer="Layer_1" /><style
     type="text/css"
     id="style4550">
	.st0{fill:#FCC12D;}
	.st1{fill:#46E6F2;}
	.st2{fill:none;stroke:#231F20;stroke-width:3;stroke-linecap:round;stroke-linejoin:round;stroke-miterlimit:10;}
	.st3{fill:#FFFFFF;}
	.st4{fill:none;stroke:#FFFFFF;stroke-width:3;stroke-linecap:round;stroke-linejoin:round;stroke-miterlimit:10;}
</style><path
     class="st0"
     d="m 106.9211,71.721364 c 0,-24.2 -20.899997,-43.5 -45.699997,-40.7 -18.5,2.1 -33.6,16.9 -36,35.4 -1.5,11.5 1.9,22.2 8.3,30.4 7.3,9.399996 11,21.199996 11,33.199996 v 1.7 h 42.8 v -1.7 c 0,-12.4 4.4,-24.2 11.7,-34.099996 4.999997,-6.8 7.899997,-15.1 7.899997,-24.2 z"
     id="XMLID_19_"
     inkscape:connector-curvature="0"
     style="fill:#fcc12d" /><path
     class="st1"
     d="m 86.021103,142.72136 h -40.4 c -3,0 -5.5,-2.4 -5.5,-5.5 v 0 c 0,-3 2.4,-5.5 5.5,-5.5 h 40.4 c 3,0 5.5,2.4 5.5,5.5 v 0 c 0,3 -2.5,5.5 -5.5,5.5 z"
     id="XMLID_18_"
     inkscape:connector-curvature="0"
     style="fill:#46e6f2" /><path
     class="st1"
     d="m 83.021103,153.52136 h -34.5 c -2.8,0 -5,-2.3 -5,-5 v -0.6 c 0,-2.8 2.3,-5 5,-5 h 34.5 c 2.8,0 5,2.3 5,5 v 0.6 c 0.1,2.7 -2.2,5 -5,5 z"
     id="XMLID_17_"
     inkscape:connector-curvature="0"
     style="fill:#46e6f2" /><path
     class="st1"
     d="m 51.621103,156.12136 v 0.1 c 0,4.5 3.6,8.1 8.1,8.1 h 12.2 c 4.5,0 8.1,-3.6 8.1,-8.1 v -0.1 c 0,-1.4 -1.2,-2.6 -2.6,-2.6 h -23.2 c -1.4,0 -2.6,1.2 -2.6,2.6 z"
     id="XMLID_16_"
     inkscape:connector-curvature="0"
     style="fill:#46e6f2" /><path
     class="st2"
     d="m 103.8211,68.621364 c 0,-24.2 -20.899997,-43.5 -45.699997,-40.7 -18.5,2.1 -33.6,16.9 -36,35.4 -1.5,11.5 1.9,22.2 8.3,30.4 7.3,9.399996 11,21.199996 11,33.199996 v 1.7 h 42.8 v -1.7 c 0,-12.4 4.4,-24.2 11.7,-34.099996 4.999997,-6.8 7.899997,-15.2 7.899997,-24.2 z"
     id="XMLID_15_"
     inkscape:connector-curvature="0"
     style="fill:none;stroke:#231f20;stroke-width:3;stroke-linecap:round;stroke-linejoin:round;stroke-miterlimit:10" /><path
     class="st2"
     d="m 79.921103,150.32136 h -34.5 c -2.8,0 -5,-2.3 -5,-5 v -0.6 c 0,-2.8 2.3,-5 5,-5 h 34.5 c 2.8,0 5,2.3 5,5 v 0.6 c 0,2.8 -2.2,5 -5,5 z"
     id="XMLID_14_"
     inkscape:connector-curvature="0"
     style="fill:none;stroke:#231f20;stroke-width:3;stroke-linecap:round;stroke-linejoin:round;stroke-miterlimit:10" /><path
     class="st2"
     d="m 48.421103,152.92136 v 0.1 c 0,4.5 3.6,8.1 8.1,8.1 h 12.2 c 4.5,0 8.1,-3.6 8.1,-8.1 v -0.1 c 0,-1.4 -1.2,-2.6 -2.6,-2.6 h -23.2 c -1.4,0 -2.6,1.2 -2.6,2.6 z"
     id="XMLID_13_"
     inkscape:connector-curvature="0"
     style="fill:none;stroke:#231f20;stroke-width:3;stroke-linecap:round;stroke-linejoin:round;stroke-miterlimit:10" /><ellipse
     class="st3"
     cx="65.783005"
     cy="14.028034"
     id="XMLID_12_"
     rx="6.8997459"
     ry="11.799565"
     transform="rotate(39.436556)"
     style="fill:#ffffff;stroke-width:0.99996316" /><polyline
     class="st4"
     id="XMLID_11_"
     points="132.1,130 123,167.1 114,130 "
     style="fill:none;stroke:#ffffff;stroke-width:3;stroke-linecap:round;stroke-linejoin:round;stroke-miterlimit:10"
     transform="translate(-60.178897,-39.278636)" /><path
     class="st4"
     d="m 46.521103,86.221364 c 4.1,0 4.1,3.4 8.1,3.4 4.1,0 4.1,-3.4 8.1,-3.4 4.1,0 4.1,3.4 8.1,3.4 4.1,0 4.1,-3.4 8.1,-3.4"
     id="XMLID_10_"
     inkscape:connector-curvature="0"
     style="fill:none;stroke:#ffffff;stroke-width:3;stroke-linecap:round;stroke-linejoin:round;stroke-miterlimit:10" /><line
     class="st2"
     id="XMLID_9_"
     x1="62.821102"
     x2="62.821102"
     y1="17.221365"
     y2="1.5213637"
     style="fill:none;stroke:#231f20;stroke-width:3;stroke-linecap:round;stroke-linejoin:round;stroke-miterlimit:10" /><line
     class="st2"
     id="XMLID_8_"
     x1="90.7211"
     x2="97.821106"
     y1="20.921366"
     y2="6.9213653"
     style="fill:none;stroke:#231f20;stroke-width:3;stroke-linecap:round;stroke-linejoin:round;stroke-miterlimit:10" /><line
     class="st2"
     id="XMLID_7_"
     x1="109.7211"
     x2="119.12111"
     y1="36.621365"
     y2="30.421362"
     style="fill:none;stroke:#231f20;stroke-width:3;stroke-linecap:round;stroke-linejoin:round;stroke-miterlimit:10" /><line
     class="st2"
     id="XMLID_6_"
     x1="116.5211"
     x2="124.12111"
     y1="58.521366"
     y2="57.321362"
     style="fill:none;stroke:#231f20;stroke-width:3;stroke-linecap:round;stroke-linejoin:round;stroke-miterlimit:10" /><line
     class="st2"
     id="XMLID_5_"
     x1="34.921101"
     x2="27.821104"
     y1="20.921366"
     y2="6.9213653"
     style="fill:none;stroke:#231f20;stroke-width:3;stroke-linecap:round;stroke-linejoin:round;stroke-miterlimit:10" /><line
     class="st2"
     id="XMLID_4_"
     x1="15.921102"
     x2="6.5211005"
     y1="36.621365"
     y2="30.421362"
     style="fill:none;stroke:#231f20;stroke-width:3;stroke-linecap:round;stroke-linejoin:round;stroke-miterlimit:10" /><line
     class="st2"
     id="XMLID_3_"
     x1="9.1211061"
     x2="1.5211041"
     y1="58.521366"
     y2="57.321362"
     style="fill:none;stroke:#231f20;stroke-width:3;stroke-linecap:round;stroke-linejoin:round;stroke-miterlimit:10" /><path
     class="st2"
     d="m 82.821103,139.52136 h -40.4 c -3,0 -5.5,-2.4 -5.5,-5.5 v 0 c 0,-3 2.4,-5.5 5.5,-5.5 h 40.4 c 3,0 5.5,2.4 5.5,5.5 v 0 c 0,3.1 -2.5,5.5 -5.5,5.5 z"
     id="XMLID_2_"
     inkscape:connector-curvature="0"
     style="fill:none;stroke:#231f20;stroke-width:3;stroke-linecap:round;stroke-linejoin:round;stroke-miterlimit:10" /></svg>