<?xml version="1.0" encoding="UTF-8" standalone="no"?>
<svg
   xmlns:dc="http://purl.org/dc/elements/1.1/"
   xmlns:cc="http://creativecommons.org/ns#"
   xmlns:rdf="http://www.w3.org/1999/02/22-rdf-syntax-ns#"
   xmlns:svg="http://www.w3.org/2000/svg"
   xmlns="http://www.w3.org/2000/svg"
   id="svg12"
   version="1.1"
   height="1755"
   width="1755">
  <metadata
     id="metadata18">
    <rdf:RDF>
      <cc:Work
         rdf:about="">
        <dc:format>image/svg+xml</dc:format>
        <dc:type
           rdf:resource="http://purl.org/dc/dcmitype/StillImage" />
        <dc:title />
      </cc:Work>
    </rdf:RDF>
  </metadata>
  <defs
     id="defs16" />
  <g
     transform="rotate(-90,922.5,245)"
     id="g5">
    <title
       id="title2">background</title>
    <rect
       style="fill:none"
       x="-1"
       y="-1"
       width="582"
       height="402"
       id="canvas_background" />
  </g>
  <g
     transform="rotate(-90,909.5,864)"
     id="g10">
    <title
       id="title7">Layer 1</title>
    <path
       d="m 503,1271 -256,256 q -10,9 -23,9 -12,0 -23,-9 -9,-10 -9,-23 0,-13 9,-23 l 256,-256 q 10,-9 23,-9 13,0 23,9 9,10 9,23 0,13 -9,23 z m 169,41 v 320 q 0,14 -9,23 -9,9 -23,9 -14,0 -23,-9 -9,-9 -9,-23 v -320 q 0,-14 9,-23 9,-9 23,-9 14,0 23,9 9,9 9,23 z M 448,1088 q 0,14 -9,23 -9,9 -23,9 H 96 q -14,0 -23,-9 -9,-9 -9,-23 0,-14 9,-23 9,-9 23,-9 h 320 q 14,0 23,9 9,9 9,23 z m 1264,128 q 0,120 -85,203 l -147,146 q -83,83 -203,83 -121,0 -204,-85 L 739,1228 q -21,-21 -42,-56 l 239,-18 273,274 q 27,27 68,27.5 41,0.5 68,-26.5 l 147,-146 q 28,-28 28,-67 0,-40 -28,-68 l -274,-275 18,-239 q 35,21 56,42 l 336,336 q 84,86 84,204 z M 1095,492 856,510 583,236 q -28,-28 -68,-28 -39,0 -68,27 L 300,381 q -28,28 -28,67 0,40 28,68 l 274,274 -18,240 q -35,-21 -56,-42 L 164,652 Q 80,566 80,448 80,328 165,245 L 312,99 q 83,-83 203,-83 121,0 204,85 l 334,335 q 21,21 42,56 z m 633,84 q 0,14 -9,23 -9,9 -23,9 h -320 q -14,0 -23,-9 -9,-9 -9,-23 0,-14 9,-23 9,-9 23,-9 h 320 q 14,0 23,9 9,9 9,23 z M 1184,32 v 320 q 0,14 -9,23 -9,9 -23,9 -14,0 -23,-9 -9,-9 -9,-23 V 32 q 0,-14 9,-23 9,-9 23,-9 14,0 23,9 9,9 9,23 z m 407,151 -256,256 q -11,9 -23,9 -12,0 -23,-9 -9,-10 -9,-23 0,-13 9,-23 l 256,-256 q 10,-9 23,-9 13,0 23,9 9,10 9,23 0,13 -9,23 z"
       id="svg_1" />
  </g>
</svg>
