<?xml version="1.0" encoding="UTF-8" standalone="no"?>
<svg
   xmlns:dc="http://purl.org/dc/elements/1.1/"
   xmlns:cc="http://creativecommons.org/ns#"
   xmlns:rdf="http://www.w3.org/1999/02/22-rdf-syntax-ns#"
   xmlns:svg="http://www.w3.org/2000/svg"
   xmlns="http://www.w3.org/2000/svg"
   viewBox="0 0 96 96.000001"
   version="1.1"
   id="svg4874"
   height="96"
   width="96">
  <defs
     id="defs4876" />
  <metadata
     id="metadata4879">
    <rdf:RDF>
      <cc:Work
         rdf:about="">
        <dc:format>image/svg+xml</dc:format>
        <dc:type
           rdf:resource="http://purl.org/dc/dcmitype/StillImage" />
        <dc:title />
      </cc:Work>
    </rdf:RDF>
  </metadata>
  <g
     transform="translate(67.857146,-78.50504)"
     id="layer1">
    <g
       style="display:inline"
       id="g4845"
       transform="matrix(0,-1,-1,0,373.50506,516.50504)">
      <g
         id="g4778"
         transform="matrix(-0.9996045,0,0,1,575.94296,-611.00001)">
        <g
           style="display:inline"
           id="g4780"
           transform="matrix(-1,0,0,1,575.99999,611)">
          <rect
             transform="scale(-1,1)"
             y="345.36221"
             x="-438.00244"
             height="96"
             width="96.037987"
             id="rect4782"
             style="color:#000000;display:inline;overflow:visible;visibility:visible;fill:none;stroke:none;stroke-width:4;marker:none;enable-background:accumulate" />
          <path
             id="path4194"
             transform="matrix(0,-1,-1.0003957,0,438.00245,441.36222)"
             d="M 47.980469 8 C 47.974469 8 47.969291 8.001861 47.962891 8.0058594 C 47.956891 8.0078586 47.948106 8.0123341 47.941406 8.0195312 C 47.935406 8.0245293 47.926722 8.0299044 47.919922 8.0332031 C 47.913922 8.0362019 47.908444 8.0410156 47.902344 8.0410156 C 28.402224 36.577755 16.00459 65.987161 16 65.998047 L 80 66 C 80 66 66.881429 35.059204 47.980469 8 z M 47.980469 15.240234 C 60.171999 33.636556 69.591699 52.82462 73.818359 62 L 22.171875 61.998047 C 23.593925 58.90741 25.564881 54.734296 28.207031 49.523438 C 33.046421 39.979174 39.857969 27.669527 47.980469 15.240234 z "
             style="color:#000000;display:inline;overflow:visible;visibility:visible;fill:#333333;fill-opacity:1;fill-rule:nonzero;stroke:none;stroke-width:2.99940658;marker:none;enable-background:accumulate" />
          <path
             id="path2194-5"
             d="m 426.28789,391.80851 c 0.0552,-0.12326 0.0131,-0.008 0.0586,-0.0996 a 4.0260635,4.0228797 0 0 1 0.10551,-0.21875 c 10e-4,-0.002 -0.007,0.009 -0.006,0.008 l -0.15826,0.31055 z"
             style="color:#000000;display:inline;overflow:visible;visibility:visible;fill:#808080;fill-opacity:1;fill-rule:nonzero;stroke:none;stroke-width:3.00059342;marker:none;enable-background:accumulate" />
          <path
             id="rect4190"
             d="m 365.97461,425.36133 -2.00195,0 -14.00391,0 0,-64 16.00586,0 0,64 z m -4.00195,-4 0,-55.99805 -8.00391,0 0,55.99805 8.00391,0 z"
             style="color:#000000;font-style:normal;font-variant:normal;font-weight:normal;font-stretch:normal;font-size:medium;line-height:normal;font-family:sans-serif;font-variant-ligatures:none;font-variant-position:normal;font-variant-caps:normal;font-variant-numeric:normal;font-variant-alternates:normal;font-feature-settings:normal;text-indent:0;text-align:start;text-decoration:none;text-decoration-line:none;text-decoration-style:solid;text-decoration-color:#000000;letter-spacing:normal;word-spacing:normal;text-transform:none;direction:ltr;block-progression:tb;writing-mode:lr-tb;baseline-shift:baseline;text-anchor:start;white-space:normal;shape-padding:0;clip-rule:nonzero;display:inline;overflow:visible;visibility:visible;opacity:1;isolation:auto;mix-blend-mode:normal;color-interpolation:sRGB;color-interpolation-filters:linearRGB;solid-color:#000000;solid-opacity:1;fill:#333333;fill-opacity:1;fill-rule:nonzero;stroke:none;stroke-width:4.00079107;stroke-linecap:butt;stroke-linejoin:miter;stroke-miterlimit:4;stroke-dasharray:none;stroke-dashoffset:1.5999999;stroke-opacity:1;marker:none;color-rendering:auto;image-rendering:auto;shape-rendering:auto;text-rendering:auto;enable-background:accumulate" />
        </g>
      </g>
    </g>
  </g>
</svg>
