<?xml version="1.0" encoding="UTF-8" standalone="no"?>
<svg
   xmlns:dc="http://purl.org/dc/elements/1.1/"
   xmlns:cc="http://creativecommons.org/ns#"
   xmlns:rdf="http://www.w3.org/1999/02/22-rdf-syntax-ns#"
   xmlns:svg="http://www.w3.org/2000/svg"
   xmlns="http://www.w3.org/2000/svg"
   height="16"
   width="16"
   xml:space="preserve"
   enable-background="new 0 0 20 20"
   viewBox="0 0 16 16"
   y="0px"
   x="0px"
   id="Menu"
   version="1.1"><metadata
     id="metadata3390"><rdf:RDF><cc:Work
         rdf:about=""><dc:format>image/svg+xml</dc:format><dc:type
           rdf:resource="http://purl.org/dc/dcmitype/StillImage" /><dc:title /></cc:Work></rdf:RDF></metadata><defs
     id="defs3388" /><path
     style="fill:#333333"
     id="path3384"
     d="M 14.4,7 H 1.6 C 1.048,7 1,7.447 1,8 1,8.553 1.048,9 1.6,9 H 14.4 C 14.952,9 15,8.553 15,8 15,7.447 14.952,7 14.4,7 Z m 0,4 H 1.6 C 1.048,11 1,11.447 1,12 c 0,0.553 0.048,1 0.6,1 h 12.8 c 0.552,0 0.6,-0.447 0.6,-1 0,-0.553 -0.048,-1 -0.6,-1 z M 1.6,5 H 14.4 C 14.952,5 15,4.553 15,4 15,3.447 14.952,3 14.4,3 H 1.6 C 1.048,3 1,3.447 1,4 1,4.553 1.048,5 1.6,5 Z" /></svg>