<?xml version="1.0" encoding="UTF-8" standalone="no"?>
<!-- Generator: Adobe Illustrator 18.1.0, SVG Export Plug-In . SVG Version: 6.00 Build 0)  -->

<svg
   xmlns:dc="http://purl.org/dc/elements/1.1/"
   xmlns:cc="http://creativecommons.org/ns#"
   xmlns:rdf="http://www.w3.org/1999/02/22-rdf-syntax-ns#"
   xmlns:svg="http://www.w3.org/2000/svg"
   xmlns="http://www.w3.org/2000/svg"
   xmlns:sodipodi="http://sodipodi.sourceforge.net/DTD/sodipodi-0.dtd"
   xmlns:inkscape="http://www.inkscape.org/namespaces/inkscape"
   version="1.1"
   id="Menu"
   x="0px"
   y="0px"
   viewBox="0 0 20 20"
   enable-background="new 0 0 20 20"
   xml:space="preserve"
   inkscape:version="0.91 r13725"
   sodipodi:docname="menu.svg"><metadata
     id="metadata3390"><rdf:RDF><cc:Work
         rdf:about=""><dc:format>image/svg+xml</dc:format><dc:type
           rdf:resource="http://purl.org/dc/dcmitype/StillImage" /><dc:title></dc:title></cc:Work></rdf:RDF></metadata><defs
     id="defs3388" /><sodipodi:namedview
     pagecolor="#ffffff"
     bordercolor="#666666"
     borderopacity="1"
     objecttolerance="10"
     gridtolerance="10"
     guidetolerance="10"
     inkscape:pageopacity="0"
     inkscape:pageshadow="2"
     inkscape:window-width="1877"
     inkscape:window-height="1056"
     id="namedview3386"
     showgrid="false"
     inkscape:zoom="46.05"
     inkscape:cx="10"
     inkscape:cy="10"
     inkscape:window-x="43"
     inkscape:window-y="24"
     inkscape:window-maximized="1"
     inkscape:current-layer="Menu" /><path
     d="M16.4,9H3.6C3.048,9,3,9.447,3,10c0,0.553,0.048,1,0.6,1H16.4c0.552,0,0.6-0.447,0.6-1C17,9.447,16.952,9,16.4,9z M16.4,13  H3.6C3.048,13,3,13.447,3,14c0,0.553,0.048,1,0.6,1H16.4c0.552,0,0.6-0.447,0.6-1C17,13.447,16.952,13,16.4,13z M3.6,7H16.4  C16.952,7,17,6.553,17,6c0-0.553-0.048-1-0.6-1H3.6C3.048,5,3,5.447,3,6C3,6.553,3.048,7,3.6,7z"
     id="path3384"
     style="fill:#333333" /></svg>