<?xml version="1.0" encoding="UTF-8"?>
<!-- Created with Inkscape (http://www.inkscape.org/) -->
<svg width="96" height="96" version="1.1" viewBox="0 0 96 96" xmlns="http://www.w3.org/2000/svg" xmlns:cc="http://creativecommons.org/ns#" xmlns:dc="http://purl.org/dc/elements/1.1/" xmlns:rdf="http://www.w3.org/1999/02/22-rdf-syntax-ns#">
 <metadata>
  <rdf:RDF>
   <cc:Work rdf:about="">
    <dc:format>image/svg+xml</dc:format>
    <dc:type rdf:resource="http://purl.org/dc/dcmitype/StillImage"/>
   </cc:Work>
  </rdf:RDF>
 </metadata>
 <g transform="translate(67.857 -78.505)">
  <g transform="matrix(0 -1 -1 0 373.51 516.51)">
   <g transform="matrix(-.9996 0 0 1 575.94 -611)">
    <g transform="matrix(-1 0 0 1 576 611)">
     <rect transform="scale(-1,1)" x="-438" y="345.36" width="96.038" height="96" color="#000000" fill="none"/>
     <path transform="matrix(0 -1 -1.0004 0 438 441.36)" d="m35.977 2c-5.0328 0.058177-8.7153-0.1165-11.727 1.5449-1.5056 0.83071-2.6969 2.2338-3.3555 3.9883-0.6586 1.7545-0.89648 3.8364-0.89648 6.4668v68.002c0 2.6304 0.23788 4.7103 0.89648 6.4648 0.65861 1.7545 1.8498 3.1615 3.3555 3.9922 3.0112 1.6614 6.6938 1.4828 11.727 1.541h0.011719 24.021 0.011718c5.0328-0.058187 8.7153 0.12041 11.727-1.541 1.5056-0.83071 2.6969-2.2377 3.3555-3.9922s0.89648-3.8345 0.89648-6.4648v-68.002c0-2.6304-0.23788-4.7123-0.89648-6.4668s-1.8498-3.1576-3.3555-3.9883c-3.0112-1.6614-6.6938-1.4867-11.727-1.5449h-0.011718-24.021-0.011719zm-11.898 10h47.842c0.045993 0.60623 0.078125 1.2555 0.078125 2v62h-47.998v-62c0-0.74449 0.032132-1.3938 0.078125-2zm23.922 68a5 5 0 0 1 5 5 5 5 0 0 1-5 5 5 5 0 0 1-5-5 5 5 0 0 1 5-5z" color="#000000" color-rendering="auto" image-rendering="auto" shape-rendering="auto" solid-color="#000000" style="block-progression:tb;isolation:auto;mix-blend-mode:normal;text-decoration-color:#000000;text-decoration-line:none;text-decoration-style:solid;text-indent:0;text-transform:none;white-space:normal"/>
    </g>
   </g>
  </g>
 </g>
</svg>
