<?xml version="1.0" encoding="UTF-8" standalone="no"?>
<svg
   xmlns:dc="http://purl.org/dc/elements/1.1/"
   xmlns:cc="http://creativecommons.org/ns#"
   xmlns:rdf="http://www.w3.org/1999/02/22-rdf-syntax-ns#"
   xmlns:svg="http://www.w3.org/2000/svg"
   xmlns="http://www.w3.org/2000/svg"
   id="svg36"
   xml:space="preserve"
   width="110px"
   viewBox="0 0 110 110"
   version="1.0"
   style="enable-background:new 0 0 110 110;"
   height="110px"><metadata
     id="metadata42"><rdf:RDF><cc:Work
         rdf:about=""><dc:format>image/svg+xml</dc:format><dc:type
           rdf:resource="http://purl.org/dc/dcmitype/StillImage" /></cc:Work></rdf:RDF></metadata><defs
     id="defs40" /><g
     id="Artboard" /><g
     id="Multicolor"><circle
       id="circle3"
       style="fill:#FABC3D;"
       r="55"
       cy="55"
       cx="55" /><g
       id="g33"><path
         id="path5"
         style="fill:#F0F1F1;"
         d="M87,81c0,1.105-0.895,2-2,2H25c-1.105,0-2-0.895-2-2V41c0-1.105,0.895-2,2-2h22l0-2    c0-1.105,0.895-2,2-2h36c1.105,0,2,0.895,2,2V81z" /><path
         id="path7"
         style="fill:#FFFFFF;"
         d="M49,35c-1.104,0-2,0.896-2,2v2H25c-1.104,0-2,0.896-2,2v40c0,0.315,0.079,0.609,0.209,0.874    L70.083,35H49z" /><path
         id="path9"
         style="fill:#FFFFFF;"
         d="M41,39H27v-3c0-0.552,0.448-1,1-1h12c0.552,0,1,0.448,1,1V39z" /><path
         id="path11"
         style="fill:#40C9E7;"
         d="M83,46c0,0.552-0.448,1-1,1H72c-0.552,0-1-0.448-1-1v-6c0-0.552,0.448-1,1-1h10    c0.552,0,1,0.448,1,1V46z" /><circle
         id="circle13"
         style="fill:#5B5C5F;"
         r="2"
         cy="45"
         cx="33" /><rect
         id="rect15"
         y="35"
         x="29"
         width="2"
         style="fill:#E2E4E5;"
         height="4" /><rect
         id="rect17"
         y="35"
         x="33"
         width="2"
         style="fill:#E2E4E5;"
         height="4" /><rect
         id="rect19"
         y="35"
         x="37"
         width="2"
         style="fill:#E2E4E5;"
         height="4" /><rect
         id="rect21"
         y="51"
         x="23"
         width="64"
         style="fill:#3E3E3F;"
         height="28" /><polygon
         id="polygon23"
         style="fill:#5B5C5F;"
         points="23,51 23,79 26.083,79 54.083,51   " /><circle
         id="circle25"
         style="fill:#FFFFFF;"
         r="16"
         cy="63"
         cx="59" /><circle
         id="circle27"
         style="fill:#21B2D1;"
         r="12"
         cy="63"
         cx="59" /><path
         id="path29"
         style="fill:#40C9E7;"
         d="M59,51c-6.627,0-12,5.373-12,12c0,3.338,1.365,6.355,3.564,8.531l16.966-16.966    C65.355,52.365,62.338,51,59,51z" /><path
         id="path31"
         style="fill:#818284;"
         d="M39,69c0,1.105-0.895,2-2,2s-2-0.895-2-2v-4c0-1.105,0.895-2,2-2s2,0.895,2,2V69z" /></g></g></svg>