<?xml version="1.0" encoding="UTF-8"?>
<svg width="512pt" height="512pt" version="1.1" viewBox="0 0 512 512" xmlns="http://www.w3.org/2000/svg" xmlns:cc="http://creativecommons.org/ns#" xmlns:dc="http://purl.org/dc/elements/1.1/" xmlns:rdf="http://www.w3.org/1999/02/22-rdf-syntax-ns#">
 <metadata>
  <rdf:RDF>
   <cc:Work rdf:about="">
    <dc:format>image/svg+xml</dc:format>
    <dc:type rdf:resource="http://purl.org/dc/dcmitype/StillImage"/>
   </cc:Work>
  </rdf:RDF>
 </metadata>
 <g>
  <path d="m256 0c-141.16 0-256 114.84-256 256s114.84 256 256 256 256-114.84 256-256-114.84-256-256-256zm121.75 388.41c-4.1602 4.1602-9.6211 6.2539-15.082 6.2539-5.4609 0-10.926-2.0938-15.082-6.2539l-106.67-106.66c-4.0117-3.9883-6.25-9.4102-6.25-15.082v-138.67c0-11.797 9.5547-21.332 21.332-21.332s21.332 9.5352 21.332 21.332v129.84l100.42 100.41c8.3398 8.3438 8.3398 21.824 0 30.164z"/>
 </g>
</svg>
