<?xml version="1.0" encoding="UTF-8" standalone="no"?>
<svg
   xmlns:dc="http://purl.org/dc/elements/1.1/"
   xmlns:cc="http://creativecommons.org/ns#"
   xmlns:rdf="http://www.w3.org/1999/02/22-rdf-syntax-ns#"
   xmlns:svg="http://www.w3.org/2000/svg"
   xmlns="http://www.w3.org/2000/svg"
   viewBox="0 0 96 96.000001"
   version="1.1"
   id="svg4874"
   height="96"
   width="96">
  <defs
     id="defs4876" />
  <metadata
     id="metadata4879">
    <rdf:RDF>
      <cc:Work
         rdf:about="">
        <dc:format>image/svg+xml</dc:format>
        <dc:type
           rdf:resource="http://purl.org/dc/dcmitype/StillImage" />
        <dc:title />
      </cc:Work>
    </rdf:RDF>
  </metadata>
  <g
     transform="translate(67.857146,-78.50504)"
     id="layer1">
    <g
       style="display:inline"
       id="g4845"
       transform="matrix(0,-1,-1,0,373.50506,516.50504)">
      <g
         id="g4778"
         transform="matrix(-0.9996045,0,0,1,575.94296,-611.00001)">
        <g
           style="display:inline"
           id="g4780"
           transform="matrix(-1,0,0,1,575.99999,611)">
          <rect
             transform="scale(-1,1)"
             y="345.36221"
             x="-438.00244"
             height="96"
             width="96.037987"
             id="rect4782"
             style="color:#000000;display:inline;overflow:visible;visibility:visible;fill:none;stroke:none;stroke-width:4;marker:none;enable-background:accumulate" />
          <path
             style="color:#000000;display:inline;overflow:visible;visibility:visible;opacity:1;fill:none;fill-opacity:1;fill-rule:nonzero;stroke:#333333;stroke-width:4.00079155;stroke-linecap:butt;stroke-linejoin:miter;stroke-miterlimit:4;stroke-dasharray:none;stroke-dashoffset:0;stroke-opacity:1;marker:none;enable-background:accumulate"
             d="m 381.97988,355.36261 c -10.00396,0 -9.8873,3.91306 -10.00396,14 l 0,47.99961 c 0.11666,10.08694 0,14 10.00396,14 l 36.01466,0 c 10.00396,0 9.8873,-3.91306 10.00396,-14 l 0,-47.99961 c -0.11666,-10.08694 0,-14 -10.00396,-14 z"
             id="path4297" />
          <rect
             transform="matrix(0,-1,-1,0,0,0)"
             y="-371.97635"
             x="-401.36221"
             height="6.0023842"
             width="15.999997"
             id="rect4188"
             style="color:#000000;display:inline;overflow:visible;visibility:visible;opacity:1;fill:#333333;fill-opacity:1;fill-rule:nonzero;stroke:none;stroke-width:8.0015831;stroke-linecap:butt;stroke-linejoin:miter;stroke-miterlimit:4;stroke-dasharray:none;stroke-dashoffset:0;stroke-opacity:1;marker:none;enable-background:accumulate" />
          <path
             id="path4190"
             d="m 349.96763,433.36222 4.00158,0 8.00317,-12 0,-56 -8.00316,-12 -4.00159,0 z"
             style="color:#000000;display:inline;overflow:visible;visibility:visible;opacity:1;fill:#333333;fill-opacity:1;fill-rule:nonzero;stroke:none;stroke-width:8.0015831;stroke-linecap:butt;stroke-linejoin:miter;stroke-miterlimit:4;stroke-dasharray:none;stroke-dashoffset:0;stroke-opacity:1;marker:none;enable-background:accumulate" />
          <path
             id="path4"
             style="fill:#4d4d4d;enable-background:new"
             d="m 412.99256,405.36222 -25.0099,0 c -5.002,0 -5.002,-4.00002 -5.002,-4.00002 l 0,-15.99999 c 0,-3.99999 5.002,-3.99999 5.002,-3.99999 l 20.00789,0 10.00395,7.99999 0,11.99999 c 0,0 0,4.00002 -5.00194,4.00002 z m 0,-4.00002 0,-7.99998 -10.00396,0 0,-8.00001 -15.00594,0 0,15.99999 z" />
        </g>
      </g>
    </g>
  </g>
</svg>
