<?xml version="1.0" encoding="UTF-8"?>
<!-- Created with Inkscape (http://www.inkscape.org/) -->
<svg width="96" height="96" version="1.1" viewBox="0 0 96 96" xmlns="http://www.w3.org/2000/svg" xmlns:cc="http://creativecommons.org/ns#" xmlns:dc="http://purl.org/dc/elements/1.1/" xmlns:rdf="http://www.w3.org/1999/02/22-rdf-syntax-ns#">
 <metadata>
  <rdf:RDF>
   <cc:Work rdf:about="">
    <dc:format>image/svg+xml</dc:format>
    <dc:type rdf:resource="http://purl.org/dc/dcmitype/StillImage"/>
   </cc:Work>
  </rdf:RDF>
 </metadata>
 <g transform="translate(67.857 -78.505)">
  <g transform="matrix(0 -1 -1 0 373.51 516.51)">
   <g transform="matrix(-.9996 0 0 1 575.94 -611)">
    <g transform="matrix(-1 0 0 1 576 611)">
     <rect transform="scale(-1,1)" x="-438" y="345.36" width="96.038" height="96" color="#000000" fill="none"/>
     <g>
      <path transform="matrix(0 -1 -1.0004 0 438 441.36)" d="m35.908 4c-10.605 0-15.908-0.0028363-15.908 12.178v23.822l-8 8v31.82c0 12.181 5.3031 12.18 15.908 12.18h38.178c10.605 0 16.131-0.001076 15.908-12.18v-31.82-31.822c0.22264-12.179-5.3031-12.178-15.908-12.178h-30.178zm-0.001953 4h30.18c5.3025 0 8.8574 0.32774 10.037 0.99805 0.58983 0.33516 0.85206 0.56912 1.2305 1.5625 0.3784 0.99338 0.68877 2.8024 0.63867 5.5449v0.037109 31.857 31.855 0.037109c0.050139 2.7425-0.26019 4.5512-0.63867 5.5449s-0.6425 1.2272-1.2324 1.5625c-1.1798 0.67064-4.7329 1-10.035 1h-38.18c-5.3026 0-8.7847-0.32821-9.9375-0.99023-0.57641-0.33102-0.85111-0.5761-1.2441-1.5918s-0.72461-2.8444-0.72461-5.5996v-30.162l8-8v-25.479c0-2.7551 0.33166-4.5823 0.72461-5.5977 0.39296-1.0154 0.66782-1.2609 1.2441-1.5918 1.1526-0.66172 4.6347-0.98828 9.9375-0.98828z"/>
      <g stroke="#333" stroke-width="6.0012">
       <path d="m424 410.36h-12.005" color="#000000"/>
       <path d="m426 400.36h-14.006" color="#000000"/>
       <path d="m424 390.36h-12.005" color="#000000"/>
       <path d="m426 380.36h-14.006" color="#000000"/>
       <path d="m424 370.36h-12.005" color="#000000"/>
      </g>
     </g>
    </g>
   </g>
  </g>
 </g>
</svg>
