<?xml version="1.0" encoding="UTF-8" standalone="no"?>
<svg
   xmlns:dc="http://purl.org/dc/elements/1.1/"
   xmlns:cc="http://creativecommons.org/ns#"
   xmlns:rdf="http://www.w3.org/1999/02/22-rdf-syntax-ns#"
   xmlns:svg="http://www.w3.org/2000/svg"
   xmlns="http://www.w3.org/2000/svg"
   viewBox="0 0 96 96.000001"
   version="1.1"
   id="svg4874"
   height="102.4"
   width="102.4">
  <defs
     id="defs4876" />
  <metadata
     id="metadata4879">
    <rdf:RDF>
      <cc:Work
         rdf:about="">
        <dc:format>image/svg+xml</dc:format>
        <dc:type
           rdf:resource="http://purl.org/dc/dcmitype/StillImage" />
        <dc:title />
      </cc:Work>
    </rdf:RDF>
  </metadata>
  <g
     transform="translate(67.857146,-78.50504)"
     id="layer1">
    <rect
       style="color:#000000;display:inline;overflow:visible;visibility:visible;fill:none;stroke:none;stroke-width:4;marker:none;enable-background:accumulate"
       id="rect4782"
       width="96"
       height="96"
       x="78.505051"
       y="-28.142857"
       transform="rotate(90)" />
    <path
       id="path4220"
       d="m -22.857154,108.50504 v 9.34366 c 0,2.74609 0.09376,5.28992 0.279788,7.63408 0.186,2.31067 0.435601,4.63854 0.745606,6.9828 h 3.996095 c 0.279031,-2.34426 0.512731,-4.67213 0.698731,-6.9828 0.186015,-2.3108 0.279788,-4.85441 0.279788,-7.63408 v -9.34366 z"
       style="color:#000000;display:inline;overflow:visible;visibility:visible;fill:#000000;fill-opacity:1;fill-rule:nonzero;stroke:none;stroke-width:3;marker:none;enable-background:accumulate" />
    <path
       id="path4116"
       d="m -19.84131,136.50504 c -1.095653,0 -2.042576,0.38647 -2.839408,1.15797 -0.76364,0.73798 -1.144757,1.69244 -1.144757,2.86632 0,1.17418 0.381117,2.1301 1.144757,2.86808 0.796832,0.73796 1.743755,1.10763 2.839408,1.10763 1.128856,0 2.075768,-0.36967 2.839407,-1.10763 0.763641,-0.73798 1.144757,-1.6939 1.144757,-2.86808 0,-1.17388 -0.381116,-2.12834 -1.144757,-2.86632 -0.763639,-0.7715 -1.710551,-1.15797 -2.839407,-1.15797 z"
       style="color:#000000;display:inline;overflow:visible;visibility:visible;fill:#000000;fill-opacity:1;fill-rule:nonzero;stroke:none;stroke-width:3;marker:none;enable-background:accumulate" />
    <path
       id="path4210"
       transform="translate(-67.857146,78.50504)"
       d="M 48,2 C 48,2 38.181609,18.429688 12,18.429688 12,74.286805 48,94 48,94 48,94 84,74.286806 84,18.429688 57.818391,18.429688 48,2 48,2 Z m 0,6.2949219 2.373047,2.1699221 c 1.115598,1.020203 2.242337,1.99977 3.552734,2.939453 5.038668,3.613377 12.714945,7.121719 22.820313,8.357422 l 3.279297,0.398437 -0.191407,3.300782 C 78.48674,48.604906 70.685202,64.488993 62.902344,74.789062 57.583185,81.828552 53.17314,85.559789 50.070312,87.818359 L 48,89.324219 45.931641,87.818359 h -0.002 C 42.826861,85.559789 38.416815,81.828553 33.097656,74.789062 25.314751,64.488992 17.513261,48.604906 16.166016,25.460938 l -0.191407,-3.300782 3.279297,-0.398437 c 10.105368,-1.235703 17.781645,-4.744045 22.820313,-8.357422 1.310397,-0.939683 2.437136,-1.91925 3.552734,-2.939453 l 0.6875,-0.6289065 z"
       style="color:#000000;display:inline;overflow:visible;visibility:visible;opacity:1;fill:#000000;fill-opacity:1;fill-rule:nonzero;stroke:none;stroke-width:8;marker:none;enable-background:accumulate" />
  </g>
</svg>
