<?xml version="1.0" encoding="UTF-8" standalone="no"?>
<svg
   xmlns:dc="http://purl.org/dc/elements/1.1/"
   xmlns:cc="http://creativecommons.org/ns#"
   xmlns:rdf="http://www.w3.org/1999/02/22-rdf-syntax-ns#"
   xmlns:svg="http://www.w3.org/2000/svg"
   xmlns="http://www.w3.org/2000/svg"
   viewBox="0 0 96 96.000001"
   version="1.1"
   id="svg4874"
   height="102.4"
   width="102.4">
  <defs
     id="defs4876" />
  <metadata
     id="metadata4879">
    <rdf:RDF>
      <cc:Work
         rdf:about="">
        <dc:format>image/svg+xml</dc:format>
        <dc:type
           rdf:resource="http://purl.org/dc/dcmitype/StillImage" />
        <dc:title />
      </cc:Work>
    </rdf:RDF>
  </metadata>
  <g
     transform="translate(67.857146,-78.50504)"
     id="layer1">
    <g
       style="display:inline"
       id="g4845"
       transform="matrix(0,-1,-1,0,373.50506,516.50504)">
      <g
         id="g4778"
         transform="matrix(-0.9996045,0,0,1,575.94296,-611.00001)">
        <g
           style="display:inline"
           id="g4780"
           transform="matrix(-1,0,0,1,575.99999,611)">
          <rect
             transform="scale(-1,1)"
             y="345.36221"
             x="-438.00244"
             height="96"
             width="96.037987"
             id="rect4782"
             style="color:#000000;display:inline;overflow:visible;visibility:visible;fill:none;stroke:none;stroke-width:4;marker:none;enable-background:accumulate" />
          <path
             id="rect4178"
             d="m 425.99805,435.36133 h -2.00196 -74.02734 v -84 h 76.0293 z m -4.00196,-4 v -75.99805 h -68.02734 v 75.99805 z"
             style="color:#000000;font-style:normal;font-variant:normal;font-weight:normal;font-stretch:normal;font-size:medium;line-height:normal;font-family:sans-serif;font-variant-ligatures:normal;font-variant-position:normal;font-variant-caps:normal;font-variant-numeric:normal;font-variant-alternates:normal;font-feature-settings:normal;text-indent:0;text-align:start;text-decoration:none;text-decoration-line:none;text-decoration-style:solid;text-decoration-color:#000000;letter-spacing:normal;word-spacing:normal;text-transform:none;writing-mode:lr-tb;direction:ltr;baseline-shift:baseline;text-anchor:start;white-space:normal;shape-padding:0;clip-rule:nonzero;display:inline;overflow:visible;visibility:visible;opacity:1;isolation:auto;mix-blend-mode:normal;color-interpolation:sRGB;color-interpolation-filters:linearRGB;solid-color:#000000;solid-opacity:1;fill:#000000;fill-opacity:1;fill-rule:nonzero;stroke:none;stroke-width:4.00079107;stroke-linecap:butt;stroke-linejoin:miter;stroke-miterlimit:4;stroke-dasharray:none;stroke-dashoffset:0;stroke-opacity:1;marker:none;color-rendering:auto;image-rendering:auto;shape-rendering:auto;text-rendering:auto;enable-background:accumulate" />
          <path
             id="rect4180"
             d="m 417.99454,411.36222 h -4.00159 v -4 h 4.00159 z m -8.00317,0 h -4.00158 v -4 h 4.00158 z m -8.00317,0 h -4.00158 v -4 h 4.00158 z m -8.00316,0 h -4.00158 v -4 h 4.00158 z m -8.00317,0 h -4.00158 v -4 h 4.00158 z m -8.00316,0 h -4.00158 v -4 h 4.00158 z m -8.00317,0 h -4.00158 v -4 h 4.00158 z m -8.00316,0 h -4.00159 v -4 h 4.00159 z"
             style="color:#000000;display:inline;overflow:visible;visibility:visible;opacity:1;fill:#000000;fill-opacity:1;fill-rule:nonzero;stroke:none;stroke-width:4.00079203;stroke-linecap:butt;stroke-linejoin:miter;stroke-miterlimit:4;stroke-dasharray:none;stroke-dashoffset:0;stroke-opacity:1;marker:none;enable-background:accumulate" />
          <path
             style="color:#000000;display:inline;overflow:visible;visibility:visible;opacity:1;fill:#000000;fill-opacity:1;fill-rule:nonzero;stroke:none;stroke-width:4.00079203;stroke-linecap:butt;stroke-linejoin:miter;stroke-miterlimit:4;stroke-dasharray:none;stroke-dashoffset:0;stroke-opacity:1;marker:none;enable-background:accumulate"
             d="m 417.99454,379.36222 h -4.00159 v -4 h 4.00159 z m -8.00317,0 h -4.00158 v -4 h 4.00158 z m -8.00317,0 h -4.00158 v -4 h 4.00158 z m -8.00316,0 h -4.00158 v -4 h 4.00158 z m -8.00317,0 h -4.00158 v -4 h 4.00158 z m -8.00316,0 h -4.00158 v -4 h 4.00158 z m -8.00317,0 h -4.00158 v -4 h 4.00158 z m -8.00316,0 h -4.00159 v -4 h 4.00159 z"
             id="path4197" />
          <path
             id="path4199"
             d="m 401.98822,427.36222 h -4.00159 v -4 h 4.00159 z m 0,-8 h -4.00159 v -4 h 4.00159 z m 0,-8 h -4.00159 v -4 h 4.00159 z m 0,-8 h -4.00159 v -4 h 4.00159 z m 0,-8 h -4.00159 v -4 h 4.00159 z m 0,-8 h -4.00159 v -4 h 4.00159 z m 0,-8 h -4.00159 v -4 h 4.00159 z m 0,-8 h -4.00159 v -4 h 4.00159 z m 0,-8 h -4.00159 v -4 h 4.00159 z"
             style="color:#000000;display:inline;overflow:visible;visibility:visible;opacity:1;fill:#000000;fill-opacity:1;fill-rule:nonzero;stroke:none;stroke-width:4.0007925;stroke-linecap:butt;stroke-linejoin:miter;stroke-miterlimit:4;stroke-dasharray:none;stroke-dashoffset:0;stroke-opacity:1;marker:none;enable-background:accumulate" />
          <path
             style="color:#000000;display:inline;overflow:visible;visibility:visible;opacity:1;fill:#000000;fill-opacity:1;fill-rule:nonzero;stroke:none;stroke-width:4.0007925;stroke-linecap:butt;stroke-linejoin:miter;stroke-miterlimit:4;stroke-dasharray:none;stroke-dashoffset:0;stroke-opacity:1;marker:none;enable-background:accumulate"
             d="m 377.97871,427.36222 h -4.00159 v -4 h 4.00159 z m 0,-8 h -4.00159 v -4 h 4.00159 z m 0,-8 h -4.00159 v -4 h 4.00159 z m 0,-8 h -4.00159 v -4 h 4.00159 z m 0,-8 h -4.00159 v -4 h 4.00159 z m 0,-8 h -4.00159 v -4 h 4.00159 z m 0,-8 h -4.00159 v -4 h 4.00159 z m 0,-8 h -4.00159 v -4 h 4.00159 z m 0,-8 h -4.00159 v -4 h 4.00159 z"
             id="path4206" />
        </g>
      </g>
    </g>
  </g>
</svg>
