<?xml version="1.0" encoding="UTF-8" standalone="no"?>
<svg
   xmlns:dc="http://purl.org/dc/elements/1.1/"
   xmlns:cc="http://creativecommons.org/ns#"
   xmlns:rdf="http://www.w3.org/1999/02/22-rdf-syntax-ns#"
   xmlns:svg="http://www.w3.org/2000/svg"
   xmlns="http://www.w3.org/2000/svg"
   viewBox="0 0 96 96.000001"
   version="1.1"
   id="svg4874"
   height="102.4"
   width="102.4">
  <defs
     id="defs4876" />
  <metadata
     id="metadata4879">
    <rdf:RDF>
      <cc:Work
         rdf:about="">
        <dc:format>image/svg+xml</dc:format>
        <dc:type
           rdf:resource="http://purl.org/dc/dcmitype/StillImage" />
        <dc:title />
      </cc:Work>
    </rdf:RDF>
  </metadata>
  <g
     transform="translate(67.857146,-78.50504)"
     id="layer1">
    <g
       style="display:inline"
       id="g4845"
       transform="matrix(0,-1,-1,0,373.50506,516.50504)">
      <g
         id="g4778"
         transform="matrix(-0.9996045,0,0,1,575.94296,-611.00001)">
        <g
           style="display:inline"
           id="g4780"
           transform="matrix(-1,0,0,1,575.99999,611)">
          <rect
             transform="scale(-1,1)"
             y="345.36221"
             x="-438.00244"
             height="96"
             width="96.037987"
             id="rect4782"
             style="color:#000000;display:inline;overflow:visible;visibility:visible;fill:none;stroke:none;stroke-width:4;marker:none;enable-background:accumulate" />
          <path
             id="path5417"
             d="m 371.94351,362.16529 c 17.19788,-9.91601 39.26149,-3.98444 49.20927,13.22273 9.94779,17.20716 4.05873,39.25353 -13.13915,49.16953 -17.19788,9.91601 -39.26053,3.98613 -49.20832,-13.22104 -9.94778,-17.20717 -4.05969,-39.25522 13.1382,-49.17122 z m 2.00297,3.46463 c -15.32206,8.83444 -20.54308,28.37061 -11.67591,43.70858 8.86716,15.33798 28.41901,20.59054 43.74106,11.7561 15.32205,-8.83443 20.54307,-28.37061 11.6759,-43.70858 -8.86716,-15.33797 -28.41901,-20.59053 -43.74105,-11.7561 z"
             style="color:#000000;font-style:normal;font-variant:normal;font-weight:normal;font-stretch:normal;font-size:medium;line-height:normal;font-family:sans-serif;font-variant-ligatures:none;font-variant-position:normal;font-variant-caps:normal;font-variant-numeric:normal;font-variant-alternates:normal;font-feature-settings:normal;text-indent:0;text-align:start;text-decoration:none;text-decoration-line:none;text-decoration-style:solid;text-decoration-color:#000000;letter-spacing:normal;word-spacing:normal;text-transform:none;writing-mode:lr-tb;direction:ltr;baseline-shift:baseline;text-anchor:start;white-space:normal;shape-padding:0;clip-rule:nonzero;display:inline;overflow:visible;visibility:visible;opacity:1;isolation:auto;mix-blend-mode:normal;color-interpolation:sRGB;color-interpolation-filters:linearRGB;solid-color:#000000;solid-opacity:1;fill:#000000;fill-opacity:1;fill-rule:nonzero;stroke:none;stroke-width:4.0007925;stroke-linecap:butt;stroke-linejoin:miter;stroke-miterlimit:4;stroke-dasharray:none;stroke-dashoffset:0;stroke-opacity:1;marker:none;color-rendering:auto;image-rendering:auto;shape-rendering:auto;text-rendering:auto;enable-background:accumulate" />
          <path
             id="path4168"
             transform="matrix(0,-1,-1.0003957,0,438.00245,441.36222)"
             d="m 54.902344,5.5820312 -13.804688,2.0625 v 7.0976568 a 34.033369,33.971264 43.145308 0 1 13.804688,0.02734 V 5.5839844 Z m -28.246094,6.2441408 -10.517578,8.941406 5.18164,6.175781 a 34.033369,33.971264 43.145308 0 1 10.580079,-8.867187 z m 42.630859,0.06641 -5.207031,6.207031 a 34.033369,33.971264 43.145308 0 1 0.894531,0.47461 34.033369,33.971264 43.145308 0 1 9.673829,8.40625 l 5.271484,-6.28125 z M 8.3984375,34.007812 6.0878906,47.619141 14.035156,49.021484 a 34.033369,33.971264 43.145308 0 1 2.386719,-13.597656 z m 79.1171875,0.01563 -7.986328,1.408203 a 34.033369,33.971264 43.145308 0 1 2.431641,13.58789 L 90,47.603516 Z m -71.757813,24.621093 -7.0878901,4.09375 h -0.00195 l 6.9804692,11.910157 7.017578,-4.050782 A 34.033369,33.971264 43.145308 0 1 15.757812,58.644531 Z m 64.511719,0.01563 a 34.033369,33.971264 43.145308 0 1 -2.804687,6.371094 34.033369,33.971264 43.145308 0 1 -4.058594,5.607422 l 7.021484,4.054687 6.826172,-12 z m -50.121093,18.207032 -2.804688,7.703124 13.003906,4.638672 2.757813,-7.580078 A 34.033369,33.971264 43.145308 0 1 31.025391,77.433594 34.033369,33.971264 43.145308 0 1 30.148438,76.867188 Z m 35.732421,0.08008 a 34.033369,33.971264 43.145308 0 1 -12.978515,4.707031 l 2.78125,7.638672 L 68.625,84.486328 Z"
             style="color:#000000;display:inline;overflow:visible;visibility:visible;fill:#000000;fill-opacity:1;fill-rule:nonzero;stroke:none;stroke-width:2;marker:none;enable-background:accumulate" />
          <path
             id="ellipse4539"
             d="m 377.95161,372.55694 c 11.46388,-6.60993 26.18875,-2.6521 32.81902,8.81669 6.63028,11.4688 2.70094,26.18465 -8.76295,32.79458 -11.46388,6.60992 -26.19142,2.65138 -32.82169,-8.81742 -6.63028,-11.46878 -2.69827,-26.18392 8.76562,-32.79385 z m 2.00198,3.46296 c -9.58805,5.52834 -12.85033,17.73231 -7.30067,27.3319 5.54967,9.5996 17.76375,12.8801 27.3518,7.35175 9.58805,-5.52834 12.85033,-17.73231 7.30067,-27.3319 -5.54967,-9.5996 -17.76375,-12.8801 -27.3518,-7.35175 z"
             style="color:#000000;font-style:normal;font-variant:normal;font-weight:normal;font-stretch:normal;font-size:medium;line-height:normal;font-family:sans-serif;font-variant-ligatures:none;font-variant-position:normal;font-variant-caps:normal;font-variant-numeric:normal;font-variant-alternates:normal;font-feature-settings:normal;text-indent:0;text-align:start;text-decoration:none;text-decoration-line:none;text-decoration-style:solid;text-decoration-color:#000000;letter-spacing:normal;word-spacing:normal;text-transform:none;writing-mode:lr-tb;direction:ltr;baseline-shift:baseline;text-anchor:start;white-space:normal;shape-padding:0;clip-rule:nonzero;display:inline;overflow:visible;visibility:visible;opacity:1;isolation:auto;mix-blend-mode:normal;color-interpolation:sRGB;color-interpolation-filters:linearRGB;solid-color:#000000;solid-opacity:1;fill:#000000;fill-opacity:1;fill-rule:nonzero;stroke:none;stroke-width:4.0007925;stroke-linecap:butt;stroke-linejoin:miter;stroke-miterlimit:4;stroke-dasharray:none;stroke-dashoffset:0;stroke-opacity:1;marker:none;color-rendering:auto;image-rendering:auto;shape-rendering:auto;text-rendering:auto;enable-background:accumulate" />
        </g>
      </g>
    </g>
  </g>
</svg>
