<?xml version="1.0" encoding="UTF-8" standalone="no"?>
<!-- Created with Inkscape (http://www.inkscape.org/) -->

<svg
   xmlns:dc="http://purl.org/dc/elements/1.1/"
   xmlns:cc="http://creativecommons.org/ns#"
   xmlns:rdf="http://www.w3.org/1999/02/22-rdf-syntax-ns#"
   xmlns:svg="http://www.w3.org/2000/svg"
   xmlns="http://www.w3.org/2000/svg"
   xmlns:sodipodi="http://sodipodi.sourceforge.net/DTD/sodipodi-0.dtd"
   xmlns:inkscape="http://www.inkscape.org/namespaces/inkscape"
   width="102.4"
   height="102.4"
   id="svg4874"
   version="1.1"
   inkscape:version="0.92.1 r15371"
   viewBox="0 0 96 96.000001"
   sodipodi:docname="consolidation.svg">
  <defs
     id="defs4876" />
  <sodipodi:namedview
     id="base"
     pagecolor="#ffffff"
     bordercolor="#666666"
     borderopacity="1.0"
     inkscape:pageopacity="0.0"
     inkscape:pageshadow="2"
     inkscape:zoom="3.5967995"
     inkscape:cx="-27.468874"
     inkscape:cy="59.858737"
     inkscape:document-units="px"
     inkscape:current-layer="g4780"
     showgrid="true"
     showborder="true"
     fit-margin-top="0"
     fit-margin-left="0"
     fit-margin-right="0"
     fit-margin-bottom="0"
     inkscape:snap-bbox="true"
     inkscape:bbox-paths="true"
     inkscape:bbox-nodes="true"
     inkscape:snap-bbox-edge-midpoints="true"
     inkscape:snap-bbox-midpoints="true"
     inkscape:object-paths="true"
     inkscape:snap-intersection-paths="true"
     inkscape:object-nodes="true"
     inkscape:snap-smooth-nodes="true"
     inkscape:snap-midpoints="true"
     inkscape:snap-object-midpoints="true"
     inkscape:snap-center="true"
     showguides="true"
     inkscape:guide-bbox="true"
     inkscape:snap-global="true"
     inkscape:window-width="2495"
     inkscape:window-height="1576"
     inkscape:window-x="65"
     inkscape:window-y="24"
     inkscape:window-maximized="1">
    <inkscape:grid
       type="xygrid"
       id="grid5451"
       empspacing="8"
       originx="0"
       originy="0"
       spacingx="1"
       spacingy="1" />
    <sodipodi:guide
       orientation="1,0"
       position="7.9999999,-8"
       id="guide4063"
       inkscape:locked="false" />
    <sodipodi:guide
       orientation="1,0"
       position="3.9999999,-8"
       id="guide4065"
       inkscape:locked="false" />
    <sodipodi:guide
       orientation="0,1"
       position="-7.9999999,88"
       id="guide4067"
       inkscape:locked="false" />
    <sodipodi:guide
       orientation="0,1"
       position="-7.9999999,92"
       id="guide4069"
       inkscape:locked="false" />
    <sodipodi:guide
       orientation="0,1"
       position="104,3.9999999"
       id="guide4071"
       inkscape:locked="false" />
    <sodipodi:guide
       orientation="0,1"
       position="-4.9999999,8"
       id="guide4073"
       inkscape:locked="false" />
    <sodipodi:guide
       orientation="1,0"
       position="91.999999,-8"
       id="guide4075"
       inkscape:locked="false" />
    <sodipodi:guide
       orientation="1,0"
       position="87.999999,-8"
       id="guide4077"
       inkscape:locked="false" />
    <sodipodi:guide
       orientation="0,1"
       position="-7.9999999,84"
       id="guide4074"
       inkscape:locked="false" />
    <sodipodi:guide
       orientation="1,0"
       position="12,-8"
       id="guide4076"
       inkscape:locked="false" />
    <sodipodi:guide
       orientation="1,0"
       position="83.999999,-9"
       id="guide4080"
       inkscape:locked="false" />
    <sodipodi:guide
       position="47.999999,-8"
       orientation="1,0"
       id="guide4170"
       inkscape:locked="false" />
    <sodipodi:guide
       position="-7.9999999,47.999999"
       orientation="0,1"
       id="guide4172"
       inkscape:locked="false" />
  </sodipodi:namedview>
  <metadata
     id="metadata4879">
    <rdf:RDF>
      <cc:Work
         rdf:about="">
        <dc:format>image/svg+xml</dc:format>
        <dc:type
           rdf:resource="http://purl.org/dc/dcmitype/StillImage" />
        <dc:title />
      </cc:Work>
    </rdf:RDF>
  </metadata>
  <g
     inkscape:label="Layer 1"
     inkscape:groupmode="layer"
     id="layer1"
     transform="translate(67.857146,-78.50504)">
    <g
       transform="matrix(0,-1,-1,0,373.50506,516.50504)"
       id="g4845"
       style="display:inline">
      <g
         inkscape:export-ydpi="90"
         inkscape:export-xdpi="90"
         inkscape:export-filename="next01.png"
         transform="matrix(-0.9996045,0,0,1,575.94296,-611.00001)"
         id="g4778"
         inkscape:label="Layer 1">
        <g
           transform="matrix(-1,0,0,1,575.99999,611)"
           id="g4780"
           style="display:inline">
          <rect
             style="color:#000000;display:inline;overflow:visible;visibility:visible;fill:none;stroke:none;stroke-width:4;marker:none;enable-background:accumulate"
             id="rect4782"
             width="96.037987"
             height="96"
             x="-438.00244"
             y="345.36221"
             transform="scale(-1,1)" />
          <rect
             y="-349.96762"
             x="-401.36221"
             height="4.0015826"
             width="15.999994"
             id="rect4577"
             style="color:#000000;display:inline;overflow:visible;visibility:visible;fill:#000000;fill-opacity:1;fill-rule:nonzero;stroke:none;stroke-width:1;marker:none;enable-background:accumulate"
             transform="matrix(0,-1,-1,0,0,0)" />
          <path
             style="color:#000000;font-style:normal;font-variant:normal;font-weight:normal;font-stretch:normal;line-height:normal;font-family:sans-serif;-inkscape-font-specification:sans-serif;text-indent:0;text-align:start;text-decoration:none;text-decoration-line:none;letter-spacing:normal;word-spacing:normal;text-transform:none;writing-mode:lr-tb;direction:ltr;baseline-shift:baseline;text-anchor:start;clip-rule:nonzero;display:inline;overflow:visible;visibility:visible;color-interpolation:sRGB;color-interpolation-filters:linearRGB;fill:#000000;fill-opacity:1;stroke:none;stroke-width:5.25000048;marker:none;enable-background:accumulate"
             d="m 48,21 c -14.87615,0 -27,12.097419 -27,26.941406 0,9.311416 4.77425,17.5169 12,22.353516 v 4.724609 c 0,1.662982 0.10727,3.07939 0.59375,4.458985 0.48648,1.379714 1.55235,2.695555 2.84375,3.398437 C 39.02031,84.282707 41.5,84 45,84 h 6 c 3.5,0 5.9797,0.282707 8.5625,-1.123047 1.2914,-0.702882 2.35727,-2.018723 2.84375,-3.398437 C 62.89273,78.098921 63,76.682513 63,75.019531 V 70.294922 C 70.22575,65.458306 75,57.252822 75,47.941406 75,33.097419 62.87615,21 48,21 Z m 0,4 c 12.70479,0 23,10.267049 23,22.945312 0,8.670151 -4.89167,16.077948 -12,19.972657 v 5.394531 1.695312 c 1e-5,0.970677 -0.15708,1.911846 -0.65625,2.751954 -0.49917,0.840107 -1.337081,1.4363 -2.144531,1.738281 C 54.584309,80.102028 53.00001,80 51,80 h -6 c -1.99999,0 -3.586262,0.102028 -5.201172,-0.501953 -0.80745,-0.301981 -1.645361,-0.898184 -2.144531,-1.738281 -0.49917,-0.840098 -0.65625,-1.781277 -0.65625,-2.751954 V 73.3125 67.917969 c -7.10833,-3.894709 -12,-11.302506 -12,-19.972657 C 24.998047,35.267049 35.29521,25 48,25 Z"
             transform="matrix(0,-1,-1.0003957,0,438.00245,441.36222)"
             id="path4721"
             inkscape:connector-curvature="0" />
          <path
             style="display:inline;fill:#000000"
             id="path3851-2"
             sodipodi:nodetypes="ccccccc"
             inkscape:connector-curvature="0"
             d="m 369.11161,391.86282 21.00831,9.59939 v -7.28819 l 15.00595,0.6894 -21.00833,-9.60119 v 7.38899 z" />
          <path
             inkscape:connector-curvature="0"
             id="path5579"
             style="font-style:normal;font-variant:normal;font-weight:normal;font-stretch:normal;font-size:15px;line-height:125%;font-family:Ubuntu;-inkscape-font-specification:Ubuntu;text-align:end;letter-spacing:0px;word-spacing:0px;writing-mode:lr-tb;text-anchor:end;display:inline;fill:#000000;fill-opacity:1;stroke:none"
             d="m 436.00168,390.36222 h -2.31751 q -2.27116,0 -4.7741,0.37114 -2.45656,0.37111 -4.91314,0.92782 v 3.40208 q 2.45658,0.55671 4.91314,0.92782 2.50294,0.37114 4.82044,0.37114 h 2.27117 z"
             inkscape:transform-center-y="-40.000019" />
          <path
             inkscape:transform-center-y="-34.965771"
             d="m 428.33581,367.76413 -2.00702,1.1583 q -1.96688,1.13513 -3.94885,2.70752 -1.94181,1.54919 -3.79081,3.25912 l 1.70172,2.94629 q 2.40592,-0.74568 4.71899,-1.65209 2.35326,-0.92956 4.36027,-2.08785 l 1.96689,-1.13513 z"
             style="font-style:normal;font-variant:normal;font-weight:normal;font-stretch:normal;font-size:15px;line-height:125%;font-family:Ubuntu;-inkscape-font-specification:Ubuntu;text-align:end;letter-spacing:0px;word-spacing:0px;writing-mode:lr-tb;text-anchor:end;display:inline;fill:#000000;fill-opacity:1;stroke:none"
             id="path4702"
             inkscape:connector-curvature="0"
             inkscape:transform-center-x="-20.562475" />
          <path
             inkscape:transform-center-x="-34.965775"
             inkscape:connector-curvature="0"
             id="path4704"
             style="font-style:normal;font-variant:normal;font-weight:normal;font-stretch:normal;font-size:15px;line-height:125%;font-family:Ubuntu;-inkscape-font-specification:Ubuntu;text-align:end;letter-spacing:0px;word-spacing:0px;writing-mode:lr-tb;text-anchor:end;display:inline;fill:#000000;fill-opacity:1;stroke:none"
             d="m 410.39346,352.02503 -1.15875,2.00623 q -1.13558,1.96611 -2.06551,4.31843 -0.90675,2.31216 -1.65273,4.71713 l 2.94746,1.70104 q 1.7106,-1.84826 3.26039,-3.78931 1.57302,-1.98119 2.73177,-3.9874 l 1.13559,-1.96611 z"
             inkscape:transform-center-y="-20.56248" />
          <path
             d="m 386.98227,347.3622 v 2.31659 q 0,2.27027 0.37129,4.77222 0.37126,2.45558 0.92819,4.91119 h 3.40343 q 0.55693,-2.4556 0.92818,-4.91119 0.37128,-2.50196 0.37129,-4.81854 l 1e-5,-2.27027 z"
             style="font-style:normal;font-variant:normal;font-weight:normal;font-stretch:normal;font-size:15px;line-height:125%;font-family:Ubuntu;-inkscape-font-specification:Ubuntu;text-align:end;letter-spacing:0px;word-spacing:0px;writing-mode:lr-tb;text-anchor:end;display:inline;fill:#000000;fill-opacity:1;stroke:none"
             id="path4706"
             inkscape:connector-curvature="0"
             inkscape:transform-center-x="-40.00002" />
          <path
             inkscape:transform-center-x="-34.965775"
             inkscape:connector-curvature="0"
             id="path4708"
             style="font-style:normal;font-variant:normal;font-weight:normal;font-stretch:normal;font-size:15px;line-height:125%;font-family:Ubuntu;-inkscape-font-specification:Ubuntu;text-align:end;letter-spacing:0px;word-spacing:0px;writing-mode:lr-tb;text-anchor:end;display:inline;fill:#000000;fill-opacity:1;stroke:none"
             d="m 364.37524,355.02504 1.15876,2.00622 q 1.13558,1.96612 2.7086,3.9473 1.54979,1.94103 3.2604,3.7893 l 2.94746,-1.70104 q -0.74597,-2.40497 -1.65274,-4.71712 -0.92994,-2.35233 -2.08868,-4.35855 l -1.13557,-1.96612 z"
             inkscape:transform-center-y="20.56248" />
          <path
             inkscape:transform-center-y="-34.965771"
             d="m 431.337,413.76415 -2.00702,-1.15829 q -1.96688,-1.13513 -4.32014,-2.06469 -2.31307,-0.90641 -4.71899,-1.65209 l -1.70172,2.94629 q 1.849,1.70993 3.79081,3.25912 1.98197,1.57239 3.98898,2.73068 l 1.96689,1.13514 z"
             style="font-style:normal;font-variant:normal;font-weight:normal;font-stretch:normal;font-size:15px;line-height:125%;font-family:Ubuntu;-inkscape-font-specification:Ubuntu;text-align:end;letter-spacing:0px;word-spacing:0px;writing-mode:lr-tb;text-anchor:end;display:inline;fill:#000000;fill-opacity:1;stroke:none"
             id="path4710"
             inkscape:connector-curvature="0"
             inkscape:transform-center-x="20.562475" />
          <path
             inkscape:transform-center-x="34.965775"
             inkscape:connector-curvature="0"
             id="path4712"
             style="font-style:normal;font-variant:normal;font-weight:normal;font-stretch:normal;font-size:15px;line-height:125%;font-family:Ubuntu;-inkscape-font-specification:Ubuntu;text-align:end;letter-spacing:0px;word-spacing:0px;writing-mode:lr-tb;text-anchor:end;display:inline;fill:#000000;fill-opacity:1;stroke:none"
             d="m 415.59168,431.6994 -1.15876,-2.00622 q -1.13558,-1.9661 -2.7086,-3.94729 -1.54979,-1.94105 -3.26039,-3.78931 l -2.94746,1.70104 q 0.74598,2.40497 1.65273,4.71713 0.92993,2.35232 2.08868,4.35854 l 1.13558,1.96612 z"
             inkscape:transform-center-y="-20.56248" />
          <path
             d="m 392.98466,439.36224 -1e-5,-2.31659 q -10e-6,-2.27026 -0.37129,-4.77222 -0.37125,-2.45559 -0.92818,-4.91119 h -3.40343 q -0.55693,2.45561 -0.92819,4.91119 -0.37129,2.50195 -0.37129,4.81854 v 2.27027 z"
             style="font-style:normal;font-variant:normal;font-weight:normal;font-stretch:normal;font-size:15px;line-height:125%;font-family:Ubuntu;-inkscape-font-specification:Ubuntu;text-align:end;letter-spacing:0px;word-spacing:0px;writing-mode:lr-tb;text-anchor:end;display:inline;fill:#000000;fill-opacity:1;stroke:none"
             id="path4714"
             inkscape:connector-curvature="0"
             inkscape:transform-center-x="40.00002" />
          <path
             inkscape:transform-center-x="34.965775"
             inkscape:connector-curvature="0"
             id="path4716"
             style="font-style:normal;font-variant:normal;font-weight:normal;font-stretch:normal;font-size:15px;line-height:125%;font-family:Ubuntu;-inkscape-font-specification:Ubuntu;text-align:end;letter-spacing:0px;word-spacing:0px;writing-mode:lr-tb;text-anchor:end;display:inline;fill:#000000;fill-opacity:1;stroke:none"
             d="m 369.57347,434.69941 1.15874,-2.00623 q 1.13557,-1.96611 2.06551,-4.31844 0.90677,-2.31215 1.65274,-4.71712 l -2.94746,-1.70104 q -1.71061,1.84827 -3.2604,3.7893 -1.57302,1.98118 -2.73177,3.98741 l -1.13559,1.96611 z"
             inkscape:transform-center-y="20.56248" />
        </g>
      </g>
    </g>
  </g>
</svg>
