<?xml version="1.0" encoding="UTF-8" standalone="no"?>
<svg
   xmlns:dc="http://purl.org/dc/elements/1.1/"
   xmlns:cc="http://creativecommons.org/ns#"
   xmlns:rdf="http://www.w3.org/1999/02/22-rdf-syntax-ns#"
   xmlns:svg="http://www.w3.org/2000/svg"
   xmlns="http://www.w3.org/2000/svg"
   viewBox="0 0 96 96.000001"
   version="1.1"
   id="svg4874"
   height="96"
   width="96">
  <defs
     id="defs4876" />
  <metadata
     id="metadata4879">
    <rdf:RDF>
      <cc:Work
         rdf:about="">
        <dc:format>image/svg+xml</dc:format>
        <dc:type
           rdf:resource="http://purl.org/dc/dcmitype/StillImage" />
        <dc:title />
      </cc:Work>
    </rdf:RDF>
  </metadata>
  <g
     transform="translate(67.857146,-78.50504)"
     id="layer1">
    <g
       style="display:inline"
       id="g4845"
       transform="matrix(0,-1,-1,0,373.50506,516.50504)">
      <g
         id="g4778"
         transform="matrix(-0.9996045,0,0,1,575.94296,-611.00001)">
        <g
           style="display:inline"
           id="g4780"
           transform="matrix(-1,0,0,1,575.99999,611)">
          <rect
             transform="scale(-1,1)"
             y="345.36221"
             x="-438.00244"
             height="96"
             width="96.037987"
             id="rect4782"
             style="color:#000000;display:inline;overflow:visible;visibility:visible;fill:none;stroke:none;stroke-width:4;marker:none;enable-background:accumulate" />
          <path
             id="path4203"
             transform="matrix(0,-1,-1.0003957,0,438.00245,441.36222)"
             d="M 35.908203 4 C 25.303113 4 20 3.9971637 20 16.177734 L 20 40 L 12 48 L 12 79.820312 C 12 92.001143 17.303113 92 27.908203 92 L 66.085938 92 C 76.691028 92 82.216781 91.998924 81.994141 79.820312 L 81.994141 48 L 81.994141 16.177734 C 82.216781 3.9992229 76.691028 4 66.085938 4 L 35.908203 4 z M 35.90625 8 L 66.085938 8 C 71.388477 8 74.943387 8.3277421 76.123047 8.9980469 C 76.712877 9.3332043 76.975106 9.5671699 77.353516 10.560547 C 77.731916 11.553924 78.042287 13.362964 77.992188 16.105469 L 77.992188 16.142578 L 77.992188 48 L 77.992188 79.855469 L 77.992188 79.892578 C 78.042327 82.635103 77.731996 84.443813 77.353516 85.4375 C 76.975036 86.431187 76.711014 86.664683 76.121094 87 C 74.941244 87.670635 71.388228 88 66.085938 88 L 27.90625 88 C 22.60368 88 19.12157 87.671794 17.96875 87.009766 C 17.39234 86.678747 17.117639 86.433667 16.724609 85.417969 C 16.331579 84.402271 16 82.573519 16 79.818359 L 16 49.65625 L 24 41.65625 L 24 16.177734 C 24 13.422634 24.331659 11.595466 24.724609 10.580078 C 25.117569 9.5646899 25.39243 9.3191503 25.96875 8.9882812 C 27.12139 8.3265631 30.60346 8 35.90625 8 z "
             style="font-style:normal;font-variant:normal;font-weight:normal;font-stretch:normal;font-size:15px;line-height:125%;font-family:Ubuntu;-inkscape-font-specification:Ubuntu;text-align:center;letter-spacing:0px;word-spacing:0px;writing-mode:lr-tb;text-anchor:middle;display:inline;opacity:1;fill:#333333;fill-opacity:1;stroke:none;stroke-width:1.05404377" />
          <path
             id="path4210"
             d="m 423.99692,410.36222 -12.00475,0"
             style="color:#000000;display:inline;overflow:visible;visibility:visible;opacity:1;fill:#333333;fill-opacity:1;fill-rule:nonzero;stroke:#333333;stroke-width:6.00118685;stroke-linecap:butt;stroke-linejoin:miter;stroke-miterlimit:4;stroke-dasharray:none;stroke-dashoffset:0;stroke-opacity:1;marker:none;enable-background:accumulate" />
          <path
             style="color:#000000;display:inline;overflow:visible;visibility:visible;opacity:1;fill:#333333;fill-opacity:1;fill-rule:nonzero;stroke:#333333;stroke-width:6.00118685;stroke-linecap:butt;stroke-linejoin:miter;stroke-miterlimit:4;stroke-dasharray:none;stroke-dashoffset:0;stroke-opacity:1;marker:none;enable-background:accumulate"
             d="m 425.99773,400.36224 -14.00554,0"
             id="path4212" />
          <path
             style="color:#000000;display:inline;overflow:visible;visibility:visible;opacity:1;fill:#333333;fill-opacity:1;fill-rule:nonzero;stroke:#333333;stroke-width:6.00118685;stroke-linecap:butt;stroke-linejoin:miter;stroke-miterlimit:4;stroke-dasharray:none;stroke-dashoffset:0;stroke-opacity:1;marker:none;enable-background:accumulate"
             d="m 423.99692,390.36222 -12.00475,0"
             id="path4214" />
          <path
             id="path4216"
             d="m 425.99773,380.36224 -14.00554,0"
             style="color:#000000;display:inline;overflow:visible;visibility:visible;opacity:1;fill:#333333;fill-opacity:1;fill-rule:nonzero;stroke:#333333;stroke-width:6.00118685;stroke-linecap:butt;stroke-linejoin:miter;stroke-miterlimit:4;stroke-dasharray:none;stroke-dashoffset:0;stroke-opacity:1;marker:none;enable-background:accumulate" />
          <path
             id="path4218"
             d="m 423.99692,370.36222 -12.00475,0"
             style="color:#000000;display:inline;overflow:visible;visibility:visible;opacity:1;fill:#333333;fill-opacity:1;fill-rule:nonzero;stroke:#333333;stroke-width:6.00118685;stroke-linecap:butt;stroke-linejoin:miter;stroke-miterlimit:4;stroke-dasharray:none;stroke-dashoffset:0;stroke-opacity:1;marker:none;enable-background:accumulate" />
        </g>
      </g>
    </g>
  </g>
</svg>
