<?xml version="1.0" encoding="UTF-8" standalone="no"?>
<!-- Created with Inkscape (http://www.inkscape.org/) -->

<svg
   xmlns:dc="http://purl.org/dc/elements/1.1/"
   xmlns:cc="http://creativecommons.org/ns#"
   xmlns:rdf="http://www.w3.org/1999/02/22-rdf-syntax-ns#"
   xmlns:svg="http://www.w3.org/2000/svg"
   xmlns="http://www.w3.org/2000/svg"
   xmlns:sodipodi="http://sodipodi.sourceforge.net/DTD/sodipodi-0.dtd"
   xmlns:inkscape="http://www.inkscape.org/namespaces/inkscape"
   width="102.4"
   height="102.4"
   id="svg4874"
   version="1.1"
   inkscape:version="0.92.1 r15371"
   viewBox="0 0 96 96.000001"
   sodipodi:docname="attachment.svg">
  <defs
     id="defs4876" />
  <sodipodi:namedview
     id="base"
     pagecolor="#ffffff"
     bordercolor="#666666"
     borderopacity="1.0"
     inkscape:pageopacity="0.0"
     inkscape:pageshadow="2"
     inkscape:zoom="5.6199993"
     inkscape:cx="-5.4537418"
     inkscape:cy="59.581836"
     inkscape:document-units="px"
     inkscape:current-layer="g4780"
     showgrid="true"
     showborder="true"
     fit-margin-top="0"
     fit-margin-left="0"
     fit-margin-right="0"
     fit-margin-bottom="0"
     inkscape:snap-bbox="true"
     inkscape:bbox-paths="true"
     inkscape:bbox-nodes="true"
     inkscape:snap-bbox-edge-midpoints="true"
     inkscape:snap-bbox-midpoints="true"
     inkscape:object-paths="true"
     inkscape:snap-intersection-paths="true"
     inkscape:object-nodes="true"
     inkscape:snap-smooth-nodes="true"
     inkscape:snap-midpoints="true"
     inkscape:snap-object-midpoints="true"
     inkscape:snap-center="true"
     showguides="true"
     inkscape:guide-bbox="true"
     inkscape:window-width="2495"
     inkscape:window-height="1576"
     inkscape:window-x="65"
     inkscape:window-y="24"
     inkscape:window-maximized="1">
    <inkscape:grid
       type="xygrid"
       id="grid5451"
       empspacing="8"
       originx="0"
       originy="0"
       spacingx="1"
       spacingy="1" />
    <sodipodi:guide
       orientation="1,0"
       position="7.9999999,-8"
       id="guide4063"
       inkscape:locked="false" />
    <sodipodi:guide
       orientation="1,0"
       position="3.9999999,-8"
       id="guide4065"
       inkscape:locked="false" />
    <sodipodi:guide
       orientation="0,1"
       position="-7.9999999,88"
       id="guide4067"
       inkscape:locked="false" />
    <sodipodi:guide
       orientation="0,1"
       position="-7.9999999,92"
       id="guide4069"
       inkscape:locked="false" />
    <sodipodi:guide
       orientation="0,1"
       position="104,3.9999999"
       id="guide4071"
       inkscape:locked="false" />
    <sodipodi:guide
       orientation="0,1"
       position="-4.9999999,8"
       id="guide4073"
       inkscape:locked="false" />
    <sodipodi:guide
       orientation="1,0"
       position="91.999999,-8"
       id="guide4075"
       inkscape:locked="false" />
    <sodipodi:guide
       orientation="1,0"
       position="87.999999,-8"
       id="guide4077"
       inkscape:locked="false" />
    <sodipodi:guide
       orientation="0,1"
       position="-7.9999999,84"
       id="guide4074"
       inkscape:locked="false" />
    <sodipodi:guide
       orientation="1,0"
       position="12,-8"
       id="guide4076"
       inkscape:locked="false" />
    <sodipodi:guide
       orientation="0,1"
       position="-4.9999999,12"
       id="guide4078"
       inkscape:locked="false" />
    <sodipodi:guide
       orientation="1,0"
       position="83.999999,-9"
       id="guide4080"
       inkscape:locked="false" />
    <sodipodi:guide
       position="47.999999,-8"
       orientation="1,0"
       id="guide4170"
       inkscape:locked="false" />
    <sodipodi:guide
       position="-7.9999999,47.999999"
       orientation="0,1"
       id="guide4172"
       inkscape:locked="false" />
  </sodipodi:namedview>
  <metadata
     id="metadata4879">
    <rdf:RDF>
      <cc:Work
         rdf:about="">
        <dc:format>image/svg+xml</dc:format>
        <dc:type
           rdf:resource="http://purl.org/dc/dcmitype/StillImage" />
        <dc:title />
      </cc:Work>
    </rdf:RDF>
  </metadata>
  <g
     inkscape:label="Layer 1"
     inkscape:groupmode="layer"
     id="layer1"
     transform="translate(67.857146,-78.50504)">
    <g
       transform="matrix(0,-1,-1,0,373.50506,516.50504)"
       id="g4845"
       style="display:inline">
      <g
         inkscape:export-ydpi="90"
         inkscape:export-xdpi="90"
         inkscape:export-filename="next01.png"
         transform="matrix(-0.9996045,0,0,1,575.94296,-611.00001)"
         id="g4778"
         inkscape:label="Layer 1">
        <g
           transform="matrix(-1,0,0,1,575.99999,611)"
           id="g4780"
           style="display:inline">
          <rect
             style="color:#000000;display:inline;overflow:visible;visibility:visible;fill:none;stroke:none;stroke-width:4;marker:none;enable-background:accumulate"
             id="rect4782"
             width="96.037987"
             height="96"
             x="-438.00244"
             y="345.36221"
             transform="scale(-1,1)" />
          <path
             style="color:#000000;font-style:normal;font-variant:normal;font-weight:normal;font-stretch:normal;font-size:medium;line-height:normal;font-family:sans-serif;font-variant-ligatures:none;font-variant-position:normal;font-variant-caps:normal;font-variant-numeric:normal;font-variant-alternates:normal;font-feature-settings:normal;text-indent:0;text-align:start;text-decoration:none;text-decoration-line:none;text-decoration-style:solid;text-decoration-color:#000000;letter-spacing:normal;word-spacing:normal;text-transform:none;writing-mode:lr-tb;direction:ltr;baseline-shift:baseline;text-anchor:start;white-space:normal;shape-padding:0;clip-rule:nonzero;display:inline;overflow:visible;visibility:visible;opacity:1;isolation:auto;mix-blend-mode:normal;color-interpolation:sRGB;color-interpolation-filters:linearRGB;solid-color:#000000;solid-opacity:1;fill:#000000;fill-opacity:1;fill-rule:nonzero;stroke:none;stroke-width:4.00079107;stroke-linecap:butt;stroke-linejoin:round;stroke-miterlimit:4;stroke-dasharray:none;stroke-dashoffset:0;stroke-opacity:1;marker:none;color-rendering:auto;image-rendering:auto;shape-rendering:auto;text-rendering:auto;enable-background:accumulate"
             d="m 408.6875,349.51953 c -1.43592,-0.22293 -2.87922,-0.20839 -4.34375,0.0527 -5.85813,1.0445 -11.36766,5.57432 -18.56055,12.84179 l -35.57422,35.94336 2.84375,2.8125 35.57422,-35.9414 c 7.03655,-7.10951 12.19886,-10.96614 16.41993,-11.71875 4.22106,-0.75262 8.19812,1.12493 13.93945,6.92578 5.74133,5.80084 7.61036,9.83452 6.86133,14.12304 -0.74904,4.28853 -4.56892,9.49988 -11.60547,16.60938 l -16.60157,16.77344 -18.97265,19.16992 c -4.5,4.54666 -7.89563,6.23327 -10.69336,6.24609 -2.79773,0.0128 -5.59973,-1.62118 -8.99219,-5.04883 -3.3925,-3.42764 -5.01866,-6.26655 -5.00586,-9.11718 0.0128,-2.85063 1.69136,-6.28537 6.19141,-10.83203 l 30.83008,-31.1504 c 3.45316,-3.48893 5.99471,-5.14252 7.77929,-5.41992 1.78459,-0.2774 3.41269,0.43101 5.97852,3.02344 2.56582,2.59242 3.28002,4.25394 3.00195,6.08008 -0.27806,1.82614 -1.91991,4.38998 -5.37304,7.8789 l -30.83008,31.1504 2.84179,2.81445 30.83204,-31.15039 c 3.66159,-3.69955 5.9719,-6.72624 6.48437,-10.0918 0.51247,-3.36555 -1.14543,-6.49747 -4.11328,-9.49609 -2.96786,-2.99863 -6.08366,-4.68539 -9.4375,-4.16407 -3.35384,0.52133 -6.34619,2.861 -10.00781,6.56055 l -30.83008,31.15039 c -4.8567,4.90701 -7.32804,9.2583 -7.34766,13.62891 -0.0196,4.3706 2.43982,8.18838 6.16211,11.94922 3.72224,3.76085 7.5061,6.2543 11.85547,6.23437 4.34938,-0.0199 8.66093,-2.52658 13.51758,-7.43359 l 18.97266,-19.16797 16.60156,-16.77344 c 7.1929,-7.26747 11.67347,-12.8392 12.70312,-18.73437 1.02965,-5.89517 -1.84438,-11.44699 -7.96094,-17.62696 -4.58741,-4.63497 -8.83285,-7.43276 -13.14062,-8.10156 z"
             id="path4108"
             inkscape:connector-curvature="0" />
        </g>
      </g>
    </g>
  </g>
</svg>
