<?xml version="1.0" encoding="UTF-8" standalone="no"?>
<svg
   xmlns:dc="http://purl.org/dc/elements/1.1/"
   xmlns:cc="http://creativecommons.org/ns#"
   xmlns:rdf="http://www.w3.org/1999/02/22-rdf-syntax-ns#"
   xmlns:svg="http://www.w3.org/2000/svg"
   xmlns="http://www.w3.org/2000/svg"
   viewBox="0 0 96 96.000001"
   version="1.1"
   id="svg4874"
   height="102.4"
   width="102.4">
  <defs
     id="defs4876" />
  <metadata
     id="metadata4879">
    <rdf:RDF>
      <cc:Work
         rdf:about="">
        <dc:format>image/svg+xml</dc:format>
        <dc:type
           rdf:resource="http://purl.org/dc/dcmitype/StillImage" />
        <dc:title />
      </cc:Work>
    </rdf:RDF>
  </metadata>
  <g
     transform="translate(67.857146,-78.50504)"
     id="layer1">
    <g
       style="display:inline"
       id="g4845"
       transform="matrix(0,-1,-1,0,373.50506,516.50504)">
      <g
         id="g4778"
         transform="matrix(-0.9996045,0,0,1,575.94296,-611.00001)">
        <g
           style="display:inline"
           id="g4780"
           transform="matrix(-1,0,0,1,575.99999,611)">
          <rect
             transform="scale(-1,1)"
             y="345.36221"
             x="-438.00244"
             height="96"
             width="96.037987"
             id="rect4782"
             style="color:#000000;display:inline;overflow:visible;visibility:visible;fill:none;stroke:none;stroke-width:4;marker:none;enable-background:accumulate" />
          <path
             id="path4108"
             d="m 408.6875,349.51953 c -1.43592,-0.22293 -2.87922,-0.20839 -4.34375,0.0527 -5.85813,1.0445 -11.36766,5.57432 -18.56055,12.84179 l -35.57422,35.94336 2.84375,2.8125 35.57422,-35.9414 c 7.03655,-7.10951 12.19886,-10.96614 16.41993,-11.71875 4.22106,-0.75262 8.19812,1.12493 13.93945,6.92578 5.74133,5.80084 7.61036,9.83452 6.86133,14.12304 -0.74904,4.28853 -4.56892,9.49988 -11.60547,16.60938 l -16.60157,16.77344 -18.97265,19.16992 c -4.5,4.54666 -7.89563,6.23327 -10.69336,6.24609 -2.79773,0.0128 -5.59973,-1.62118 -8.99219,-5.04883 -3.3925,-3.42764 -5.01866,-6.26655 -5.00586,-9.11718 0.0128,-2.85063 1.69136,-6.28537 6.19141,-10.83203 l 30.83008,-31.1504 c 3.45316,-3.48893 5.99471,-5.14252 7.77929,-5.41992 1.78459,-0.2774 3.41269,0.43101 5.97852,3.02344 2.56582,2.59242 3.28002,4.25394 3.00195,6.08008 -0.27806,1.82614 -1.91991,4.38998 -5.37304,7.8789 l -30.83008,31.1504 2.84179,2.81445 30.83204,-31.15039 c 3.66159,-3.69955 5.9719,-6.72624 6.48437,-10.0918 0.51247,-3.36555 -1.14543,-6.49747 -4.11328,-9.49609 -2.96786,-2.99863 -6.08366,-4.68539 -9.4375,-4.16407 -3.35384,0.52133 -6.34619,2.861 -10.00781,6.56055 l -30.83008,31.15039 c -4.8567,4.90701 -7.32804,9.2583 -7.34766,13.62891 -0.0196,4.3706 2.43982,8.18838 6.16211,11.94922 3.72224,3.76085 7.5061,6.2543 11.85547,6.23437 4.34938,-0.0199 8.66093,-2.52658 13.51758,-7.43359 l 18.97266,-19.16797 16.60156,-16.77344 c 7.1929,-7.26747 11.67347,-12.8392 12.70312,-18.73437 1.02965,-5.89517 -1.84438,-11.44699 -7.96094,-17.62696 -4.58741,-4.63497 -8.83285,-7.43276 -13.14062,-8.10156 z"
             style="color:#000000;font-style:normal;font-variant:normal;font-weight:normal;font-stretch:normal;font-size:medium;line-height:normal;font-family:sans-serif;font-variant-ligatures:none;font-variant-position:normal;font-variant-caps:normal;font-variant-numeric:normal;font-variant-alternates:normal;font-feature-settings:normal;text-indent:0;text-align:start;text-decoration:none;text-decoration-line:none;text-decoration-style:solid;text-decoration-color:#000000;letter-spacing:normal;word-spacing:normal;text-transform:none;writing-mode:lr-tb;direction:ltr;baseline-shift:baseline;text-anchor:start;white-space:normal;shape-padding:0;clip-rule:nonzero;display:inline;overflow:visible;visibility:visible;opacity:1;isolation:auto;mix-blend-mode:normal;color-interpolation:sRGB;color-interpolation-filters:linearRGB;solid-color:#000000;solid-opacity:1;fill:#000000;fill-opacity:1;fill-rule:nonzero;stroke:none;stroke-width:4.00079107;stroke-linecap:butt;stroke-linejoin:round;stroke-miterlimit:4;stroke-dasharray:none;stroke-dashoffset:0;stroke-opacity:1;marker:none;color-rendering:auto;image-rendering:auto;shape-rendering:auto;text-rendering:auto;enable-background:accumulate" />
        </g>
      </g>
    </g>
  </g>
</svg>
