<?xml version="1.0" encoding="UTF-8" standalone="no"?>
<svg
   xmlns:dc="http://purl.org/dc/elements/1.1/"
   xmlns:cc="http://creativecommons.org/ns#"
   xmlns:rdf="http://www.w3.org/1999/02/22-rdf-syntax-ns#"
   xmlns:svg="http://www.w3.org/2000/svg"
   xmlns="http://www.w3.org/2000/svg"
   viewBox="0 0 96 96.000001"
   version="1.1"
   id="svg4874"
   height="102.4"
   width="102.4">
  <defs
     id="defs4876" />
  <metadata
     id="metadata4879">
    <rdf:RDF>
      <cc:Work
         rdf:about="">
        <dc:format>image/svg+xml</dc:format>
        <dc:type
           rdf:resource="http://purl.org/dc/dcmitype/StillImage" />
        <dc:title />
      </cc:Work>
    </rdf:RDF>
  </metadata>
  <g
     transform="translate(67.857146,-78.50504)"
     id="layer1">
    <g
       style="display:inline"
       id="g4845"
       transform="matrix(0,-1,-1,0,373.50506,516.50504)">
      <g
         id="g4778"
         transform="matrix(-0.9996045,0,0,1,575.94296,-611.00001)">
        <g
           style="display:inline"
           id="g4780"
           transform="matrix(-1,0,0,1,575.99999,611)">
          <rect
             transform="scale(-1,1)"
             y="345.36221"
             x="-438.00244"
             height="96"
             width="96.037987"
             id="rect4782"
             style="color:#000000;display:inline;overflow:visible;visibility:visible;fill:none;stroke:none;stroke-width:4;marker:none;enable-background:accumulate" />
          <path
             id="path4116"
             d="m 432,393.36133 c 0,23.17268 -18.83506,42 -42.01562,42 -23.18057,0 -42.01758,-18.82732 -42.01758,-42 0,-23.17268 18.83701,-42 42.01758,-42 23.18056,0 42.01562,18.82732 42.01562,42 z m -4.00195,0 c 0,-21.00964 -16.99444,-37.99805 -38.01367,-37.99805 -21.01924,0 -38.01563,16.98841 -38.01563,37.99805 0,21.00963 16.99639,38 38.01563,38 21.01923,0 38.01367,-16.99037 38.01367,-38 z"
             style="color:#000000;font-style:normal;font-variant:normal;font-weight:normal;font-stretch:normal;font-size:medium;line-height:normal;font-family:sans-serif;font-variant-ligatures:none;font-variant-position:normal;font-variant-caps:normal;font-variant-numeric:normal;font-variant-alternates:normal;font-feature-settings:normal;text-indent:0;text-align:start;text-decoration:none;text-decoration-line:none;text-decoration-style:solid;text-decoration-color:#000000;letter-spacing:normal;word-spacing:normal;text-transform:none;writing-mode:lr-tb;direction:ltr;baseline-shift:baseline;text-anchor:start;white-space:normal;shape-padding:0;clip-rule:nonzero;display:inline;overflow:visible;visibility:visible;opacity:1;isolation:auto;mix-blend-mode:normal;color-interpolation:sRGB;color-interpolation-filters:linearRGB;solid-color:#000000;solid-opacity:1;fill:#000000;fill-opacity:1;fill-rule:nonzero;stroke:none;stroke-width:4.00079107;stroke-linecap:round;stroke-linejoin:round;stroke-miterlimit:4;stroke-dasharray:none;stroke-dashoffset:0;stroke-opacity:1;marker:none;color-rendering:auto;image-rendering:auto;shape-rendering:auto;text-rendering:auto;enable-background:accumulate" />
          <path
             id="path4942"
             d="m 410.99171,396.36133 h -10.92425 c -3.21031,0 -6.18293,-0.0933 -8.92345,-0.2793 -2.70138,-0.18602 -5.42285,-0.43607 -8.16338,-0.74609 v -3.99805 c 2.74053,-0.27903 5.462,-0.51126 8.16338,-0.69726 2.70138,-0.18602 5.67399,-0.2793 8.92345,-0.2793 h 10.92425 z m -34.01346,-3 c 0,1.10006 -0.38681,2.04956 -1.15866,2.84961 -0.73829,0.76673 -1.69183,1.15039 -2.86637,1.15039 -1.17456,0 -2.13199,-0.38366 -2.87027,-1.15039 -0.73828,-0.80005 -1.10786,-1.74955 -1.10786,-2.84961 0,-1.13341 0.36958,-2.08291 1.10786,-2.84961 0.73828,-0.76673 1.69571,-1.15039 2.87027,-1.15039 1.17454,0 2.12808,0.38366 2.86637,1.15039 0.77185,0.7667 1.15866,1.7162 1.15866,2.84961 z"
             style="font-style:normal;font-variant:normal;font-weight:normal;font-stretch:normal;font-size:15px;line-height:125%;font-family:Ubuntu;-inkscape-font-specification:Ubuntu;text-align:center;letter-spacing:0px;word-spacing:0px;writing-mode:lr-tb;text-anchor:middle;display:inline;fill:#000000;fill-opacity:1;stroke:none;stroke-width:1.00019777" />
        </g>
      </g>
    </g>
  </g>
</svg>
