/* XPM */
static char *rapid_photo_downloader[] = {
/* columns rows colors chars-per-pixel */
"32 32 185 2",
"   c #6B2F54",
".  c #6F7C47",
"X  c #67764F",
"o  c #747E43",
"O  c #667550",
"+  c #61745B",
"@  c #5C4975",
"#  c #405F76",
"$  c #5C517D",
"%  c #436173",
"&  c #426179",
"*  c #BB0D0D",
"=  c #BB120C",
"-  c #B30E18",
";  c #BF1411",
":  c #B3141F",
">  c #B23B01",
",  c #A81D25",
"<  c #B51621",
"1  c #B61F25",
"2  c #B51F28",
"3  c #CC0202",
"4  c #C90508",
"5  c #D40101",
"6  c #D60C0C",
"7  c #C81818",
"8  c #D41414",
"9  c #D81616",
"0  c #D41A1B",
"q  c #D91F1F",
"w  c #C6212A",
"e  c #CD292F",
"r  c #DA2424",
"t  c #D92E2F",
"y  c #CD2C33",
"u  c #CF3036",
"i  c #D93032",
"p  c #D03439",
"a  c #D1383E",
"s  c #B14300",
"d  c #B24C00",
"f  c #B35A00",
"g  c #BF5A00",
"h  c #B46200",
"j  c #B36A00",
"k  c #B57200",
"l  c #B57C00",
"z  c #C06500",
"x  c #CC6100",
"c  c #C16B00",
"v  c #CE6E00",
"b  c #D96900",
"n  c #C17000",
"m  c #CE7400",
"M  c #C27C00",
"N  c #CF7A00",
"B  c #DB7600",
"V  c #DC7D00",
"C  c #B53D4B",
"Z  c #D23C42",
"A  c #DC3F40",
"S  c #D34247",
"D  c #D44448",
"F  c #D74B4C",
"G  c #D94C4F",
"H  c #D54D50",
"J  c #DB4F51",
"K  c #D65052",
"L  c #79813E",
"P  c #78854C",
"I  c #708056",
"U  c #7C8C5C",
"Y  c #9D951C",
"T  c #B58100",
"R  c #AA9D10",
"E  c #A29918",
"W  c #B4A306",
"Q  c #B0A00B",
"!  c #B3A716",
"~  c #B7AB11",
"^  c #878D3E",
"/  c #8C903A",
"(  c #969A3C",
")  c #A1A53F",
"_  c #C38300",
"`  c #C48C00",
"'  c #D18600",
"]  c #DE8300",
"[  c #D28C00",
"{  c #C59400",
"}  c #D29200",
"|  c #D39B00",
" . c #E09300",
".. c #E19D00",
"X. c #C6A200",
"o. c #C7A800",
"O. c #D5A400",
"+. c #C6B304",
"@. c #CBB600",
"#. c #C2B008",
"$. c #D7B400",
"%. c #D2BE09",
"&. c #C1B517",
"*. c #C7B812",
"=. c #E3A400",
"-. c #E4AA00",
";. c #E5B100",
":. c #E7BE00",
">. c #E6883A",
",. c #E6923A",
"<. c #E8973B",
"1. c #E89C3C",
"2. c #E9A53C",
"3. c #EAAD3C",
"4. c #ECB33C",
"5. c #ECBA3B",
"6. c #D7C304",
"7. c #DCC500",
"8. c #D6C613",
"9. c #D1C318",
"0. c #E8C500",
"q. c #E2CE09",
"w. c #E7D104",
"e. c #EDD400",
"r. c #EEC539",
"t. c #EFCB39",
"y. c #828A43",
"u. c #818E4F",
"i. c #8B9446",
"p. c #909741",
"a. c #959E49",
"s. c #8A9753",
"d. c #9CA244",
"f. c #9FAA7E",
"g. c #BDBD65",
"h. c #B9BB68",
"j. c #C6C35D",
"k. c #C9C359",
"l. c #C3C160",
"z. c #254C83",
"x. c #284F86",
"c. c #2E5687",
"v. c #2D548A",
"b. c #2D588F",
"n. c #315786",
"m. c #325884",
"M. c #30578E",
"N. c #2E5A94",
"B. c #335D94",
"V. c #385F94",
"C. c #305E9A",
"Z. c #356097",
"A. c #3C6496",
"S. c #32619D",
"D. c #39649C",
"F. c #3D689F",
"G. c #3364A2",
"H. c #3B67A0",
"J. c #3C6AA5",
"K. c #3D6CA8",
"L. c #4D5584",
"P. c #595885",
"I. c #615781",
"U. c #625882",
"Y. c #426DA4",
"T. c #416EA8",
"R. c #4770A7",
"E. c #4470A8",
"W. c #4B75AA",
"Q. c #5174A6",
"!. c #5476A8",
"~. c #517AAE",
"^. c #567CB0",
"/. c #657FAC",
"(. c #5E82AF",
"). c #5780B4",
"_. c #5980B2",
"`. c #6386B3",
"'. c #6889B4",
"]. c #8C9A8A",
"[. c #93A085",
"{. c #98A783",
"}. c #9CA980",
"|. c #91A288",
" X c None",
/* pixels */
" X X X X X X X X X X X X X Xw w w w w w w w w w w w w  X X X X X",
" X X X X X X X X X X X X XJ 3.3.4.2.5.1.5.<.r.,.t.>.a S  X X X X",
" X X X X X X X X X X X X XF .. .=. .-.] ;.V :.B 0.b 6 q F  X X X",
" X X X X X X X X X X X X XH } [ | ' | N O.m $.v $.x 6 5 9 D  X X",
" X X X X X X X X X X X X XH _ _ ` M { c { c { c o.g 8 5 6 D  X X",
" X X X X X X X X X X X X XH h f h f j d k d l s T > 8 5 5 D  X X",
" X X X X X X X X X X X X XJ ; * = * = * = * = * = 7 6 5 r Z  X X",
" X X X X X X X X X X X X XC < 2 < 6 6 6 6 6 6 6 6 5 5 5 i e  X X",
" X X X(.h.f.g.}.l.{.j.|.k.[.k.].`.@ 3 5 5 5 5 5 5 5 5 5 t y  X X",
" X X X`.9.) 8.d.q.a.w.s.e.s.e.u.J._.P.- 3 3 3 3 3 3 3 3 6 Z  X X",
" X X X`.&.( *.p.6.i.6.u.7.u.7.U J.G.).P.6 5 5 6 6 5 6 3 5 Z  X X",
" X X X`.! / ~ ^ #.y.+.P @.P @.I K.G.T.U.5 5 5 5 5 5 6 3 5 Z  X X",
" X X X'.Y L E o R . Q X W O W + K.G.Y.I.5 5 5 5 5 5 5 3 5 a  X X",
" X X X'.& m.& n.& v.& c.% v.% A.K.C.W.I.5 5 5 5 5 5 5 3 6 a  X X",
" X X X_.T.E.E.E.E.E.E.E.E.E.E.K.G.S.!.  5 5 5 5 5 5 5 3 5 p  X X",
" X X X^.G.G.G.G.G.G.G.G.G.G.S.S.C.G.!.  5 5 5 5 5 5 5 3 5 p  X X",
" X X X^.G.G.C.G.S.S.S.C.C.C.C.C.C.C.W.$ 5 5 5 5 5 5 5 3 5 u  X X",
" X X X^.G.J.J.K.K.K.J.J.J.H.H.J.H.C.H.$ 5 5 5 5 5 5 5 3 5 u  X X",
" X X X^.G.G.G.G.G.G.G.S.S.S.C.S.D.N.F.$ 5 5 5 5 5 5 5 5 5 y  X X",
" X X X~.G.J.G.G.G.G.G.S.S.S.S.C.C.N.D.$ 5 5 5 5 5 5 5 5 5 y  X X",
" X X XW.G.G.G.G.G.G.S.S.S.C.C.C.S.N.D.$ 5 5 5 5 5 5 5 5 5 e  X X",
" X X XW.C.G.G.G.S.S.S.C.C.C.C.C.B.N.Z.$ 6 6 6 6 6 6 9 0 6 y  X X",
" X X XW.C.G.G.S.G.C.S.C.C.N.C.N.N.N.V.L.2 2 2 2 1 1 1 , 1 2  X X",
" X X XW.C.G.C.G.C.C.C.C.C.C.C.C.N.b.B.V. X X X X X X X X X X X X",
" X X XR.S.C.S.S.C.C.C.C.C.N.N.N.N.b.V.V. X X X X X X X X X X X X",
" X X XY.C.S.S.C.C.C.C.N.C.N.N.N.N.b.B.B. X X X X X X X X X X X X",
" X X XT.C.S.C.C.C.C.C.C.N.N.N.N.b.b.B.M. X X X X X X X X X X X X",
" X X XY.C.C.C.C.C.N.N.N.N.N.N.N.N.b.B.B. X X X X X X X X X X X X",
" X X XY.Y.F.S.Z.Z.Z.Z.V.V.B.B.B.V.V.V.M. X X X X X X X X X X X X",
" X X XM.x.v.M.v.M.v.b.v.v.v.v.v.x.z.v.z. X X X X X X X X X X X X",
" X X X X X X X X X X X X X X X X X X X X X X X X X X X X X X X X",
" X X X X X X X X X X X X X X X X X X X X X X X X X X X X X X X X"
};
