/* XPM */
static char * thumbnail_100x75_xpm[] = {
"100 75 28 1",
" 	c None",
".	c #000000",
"+	c #232323",
"@	c #7A7A7A",
"#	c #838383",
"$	c #8C8C8C",
"%	c #909090",
"&	c #8E8E8E",
"*	c #525252",
"=	c #6E6E6E",
"-	c #939393",
";	c #A3A3A3",
">	c #ABABAB",
",	c #A8A8A8",
"'	c #9B9B9B",
")	c #727272",
"!	c #A4A4A4",
"~	c #BBBBBB",
"{	c #C4C4C4",
"]	c #C1C1C1",
"^	c #AFAFAF",
"/	c #3E3E3E",
"(	c #A6A6A6",
"_	c #BEBEBE",
":	c #C8C8C8",
"<	c #070707",
"[	c #090909",
"}	c #0A0A0A",
"............                                                                            ............",
"............                                                                            ............",
"............                                                                            ............",
"............                                                                            ............",
"....+@#$%&*.                                                                            .*&%$#@+....",
"....=#-;>,'.                                                                            .',>;-#=....",
"....)&!~{]^.                                                                            .^]{~!&)....",
"..../%(_:{&.                                                                            .&{:_(%/....",
".....<[}}}..                                                                            ..}}}[<.....",
"............                                                                            ............",
"............                                                                            ............",
"............                                                                            ............",
"............                                                                            ............",
"............                                                                            ............",
"....+@#$%&*.                                                                            .*&%$#@+....",
"....=#-;>,'.                                                                            .',>;-#=....",
"....)&!~{]^.                                                                            .^]{~!&)....",
"..../%(_:{&.                                                                            .&{:_(%/....",
".....<[}}}..                                                                            ..}}}[<.....",
"............                                                                            ............",
"............                                                                            ............",
"............                                                                            ............",
"............                                                                            ............",
"............                                                                            ............",
"....+@#$%&*.                                                                            .*&%$#@+....",
"....=#-;>,'.                                                                            .',>;-#=....",
"....)&!~{]^.                                                                            .^]{~!&)....",
"..../%(_:{&.                                                                            .&{:_(%/....",
".....<[}}}..                                                                            ..}}}[<.....",
"............                                                                            ............",
"............                                                                            ............",
"............                                                                            ............",
"............                                                                            ............",
"............                                                                            ............",
"....+@#$%&*.                                                                            .*&%$#@+....",
"....=#-;>,'.                                                                            .',>;-#=....",
"....)&!~{]^.                                                                            .^]{~!&)....",
"..../%(_:{&.                                                                            .&{:_(%/....",
".....<[}}}..                                                                            ..}}}[<.....",
"............                                                                            ............",
"............                                                                            ............",
"............                                                                            ............",
"............                                                                            ............",
"............                                                                            ............",
"....+@#$%&*.                                                                            .*&%$#@+....",
"....=#-;>,'.                                                                            .',>;-#=....",
"....)&!~{]^.                                                                            .^]{~!&)....",
"..../%(_:{&.                                                                            .&{:_(%/....",
".....<[}}}..                                                                            ..}}}[<.....",
"............                                                                            ............",
"............                                                                            ............",
"............                                                                            ............",
"............                                                                            ............",
"............                                                                            ............",
"....+@#$%&*.                                                                            .*&%$#@+....",
"....=#-;>,'.                                                                            .',>;-#=....",
"....)&!~{]^.                                                                            .^]{~!&)....",
"..../%(_:{&.                                                                            .&{:_(%/....",
".....<[}}}..                                                                            ..}}}[<.....",
"............                                                                            ............",
"............                                                                            ............",
"............                                                                            ............",
"............                                                                            ............",
"............                                                                            ............",
"....+@#$%&*.                                                                            .*&%$#@+....",
"....=#-;>,'.                                                                            .',>;-#=....",
"....)&!~{]^.                                                                            .^]{~!&)....",
"..../%(_:{&.                                                                            .&{:_(%/....",
".....<[}}}..                                                                            ..}}}[<.....",
"............                                                                            ............",
"............                                                                            ............",
"............                                                                            ............",
"............                                                                            ............",
"............                                                                            ............",
"....+@#$%&*.                                                                            .*&%$#@+...."};
